<?xml version="1.0" encoding="UTF-8" standalone="no"?>
<!-- Created with Inkscape (http://www.inkscape.org/) -->

<svg
   xmlns:dc="http://purl.org/dc/elements/1.1/"
   xmlns:cc="http://creativecommons.org/ns#"
   xmlns:rdf="http://www.w3.org/1999/02/22-rdf-syntax-ns#"
   xmlns:svg="http://www.w3.org/2000/svg"
   xmlns="http://www.w3.org/2000/svg"
   xmlns:sodipodi="http://sodipodi.sourceforge.net/DTD/sodipodi-0.dtd"
   xmlns:inkscape="http://www.inkscape.org/namespaces/inkscape"
   width="16px"
   height="16px"
   viewBox="0 0 16 16"
   version="1.1"
   id="SVGRoot"
   inkscape:version="0.92.5 (2060ec1f9f, 2020-04-08)"
   sodipodi:docname="icon.svg">
  <defs
     id="defs2259" />
  <sodipodi:namedview
     id="base"
     pagecolor="#ffffff"
     bordercolor="#666666"
     borderopacity="1.0"
     inkscape:pageopacity="0.0"
     inkscape:pageshadow="2"
     inkscape:zoom="22.627417"
     inkscape:cx="1.2990599"
     inkscape:cy="8.5049152"
     inkscape:document-units="px"
     inkscape:current-layer="layer1"
     showgrid="false"
     inkscape:window-width="1920"
     inkscape:window-height="1001"
     inkscape:window-x="-9"
     inkscape:window-y="-9"
     inkscape:window-maximized="1"
     inkscape:grid-bbox="true" />
  <metadata
     id="metadata2262">
    <rdf:RDF>
      <cc:Work
         rdf:about="">
        <dc:format>image/svg+xml</dc:format>
        <dc:type
           rdf:resource="http://purl.org/dc/dcmitype/StillImage" />
        <dc:title></dc:title>
      </cc:Work>
    </rdf:RDF>
  </metadata>
  <g
     inkscape:label="Layer 1"
     inkscape:groupmode="layer"
     id="layer1">
    <path
       id="path6245-1-9-9"
       d="m 15.578045,8.0216419 c 0,4.1816811 -3.389864,7.5715451 -7.5715427,7.5715451 -4.1816764,0 -7.57155159,-3.389864 -7.57155159,-7.5715451 0,-4.1816777 3.38987519,-7.57170304 7.57155159,-7.57170304 4.1816787,0 7.5715427,3.39002534 7.5715427,7.57170304"
       style="fill:#ffd44a;fill-opacity:1;fill-rule:nonzero;stroke:none;stroke-width:0.04111652"
       inkscape:connector-curvature="0" />
    <path
       id="path6247-1-4-6"
       d="m 12.779564,12.882393 h -1.111429 c -1.058515,0 -2.0401975,-0.553256 -2.5885245,-1.458785 L 8.1908688,9.9556663 6.8285862,7.7053313 C 6.7739841,7.6150997 6.6354038,7.6537667 6.6354038,7.759266 v 3.34277 c 0,0.983209 -0.7969739,1.780357 -1.7803444,1.780357 h -0.840746 c -0.2250716,0 -0.4073925,-0.182498 -0.4073925,-0.407395 V 7.3625563 c 0,-0.2040349 0.1999697,-0.3446391 0.3938193,-0.2805272 0.3522842,0.1166893 0.7291369,0.1799515 1.1204218,0.1799515 0.4562478,0 0.8919576,-0.085991 1.2925785,-0.2421977 0.075127,-0.028324 0.1494102,-0.060549 0.2216633,-0.094811 0.5069544,-0.2384654 0.9475993,-0.5910772 1.2895255,-1.0267955 0.00151,-0.00287 0.00309,-0.00496 0.00488,-0.00683 0.021531,-0.028324 0.04291,-0.055628 0.064441,-0.084125 0.00151,-8.618e-4 0.00209,-0.00187 0.00209,-0.00287 0.01274,-0.015606 0.024418,-0.030192 0.03715,-0.045963 0.6329678,-0.7901945 1.4496202,-1.4282533 2.3856797,-1.8463328 0.03121,-0.015606 0.06343,-0.030192 0.09566,-0.04291 0.01951,-0.00882 0.0402,-0.016618 0.0597,-0.024425 0.0039,-0.00309 0.0087,-0.00388 0.01273,-0.00596 0.287143,-0.113296 0.599727,-0.1758811 0.927066,-0.1758811 0.218791,0 0.395688,0.1768995 0.395688,0.3946739 0,0.2111602 -0.165191,0.3829714 -0.373301,0.3946747 -0.0068,0.00101 -0.01458,0.00101 -0.02238,0.00101 h -9.99e-4 c -0.925203,0.029344 -1.7662837,0.3917905 -2.4072238,0.9720134 -0.025265,0.022558 -0.049862,0.044943 -0.074119,0.06852 l 0.036123,0.060549 1.8736458,3.0958228 1.900268,3.1409387 0.286125,0.472862 c 0.164348,0.271541 -0.03104,0.618385 -0.348539,0.618385"
       style="fill:#ffffff;fill-opacity:1;fill-rule:nonzero;stroke:none;stroke-width:0.04341921"
       inkscape:connector-curvature="0" />
    <path
       id="path6249-8-0-4"
       d="m 3.6069209,3.6982132 c 0,-0.8363294 0.6780885,-1.5142462 1.5142411,-1.5142462 0.8363308,0 1.5142418,0.6779168 1.5142418,1.5142462 0,0.8361584 -0.677911,1.5142439 -1.5142418,1.5142439 -0.8361526,0 -1.5142411,-0.6780855 -1.5142411,-1.5142439"
       style="fill:#ffffff;fill-opacity:1;fill-rule:nonzero;stroke:none;stroke-width:0.04341921"
       inkscape:connector-curvature="0" />
  </g>
</svg>
