<?xml version="1.0" encoding="UTF-8" standalone="no"?>
<!-- Created with Inkscape (http://www.inkscape.org/) -->

<svg
   xmlns:dc="http://purl.org/dc/elements/1.1/"
   xmlns:cc="http://creativecommons.org/ns#"
   xmlns:rdf="http://www.w3.org/1999/02/22-rdf-syntax-ns#"
   xmlns:svg="http://www.w3.org/2000/svg"
   xmlns="http://www.w3.org/2000/svg"
   xmlns:sodipodi="http://sodipodi.sourceforge.net/DTD/sodipodi-0.dtd"
   xmlns:inkscape="http://www.inkscape.org/namespaces/inkscape"
   width="300px"
   height="100px"
   viewBox="0 0 300 100"
   version="1.1"
   id="SVGRoot"
   inkscape:version="0.92.5 (2060ec1f9f, 2020-04-08)"
   sodipodi:docname="logoblack.svg">
  <defs
     id="defs3466" />
  <sodipodi:namedview
     id="base"
     pagecolor="#ffffff"
     bordercolor="#666666"
     borderopacity="1.0"
     inkscape:pageopacity="0.0"
     inkscape:pageshadow="2"
     inkscape:zoom="1.7066667"
     inkscape:cx="150"
     inkscape:cy="50"
     inkscape:document-units="px"
     inkscape:current-layer="layer1"
     showgrid="false"
     inkscape:window-width="1920"
     inkscape:window-height="1001"
     inkscape:window-x="-9"
     inkscape:window-y="-9"
     inkscape:window-maximized="1" />
  <metadata
     id="metadata3469">
    <rdf:RDF>
      <cc:Work
         rdf:about="">
        <dc:format>image/svg+xml</dc:format>
        <dc:type
           rdf:resource="http://purl.org/dc/dcmitype/StillImage" />
        <dc:title></dc:title>
      </cc:Work>
    </rdf:RDF>
  </metadata>
  <g
     inkscape:label="Layer 1"
     inkscape:groupmode="layer"
     id="layer1">
    <g
       transform="matrix(2.1635107,0,0,2.1635107,-18.153566,-27.823078)"
       id="g858">
      <path
         inkscape:connector-curvature="0"
         style="fill:#ffffff;fill-opacity:1;fill-rule:nonzero;stroke:none;stroke-width:0.10336943"
         d="M 14.32801,43.512139 C 14.026809,43.210902 13.876596,42.802668 13.876596,42.286625 V 30.225541 c 0,-0.501933 0.150213,-0.903288 0.451414,-1.204101 0.300814,-0.301237 0.709472,-0.45145 1.225515,-0.45145 0.51562,0 0.924278,0.150213 1.225056,0.45145 0.301237,0.300813 0.451838,0.702168 0.451838,1.204101 v 12.061084 c 0,0.516043 -0.150601,0.924277 -0.451838,1.225514 -0.300778,0.300814 -0.709436,0.451026 -1.225056,0.451026 -0.516043,0 -0.924701,-0.150212 -1.225515,-0.451026"
         id="path6227-5-8-7" />
      <path
         inkscape:connector-curvature="0"
         style="fill:#ffffff;fill-opacity:1;fill-rule:nonzero;stroke:none;stroke-width:0.10336943"
         d="m 34.848882,29.031952 c 0.293547,0.308469 0.440514,0.706191 0.440514,1.193589 v 12.211332 c 0,0.473216 -0.136067,0.84589 -0.408235,1.118058 -0.272521,0.272555 -0.631084,0.408234 -1.075266,0.408234 -0.430036,0 -0.781333,-0.135679 -1.053077,-0.408234 C 32.480261,43.282763 32.34416,42.910089 32.34416,42.436873 V 34.84767 l -3.05301,5.740224 c -0.201083,0.37271 -0.419135,0.645266 -0.655743,0.816892 -0.236643,0.171979 -0.519677,0.258022 -0.849171,0.258022 -0.315348,0 -0.594783,-0.08604 -0.838271,-0.258022 -0.243875,-0.171626 -0.465948,-0.444182 -0.666644,-0.816892 l -3.053044,-5.632803 v 7.481782 c 0,0.459105 -0.136455,0.827757 -0.4082,1.107581 -0.272591,0.2794 -0.631155,0.418711 -1.074914,0.418711 -0.430424,0 -0.78172,-0.135679 -1.053853,-0.408234 -0.272168,-0.272168 -0.408234,-0.644842 -0.408234,-1.118058 V 30.225541 c 0,-0.487398 0.146967,-0.88512 0.440548,-1.193589 0.293512,-0.307692 0.677122,-0.461962 1.150374,-0.461962 0.688058,0 1.210945,0.365442 1.569508,1.096292 l 4.364143,8.277225 4.343118,-8.277225 c 0.386821,-0.73085 0.902864,-1.096292 1.547707,-1.096292 0.472863,0 0.856438,0.15427 1.150408,0.461962"
         id="path6229-5-3-9" />
      <path
         inkscape:connector-curvature="0"
         style="fill:#ffffff;fill-opacity:1;fill-rule:nonzero;stroke:none;stroke-width:0.10336943"
         d="m 47.393731,33.428763 c 0,-1.462087 -0.838695,-2.192972 -2.51559,-2.192972 h -3.181842 v 4.364531 h 3.181842 c 1.676895,0 2.51559,-0.723583 2.51559,-2.171559 M 38.793855,43.512139 C 38.493041,43.210902 38.34244,42.802668 38.34244,42.286237 V 30.246919 c 0,-0.501509 0.136067,-0.888718 0.4082,-1.161274 0.272166,-0.271744 0.659411,-0.408234 1.161309,-0.408234 h 5.39623 c 1.647825,0 2.931054,0.41589 3.848487,1.246893 0.916977,0.831391 1.375693,1.992277 1.375693,3.48308 0,1.490769 -0.458716,2.651655 -1.375693,3.482658 -0.917433,0.831391 -2.200662,1.247281 -3.848487,1.247281 h -3.61188 v 4.148914 c 0,0.516431 -0.150601,0.924665 -0.45145,1.225902 -0.301236,0.300814 -0.709436,0.451026 -1.225479,0.451026 -0.516043,0 -0.924279,-0.150212 -1.225515,-0.451026"
         id="path6231-5-9-5" />
      <path
         inkscape:connector-curvature="0"
         style="fill:#ffffff;fill-opacity:1;fill-rule:nonzero;stroke:none;stroke-width:0.10336943"
         d="M 55.176291,37.943507 H 60.1857 l -2.493788,-5.589623 z m 10.212176,4.536546 c 0,0.401355 -0.161079,0.74175 -0.48373,1.021186 -0.322191,0.279435 -0.691655,0.419135 -1.107157,0.419135 -0.272592,0 -0.530579,-0.07511 -0.774065,-0.225743 -0.243911,-0.150177 -0.430038,-0.376308 -0.558871,-0.677121 l -1.139473,-2.537002 h -7.288353 l -1.139473,2.537002 c -0.128834,0.300813 -0.311748,0.526944 -0.548357,0.677121 -0.23622,0.150635 -0.497875,0.225743 -0.784577,0.225743 -0.415891,0 -0.788564,-0.1397 -1.11806,-0.419135 -0.329883,-0.279436 -0.494628,-0.619831 -0.494628,-1.021186 0,-0.200696 0.05732,-0.430036 0.172402,-0.688058 l 5.804853,-12.189918 c 0.15748,-0.344029 0.3937,-0.605685 0.709046,-0.784966 0.315349,-0.178859 0.652499,-0.268923 1.010674,-0.268923 0.37271,0 0.716703,0.0937 1.032052,0.279824 0.31496,0.18616 0.558869,0.444182 0.730885,0.774065 l 5.804853,12.189918 c 0.114652,0.258022 0.171979,0.487362 0.171979,0.688058"
         id="path6233-8-2-2" />
      <path
         inkscape:connector-curvature="0"
         style="fill:#ffffff;fill-opacity:1;fill-rule:nonzero;stroke:none;stroke-width:0.10336943"
         d="m 110.1222,43.490338 c -0.3085,-0.300814 -0.46235,-0.701781 -0.46235,-1.203713 v -10.87882 h -3.48304 c -1.06077,0 -1.59096,-0.458294 -1.59096,-1.375692 0,-0.903252 0.53019,-1.354702 1.59096,-1.354702 h 10.31995 c 1.06034,0 1.59092,0.45145 1.59092,1.354702 0,0.917398 -0.53058,1.375692 -1.59092,1.375692 h -3.48305 v 10.87882 c 0,0.501932 -0.15063,0.902899 -0.45141,1.203713 -0.30124,0.301202 -0.70951,0.451414 -1.22552,0.451414 -0.5019,0 -0.90692,-0.150212 -1.21458,-0.451414"
         id="path6237-5-6-3" />
      <path
         inkscape:connector-curvature="0"
         style="fill:#ffffff;fill-opacity:1;fill-rule:nonzero;stroke:none;stroke-width:0.10336943"
         d="M 119.97941,43.512139 C 119.67821,43.210902 119.528,42.802668 119.528,42.286625 V 30.225541 c 0,-0.501933 0.15021,-0.903288 0.45141,-1.204101 0.30085,-0.301237 0.70947,-0.45145 1.22551,-0.45145 0.51605,0 0.92428,0.150213 1.22548,0.45145 0.30082,0.300813 0.45145,0.702168 0.45145,1.204101 v 12.061084 c 0,0.516043 -0.15063,0.924277 -0.45145,1.225514 -0.3012,0.300814 -0.70943,0.451026 -1.22548,0.451026 -0.51604,0 -0.92466,-0.150212 -1.22551,-0.451026"
         id="path6239-9-0-3" />
      <path
         inkscape:connector-curvature="0"
         style="fill:#ffffff;fill-opacity:1;fill-rule:nonzero;stroke:none;stroke-width:0.10336943"
         d="m 129.97639,37.943507 h 5.00937 l -2.49378,-5.589623 z m 10.21217,4.536546 c 0,0.401355 -0.16153,0.74175 -0.48372,1.021186 -0.32265,0.279435 -0.69173,0.419135 -1.1072,0.419135 -0.27255,0 -0.53057,-0.07511 -0.77406,-0.225743 -0.24388,-0.150177 -0.43004,-0.376308 -0.55884,-0.677121 l -1.13989,-2.537002 h -7.28793 l -1.13951,2.537002 c -0.12922,0.300813 -0.31171,0.526944 -0.54832,0.677121 -0.23665,0.150635 -0.4983,0.225743 -0.78458,0.225743 -0.41589,0 -0.7886,-0.1397 -1.11809,-0.419135 -0.32989,-0.279436 -0.49463,-0.619831 -0.49463,-1.021186 0,-0.200696 0.0573,-0.430036 0.1724,-0.688058 l 5.80446,-12.189918 c 0.15745,-0.344029 0.39409,-0.605685 0.70944,-0.784966 0.31538,-0.178859 0.65214,-0.268923 1.01067,-0.268923 0.37229,0 0.71632,0.0937 1.0317,0.279824 0.31535,0.18616 0.55922,0.444182 0.73124,0.774065 l 5.80485,12.189918 c 0.11427,0.258022 0.17201,0.487362 0.17201,0.688058"
         id="path6241-0-8-8" />
      <path
         inkscape:connector-curvature="0"
         style="fill:#ffd44a;fill-opacity:1;fill-rule:nonzero;stroke:none;stroke-width:0.10336943"
         d="m 18.592812,24.139278 c 0,1.678517 -1.360735,3.039286 -3.039287,3.039286 -1.678975,0 -3.039709,-1.360769 -3.039709,-3.039286 0,-1.678975 1.360734,-3.03971 3.039709,-3.03971 1.678552,0 3.039287,1.360735 3.039287,3.03971"
         id="path6243-1-0-5" />
      <path
         inkscape:connector-curvature="0"
         style="fill:#ffd44a;fill-opacity:1;fill-rule:nonzero;stroke:none;stroke-width:0.10336943"
         d="m 103.79813,36.196622 c 0,10.513023 -8.522295,19.035324 -19.035287,19.035324 -10.512988,0 -19.035358,-8.522301 -19.035358,-19.035324 0,-10.512989 8.52237,-19.035712 19.035358,-19.035712 10.512992,0 19.035287,8.522723 19.035287,19.035712"
         id="path6245-1-9-9-5" />
      <path
         inkscape:connector-curvature="0"
         style="fill:#ffffff;fill-opacity:1;fill-rule:nonzero;stroke:none;stroke-width:0.10336943"
         d="m 96.126205,47.768757 h -2.64601 c -2.520032,0 -4.857187,-1.317133 -6.162569,-3.472958 l -2.115892,-3.494792 -3.243191,-5.357424 c -0.130035,-0.214842 -0.459917,-0.122767 -0.459917,0.128375 v 7.958244 c 0,2.340751 -1.89738,4.238555 -4.238519,4.238555 h -2.001589 c -0.535834,0 -0.969894,-0.434483 -0.969894,-0.969894 V 34.627502 c 0,-0.48574 0.476076,-0.820491 0.937578,-0.667844 0.838694,0.277813 1.735878,0.428414 2.667423,0.428414 1.086205,0 2.123511,-0.204718 3.077281,-0.576616 0.178859,-0.06742 0.355706,-0.144145 0.52772,-0.225707 1.206923,-0.567725 2.255943,-1.407195 3.070013,-2.444538 0.0035,-0.0067 0.0074,-0.01164 0.01164,-0.01623 0.05122,-0.06742 0.102129,-0.132433 0.153424,-0.200272 0.0035,-0.0035 0.0049,-0.0046 0.0049,-0.0067 0.03034,-0.03715 0.05817,-0.07186 0.08848,-0.109432 1.506924,-1.881223 3.451119,-3.400284 5.679652,-4.39561 0.0743,-0.03715 0.151024,-0.0719 0.227753,-0.102165 0.04642,-0.02081 0.09567,-0.03958 0.142134,-0.05814 0.0092,-0.0074 0.02082,-0.0092 0.03034,-0.01411 0.683615,-0.269734 1.427798,-0.418747 2.20712,-0.418747 0.52084,0 0.942023,0.421146 0.942023,0.939624 0,0.502707 -0.393277,0.911753 -0.888754,0.939623 -0.01622,0.0035 -0.03457,0.0035 -0.05327,0.0035 h -0.0035 c -2.202674,0.06985 -4.205041,0.932744 -5.730946,2.314081 -0.06015,0.05373 -0.118711,0.106997 -0.176459,0.163124 l 0.08601,0.14418 4.460629,7.370304 4.524057,7.477725 0.681178,1.125749 c 0.391266,0.646467 -0.07391,1.472213 -0.829768,1.472213"
         id="path6247-1-4-6-7" />
      <path
         inkscape:connector-curvature="0"
         style="fill:#ffffff;fill-opacity:1;fill-rule:nonzero;stroke:none;stroke-width:0.10336943"
         d="m 74.288624,25.903696 c 0,-1.991078 1.614347,-3.605001 3.605001,-3.605001 1.99108,0 3.605001,1.613923 3.605001,3.605001 0,1.990689 -1.613921,3.605 -3.605001,3.605 -1.990654,0 -3.605001,-1.614311 -3.605001,-3.605"
         id="path6249-8-0-4-8" />
    </g>
  </g>
</svg>
