<svg width="1039.15" height="712.88" xmlns="http://www.w3.org/2000/svg">
 <title>having fun</title>

 <g>
  <title>background</title>
  <rect fill="none" id="canvas_background" height="714.88" width="1041.15" y="-1" x="-1"/>
 </g>
 <g>
  <title>Layer 1</title>
  <path id="svg_1" opacity="0.1" fill="#ffd666" d="m1085.040002,493.070002c-11.39,27.39 -35.22,52.13 -60.8,75.56q-33.73,30.9 -72.16,59.72q-10.65,8 -21.64,15.8l-5.09,3.59q-6.77,4.79 -13.77,9.49l-0.56,0.38q-6.79,4.62 -13.7,9.15c-15.07,9.9 -31,19.73 -48.61,27.87c-6,2.78 -12.19,5.37 -18.6,7.69q-5.2,1.89 -10.62,3.54c-5.92,1.8 -12,3.37 -18.35,4.66c-1.06,0.22 -2.13,0.43 -3.2,0.63c-6.5,1.22 -13.08,2.11 -19.73,2.72c-24.37,2.23 -49.54,0.6 -73.95,-3.22c-12.2,-1.91 -24.21,-4.37 -35.83,-7.17c-1.43,-0.34 -2.85,-0.69 -4.28,-1c-39.57,-9.9 -76.72,-23.34 -116.57,-32.79q-20.6,-4.89 -42,-8.3q-10.44,-1.66 -21,-3c-16.57,-2.06 -33.35,-3.44 -50.2,-4.14c-22.72,-1 -46.18,-0.57 -67.8,3.4q-4.32,0.79 -8.53,1.78q-5.34,1.25 -10.48,2.85a186.58,186.58 0 0 0 -26.89,11.07c-1.71,0.84 -3.4,1.69 -5.09,2.55l0,0c-5.3,2.7 -10.53,5.46 -15.84,8.14a199.93,199.93 0 0 1 -29.74,12.62a157.47,157.47 0 0 1 -17.08,4.36c-15.27,3.06 -31.52,4.27 -47.84,4.35c-7.87,0 -15.75,-0.17 -23.54,-0.58l-0.24,0c-2.66,-0.14 -5.33,-0.3 -8,-0.5c-12.16,-0.83 -24.28,-2.11 -36.22,-3.86c-40.91,-6 -79.71,-17.34 -110.92,-34.64c-42.39,-23.48 -69.31,-58.49 -65.27,-93.47c2.9,-25.2 20.91,-48.6 38,-71.51c31.79,-42.66 61.57,-86.29 77.24,-132.28c12.71,-37.33 16.5,-76.8 45.75,-110.35c9.37,-10.74 21.35,-20.54 35.3,-29.13a225.4,225.4 0 0 1 32.68,-16.52a282.47,282.47 0 0 1 39.39,-12.85a313.5,313.5 0 0 1 35.32,-6.64c6.46,-0.84 13,-1.49 19.58,-1.93q7.6,-0.53 15.27,-0.67l0.79,0q4.69,-0.09 9.38,0a437.06,437.06 0 0 1 68,6.39c14.06,2.35 28,5.23 41.65,8.4q12.22,2.83 24.22,5.93c2.44,0.63 4.88,1.27 7.29,1.92c56.92,15.25 107,36.31 161.84,53.59c0.28,0.09 0.55,0.18 0.83,0.25l0,0a337.86,337.86 0 0 0 34.24,8.6c8.49,1.7 17.17,3.17 26,4.46c13.52,2 27.33,3.58 41.24,4.94l3.07,0.3c20.41,2 41,3.49 61,5.23c7.1,0.62 14.14,1.26 21.08,2q6.6,0.66 13.08,1.4c3.1,0.36 6.21,0.72 9.32,1.1s6.4,0.78 9.6,1.19c2.08,0.26 4.15,0.53 6.23,0.82c12.6,1.67 25.17,3.54 37.6,5.68c7.56,1.3 15.08,2.7 22.51,4.21q8.07,1.64 16,3.46q5.88,1.33 11.66,2.8c31.31,7.87 60.61,18.19 85.86,32.12c65.57,36.09 94.91,95.46 73.12,147.84z"/>
  <circle id="svg_2" opacity="0.1" fill="#ffd666" r="21.629999" cy="70.77" cx="205.99"/>
  <circle id="svg_3" opacity="0.1" fill="#ffd666" r="21.629999" cy="23.63" cx="648.1"/>
  <circle id="svg_4" opacity="0.1" fill="#ffd666" r="21.629999" cy="72.07" cx="910.25"/>
  <circle id="svg_5" opacity="0.1" fill="#ffd666" r="36.25" cy="123.1" cx="-6.75"/>
  <circle id="svg_6" opacity="0.1" fill="#ffd666" r="36.25" cy="302.1" cx="28"/>
  <circle id="svg_7" opacity="0.1" fill="#ffd666" r="36.25" cy="236.21" cx="1000.92"/>
  <path id="svg_8" fill="#be6f72" d="m311.350002,241.350002a39,39 0 0 1 -0.53,9.1c-2,9.29 -10.46,15.67 -18.65,20.51s-17.19,9.42 -22.06,17.59c-5.87,9.87 -4,23.14 2.89,32.36s17.81,14.71 29.05,17c20.5,4.23 42.95,-1.71 58.32,-15.91s23.08,-36.39 19.31,-57c-8.34,1.17 -15.77,-6.19 -18.47,-14.17s-2.14,-16.63 -3.19,-25a8.58,8.58 0 0 0 -1.24,-4c-1.17,-1.62 -3.24,-2.28 -5.17,-2.81c-9.64,-2.65 -25.86,-8.45 -35.85,-6.23c-9,2.06 -4.56,21 -4.41,28.56z"/>
  <path id="svg_9" opacity="0.1" d="m311.350002,241.350002a39,39 0 0 1 -0.53,9.1c-2,9.29 -10.46,15.67 -18.65,20.51s-17.19,9.42 -22.06,17.59c-5.87,9.87 -4,23.14 2.89,32.36s17.81,14.71 29.05,17c20.5,4.23 42.95,-1.71 58.32,-15.91s23.08,-36.39 19.31,-57c-8.34,1.17 -15.77,-6.19 -18.47,-14.17s-2.14,-16.63 -3.19,-25a8.58,8.58 0 0 0 -1.24,-4c-1.17,-1.62 -3.24,-2.28 -5.17,-2.81c-9.64,-2.65 -25.86,-8.45 -35.85,-6.23c-9,2.06 -4.56,21 -4.41,28.56z"/>
  <path id="svg_10" fill="#be6f72" d="m299.700002,684.060002a199.93,199.93 0 0 1 -29.74,12.62a157.47,157.47 0 0 1 -17.08,4.36a107.5,107.5 0 0 1 1.25,-23c0.78,-4.37 1.93,-8.7 2.23,-13.13a34.44,34.44 0 0 0 -3.95,-18.44c11.14,-1.52 21.72,-4 32.91,-3.27l0.71,0.05a12.48,12.48 0 0 1 3.9,0.73a10.53,10.53 0 0 1 4.23,3.72a25.61,25.61 0 0 1 1.59,2.45c3.16,5.46 4.36,11.76 4.61,18.25a121.38,121.38 0 0 1 -0.66,15.66z"/>
  <path id="svg_11" fill="#be6f72" d="m358.010002,659.440002q-5.34,1.25 -10.48,2.85a186.58,186.58 0 0 0 -26.89,11.07a39.69,39.69 0 0 1 -0.82,-8.28a46.24,46.24 0 0 1 35.35,-7.27a4.67,4.67 0 0 1 2.24,0.9a3,3 0 0 1 0.6,0.73z"/>
  <path id="svg_12" fill="#3f3d56" d="m375.200002,608.960002c-0.68,6.54 -1.68,13.1 -4,19.25c-2.51,6.6 -6.59,13 -6.07,20.05c0.23,3.06 1.27,6.38 1.42,9.41q-4.32,0.79 -8.53,1.78q-5.34,1.25 -10.48,2.85a186.58,186.58 0 0 0 -26.89,11.07c-1.71,0.84 -3.4,1.69 -5.09,2.55l0,0c-0.7,-0.09 -1.39,-0.2 -2.09,-0.33c-5,-0.91 -10.26,-3.15 -13.09,-7.15a11.48,11.48 0 0 1 -1.51,-3c-1.63,-4.87 0.07,-10.94 -3.32,-14.8l-0.16,0.14l-0.12,0.08a33.59,33.59 0 0 1 -6.08,4.38l0,0a40.75,40.75 0 0 1 -33,3.18a36.16,36.16 0 0 1 -6.19,-2.78c-4.58,-2.61 -9,-7 -8.64,-12.24c0.2,-2.92 1.87,-5.72 1.42,-8.61c-0.33,-2.07 -1.69,-3.79 -2.71,-5.62c-6.69,-12 1.29,-27.43 -2.91,-40.47c-0.1,-0.31 -0.21,-0.62 -0.32,-0.92c-0.31,-0.85 -0.66,-1.67 -1,-2.49c-0.86,-1.91 -1.82,-3.79 -2.58,-5.75a33.48,33.48 0 0 1 -1.5,-5.07a63.46,63.46 0 0 1 -1,-15.22c0,-13.43 2.4,-27.18 5.82,-40.12c0.61,-2.3 1.29,-5.55 2.19,-9.09l0,0a69.6,69.6 0 0 1 3.54,-10.92c2,-4.6 4.72,-8.27 8.44,-9.14c5.6,-1.31 14.16,1.46 19.84,2.14l22.45,2.68l44.89,5.37c7.75,0.93 15.89,2 22.28,6.36c0.42,0.29 0.83,0.59 1.24,0.91a25.34,25.34 0 0 1 4.5,4.58c0.46,0.59 0.9,1.21 1.32,1.84a41.62,41.62 0 0 1 3.7,7.06c5.57,13.38 5.7,28.31 5.74,42.8c0,15.12 0.05,30.23 -1.51,45.24z"/>
  <path id="svg_13" opacity="0.1" d="m289.140002,655.300002c-1.35,-5.2 -4.2,-12.73 -4.62,-14.78a187.54,187.54 0 0 1 -3.06,-20.82c-1.11,-12.46 -3.11,-30 1.29,-41.85c4.13,2.2 7.76,8.43 9.67,12.68c6.92,15.41 -0.87,34.33 5.63,49.92a8.22,8.22 0 0 1 0.89,3a7.26,7.26 0 0 1 -1.38,3.68l-2.19,3.64l-6.23,4.53z"/>
  <path id="svg_14" fill="#be6f72" d="m433.160002,179.560002c7.36,-12 17.44,-23.8 16.81,-37.83c-0.23,-5 -1.87,-9.89 -3.12,-14.79a94.36,94.36 0 0 1 -0.69,-43.29a48.89,48.89 0 0 1 35.36,7.92c3.27,2.26 6.37,5.07 7.81,8.78c1.33,3.42 1.11,7.23 0.87,10.89c-0.55,8.41 -1.3,17.38 -6.48,24c-1.61,2.07 -3.59,3.82 -5.16,5.91c-2.29,3 -3.63,6.66 -4.94,10.23l-17,46.25c-8.58,23.31 -17.88,47.69 -36.78,63.82c-0.46,0.39 -14,-18.84 -15.12,-20.77c-4.53,-7.91 -2.55,-11.25 2.93,-17.87c10.81,-13.09 16.68,-28.88 25.51,-43.25z"/>
  <path id="svg_15" fill="#fbbebe" d="m238.340002,573.770002a76.81,76.81 0 0 1 -0.87,10.31c-0.18,1.26 -0.39,2.51 -0.64,3.76c-3.41,17.8 -11.9,34.73 -17.84,52.07c-7.83,22.89 -11.27,42.75 -14,65.48c-7.87,0 -15.75,-0.17 -23.54,-0.58l-0.24,0c-2.66,-0.14 -5.33,-0.3 -8,-0.5c2.41,-21.2 -2,-43.44 2.31,-64.66c1.74,-8.54 4.71,-16.83 6.5,-25.33a71.71,71.71 0 0 0 1.25,-7.58c0.25,-2.42 0.38,-4.93 1.47,-7.11a5.24,5.24 0 0 1 0.34,-0.61a17.13,17.13 0 0 1 3.52,-4a87.83,87.83 0 0 1 43.06,-20.53c2.27,-0.31 4.48,-0.57 6.68,-0.72z"/>
  <path id="svg_16" opacity="0.1" d="m238.340002,573.770002a76.81,76.81 0 0 1 -0.87,10.31c-0.18,1.26 -0.39,2.51 -0.64,3.76c-3.41,17.8 -11.9,34.73 -17.84,52.07c-7.83,22.89 -11.27,42.75 -14,65.48c-7.87,0 -15.75,-0.17 -23.54,-0.58l-0.24,0c-2.66,-0.14 -5.33,-0.3 -8,-0.5c2.41,-21.2 -2,-43.44 2.31,-64.66c1.74,-8.54 4.71,-16.83 6.5,-25.33a71.71,71.71 0 0 0 1.25,-7.58c0.25,-2.42 0.38,-4.93 1.47,-7.11a5.24,5.24 0 0 1 0.34,-0.61a17.13,17.13 0 0 1 3.52,-4a87.83,87.83 0 0 1 43.06,-20.53c2.27,-0.31 4.48,-0.57 6.68,-0.72z"/>
  <path id="svg_17" fill="#fbbebe" d="m187.640002,619.340002a156.7,156.7 0 0 1 -1.37,16.61c-2.67,22.51 -3.17,46 -5,68.85c-2.66,-0.14 -5.33,-0.3 -8,-0.5c-12.16,-0.83 -24.28,-2.11 -36.22,-3.86q1.38,-7.72 2.78,-15.44c1.14,-6.31 2.28,-12.68 1.95,-19.08c-0.31,-6.05 -1.93,-11.94 -3.22,-17.87c-2.75,-12.7 -4.29,-26.4 -8.82,-38.38a50,50 0 0 0 -11.06,-18c18.74,-7.36 36.75,-7.78 56.88,-7a7.21,7.21 0 0 1 4.08,1a6.9,6.9 0 0 1 2.05,3.1a77.57,77.57 0 0 1 5.63,22.82a74.85,74.85 0 0 1 0.32,7.75z"/>
  <circle id="svg_18" fill="#be6f72" r="39" cy="197.19" cx="338.59"/>
  <path id="svg_19" fill="#e3e8f4" d="m346.700002,288.340002c5,-8.53 9.38,-19.18 19,-21.55c5.43,-1.35 11.08,0.49 16.37,2.3a8,8 0 0 1 4,2.32a7.86,7.86 0 0 1 1.21,4.14a271.06,271.06 0 0 1 -0.17,53c-1.27,12.47 -3.41,24.88 -3.79,37.41c-0.53,17.37 2.33,34.74 1.39,52.09c-0.71,13.15 -3.59,26.07 -6.45,38.92l-12,53.8a9.17,9.17 0 0 1 -1.93,4.55a9,9 0 0 1 -3.54,2a131.76,131.76 0 0 1 -106.63,-8.35c-4.33,-2.38 -8.65,-5.13 -11.47,-9.19c-4,-5.76 -4.37,-13.38 -3.07,-20.28s4.11,-13.41 6,-20.18c2.92,-10.5 3.61,-21.46 4.27,-32.34c0.88,-14.32 1.76,-28.73 0.23,-43c-1.05,-9.83 -3.24,-19.51 -4.89,-29.26a322.73,322.73 0 0 1 -4.22,-44.43c-0.25,-8.89 0.16,-18.76 6.31,-25.17c3,-3.12 7,-5 11.07,-6.52c6.83,-2.52 14.46,-4 21.36,-1.7s12.46,9.54 10.83,16.63c-0.75,3.29 -2.88,6.17 -3.4,9.51c-0.69,4.42 1.65,8.87 5,11.86c18.02,16.28 45.53,-11.12 54.52,-26.56z"/>
  <path id="svg_20" fill="#3f3d56" d="m348.130002,248.490002a29.49,29.49 0 0 1 17.09,-1c3.61,0.86 7.51,2.38 10.84,0.77c1.21,-0.58 2.21,-1.53 3.43,-2.07c3.3,-1.45 7.58,0.33 10.5,-1.78c1.84,-1.33 2.44,-3.75 3.06,-5.95a53.35,53.35 0 0 1 17.63,-26.72c-1.05,7.67 -1.81,16.4 3.26,22.26c2.31,2.66 5.55,4.33 8.83,5.63c4.71,1.87 9.88,3.11 14.85,2.09s9.62,-4.78 10.41,-9.79c-0.17,7.53 -7.34,12.79 -9.35,20.06c-0.76,2.72 -0.69,5.61 -1.22,8.39c-1.35,7.1 -6.42,12.8 -10.85,18.52a131.76,131.76 0 0 0 -26.2,63.22a30.5,30.5 0 0 1 -1.7,8a50.31,50.31 0 0 1 -3.32,5.72c-7.33,12.38 -5.07,28 -2.58,42.14c3.89,22.15 7.77,43.85 14.07,65.44c1.08,3.69 2.3,7.54 5.05,10.23c-0.87,8.73 -9.68,12.71 -17.6,16.48a86.34,86.34 0 0 0 -21.4,14.49c-2.28,2.1 -4.53,4.46 -5.36,7.45c-0.78,2.81 -0.22,5.9 -1.22,8.63s-5,4.69 -6.76,2.39c-2.2,-8.23 1.56,-16.84 1.39,-25.36c-0.12,-5.75 -2,-11.34 -2.27,-17.09c-0.26,-6.51 1.66,-12.9 3.7,-19.08c5.68,-17.21 12.54,-34.26 14.51,-52.27s-1.71,-37.68 -14.49,-50.53c-15.17,-15.32 -23.59,-36.09 -39.85,-50.16c-2.58,-2.23 -5.5,-5 -5.07,-8.38a9.33,9.33 0 0 1 1.91,-4.06c5.58,-7.88 13,-14.31 19,-21.85s10.8,-16.22 9.71,-25.82z"/>
  <path id="svg_21" fill="#3f3d56" d="m294.740002,264.620002c-1,1 -1.69,2.38 -2.85,3.24a9.4,9.4 0 0 1 -4.49,1.39a145.17,145.17 0 0 1 -17.77,1.59c-5,0 -10.19,-0.44 -15,0.93c-6.71,1.9 -12.07,7.2 -15.43,13.3s-4.95,13 -6.24,19.87a265.73,265.73 0 0 0 -4.55,45.89a120.69,120.69 0 0 0 21.85,-22.68c4.8,-6.51 9.15,-13.71 16,-18.06c3.15,-2 6.69,-3.32 9.86,-5.27c6.61,-4.07 11.19,-10.65 15.59,-17c3.24,-4.71 12.61,-13.91 13.35,-19.55c0.63,-5.39 -6.82,-8.02 -10.32,-3.65z"/>
  <path id="svg_22" fill="#3f3d56" d="m329.580002,170.490002a31.62,31.62 0 0 1 3.54,2.47c6.79,4.74 15.88,3.86 24.09,2.78c2.52,-0.32 5.11,-0.68 7.27,-2c3.47,-2.14 5.1,-6.54 4.76,-10.61s-2.39,-7.82 -4.89,-11a39.57,39.57 0 0 0 -27.35,-14.92a17.6,17.6 0 0 0 -8.19,0.87c-3.23,1.33 -5.66,4.07 -8.64,5.9c-8.79,5.4 -22.33,3 -28,11.62c-4.15,6.36 -1.19,15 -3.15,22.31c-1.46,5.46 -5.67,10.43 -4.86,16c0.45,3 2.33,5.62 3.83,8.3a36.68,36.68 0 0 1 4.59,20.23c3.85,2.72 9.22,-1.51 10.29,-6.09s-0.16,-9.46 0.75,-14.08c1.61,-8.11 8.77,-14.06 12,-21.5c2.32,-5.33 6.1,-14.33 13.96,-10.28z"/>
  <path id="svg_23" fill="#fbbebe" d="m235.020002,259.260002c-0.3,1.82 -0.49,3.83 0.52,5.37c2,3 6.58,1.92 10.18,2.37c5.61,0.69 9.75,6 10.84,11.58s-0.21,11.26 -1.63,16.74q-4.82,18.63 -11.48,36.73c-11.94,-1.41 -24.51,-6 -30.85,-16.19c-5.76,-9.27 -5.17,-21.08 -8.83,-31.36c-2.57,-7.24 -7.18,-13.54 -11.74,-19.72c7.33,0.92 12.57,-7.46 13,-14.84s-1.89,-14.87 -0.31,-22.08c0.37,-1.71 29.26,3.68 32.07,5.63c8.12,5.63 -0.49,17.95 -1.77,25.77z"/>
  <path id="svg_24" opacity="0.1" d="m235.020002,259.260002c-0.3,1.82 -0.49,3.83 0.52,5.37c2,3 6.58,1.92 10.18,2.37c5.61,0.69 9.75,6 10.84,11.58s-0.21,11.26 -1.63,16.74q-4.82,18.63 -11.48,36.73c-11.94,-1.41 -24.51,-6 -30.85,-16.19c-5.76,-9.27 -5.17,-21.08 -8.83,-31.36c-2.57,-7.24 -7.18,-13.54 -11.74,-19.72c7.33,0.92 12.57,-7.46 13,-14.84s-1.89,-14.87 -0.31,-22.08c0.37,-1.71 29.26,3.68 32.07,5.63c8.12,5.63 -0.49,17.95 -1.77,25.77z"/>
  <circle id="svg_25" fill="#fbbebe" r="39" cy="208.19" cx="228.59"/>
  <path id="svg_26" fill="#3f3d56" d="m216.580002,253.660002c1.42,-2.22 -1,-5.32 0.11,-7.71c0.66,-1.44 2.33,-2.06 3.62,-3a13.49,13.49 0 0 0 3.77,-4.89a56.84,56.84 0 0 0 5.2,-37.95c-0.92,-4.32 -1.74,-10.06 2.21,-12a7.17,7.17 0 0 1 3.49,-0.6c7.12,0.23 14,5 20.91,3.31a12,12 0 0 0 8.8,-10.47c0.45,-6.46 -4.39,-12 -9.15,-16.35c-8.57,-7.88 -21.63,-9.63 -33.27,-9.82l-21.65,-0.36c-6.93,-0.12 -14.7,0.1 -19.52,5.07c-6.94,7.15 -3.45,18.85 -4.45,28.76a30,30 0 0 1 -11,20.15c-4.49,3.58 -10.67,7 -10.59,12.72c0,2 0.86,3.82 1.41,5.71c2.21,7.48 0.1,15.75 -4.14,22.3s-10.44,11.59 -16.87,16c-3.44,2.35 -7,4.61 -9.72,7.8a23,23 0 0 0 -5.07,12.93a17,17 0 0 0 2.12,10.43c4.23,6.76 14.38,7.75 21.33,3.83s11.19,-11.34 14,-18.8c1.68,-4.43 3.39,-9.5 7.69,-11.49c5.44,-2.53 11.8,1.47 15.34,6.32s5.72,10.77 10.25,14.71c7.1,6.18 19.18,5.18 25.18,-2.08c4.29,-5.21 5.24,-12.42 5,-19.17a27.93,27.93 0 0 0 -5,-15.35z"/>
  <path id="svg_27" fill="#f86d70" d="m230.580002,304.490002c-4.45,0.95 -9.1,-1.15 -12.41,-4.29s-5.54,-7.19 -7.86,-11.11a195.6,195.6 0 0 0 -20.15,-27.94c-6.56,-7.57 -15.69,-15.26 -25.43,-12.92a24.13,24.13 0 0 0 -8.88,4.75a64.74,64.74 0 0 0 -24.17,57.78c0.76,6.37 2.49,12.6 3.21,19a121.79,121.79 0 0 1 0.42,15.87c-0.27,16.12 -0.82,33.17 -9.51,46.75c-13.47,21 -20.68,46.08 -30.57,69c-5.34,12.39 -8.54,25.58 -11.68,38.7q-2.79,11.68 -5.57,23.35l-12.1,50.9c-1.25,5.25 -2.5,10.75 -1.18,16c2,7.84 9.37,13.32 17.14,15.55s16,1.85 24.07,1.92c15.44,0.15 31,2.07 45.49,7.43c4.14,1.53 8.27,3.36 12.68,3.72s8.8,-0.79 12.93,-2.39c11.27,-4.36 20.93,-12 31.31,-18.17a123.73,123.73 0 0 1 20.4,-9.87c3.56,-1.33 7.38,-2.59 9.83,-5.5c1.85,-2.19 2.68,-5.05 3.29,-7.85c3.38,-15.76 1.11,-32.09 0,-48.17s-10.72,-33.07 -2.77,-47.09c1.6,-2.83 3.51,-5.55 4.33,-8.69c1.08,-4.1 0.17,-8.51 1.08,-12.65c0.67,-3.06 2.28,-5.81 3.38,-8.74c1.92,-5.16 2.18,-10.78 2.16,-16.29a178.75,178.75 0 0 0 -3.8,-36c-3.15,-15 7.27,-29.83 13.24,-44c2.14,-5.07 5.17,-9.86 6.06,-15.29c0.8,-4.9 -0.23,-9.89 -1,-14.8a129.5,129.5 0 0 1 -1.4,-23c0.19,-6.9 0.92,-13.93 -0.73,-20.64s-6.36,-13.22 -13.13,-14.6a5.36,5.36 0 0 0 -4.52,0.71a5.85,5.85 0 0 0 -1.59,2.8c-2.2,6.74 -1.77,14 -3,21s-2.67,13.29 -9.57,14.77z"/>
  <path id="svg_28" fill="#be6f72" d="m136.210002,347.440002c0.41,-2.77 -0.88,-6.45 -3.68,-6.35c-2.58,0.1 -3.73,3.33 -3.72,5.92s0.36,5.56 -1.47,7.38c-1.62,1.61 -4.3,1.56 -6.18,2.87a5.08,5.08 0 0 0 -2.13,4.17c0,1.39 0.63,2.72 0.67,4.11s-0.89,3 -2.27,2.91a6.27,6.27 0 0 0 0.91,7.6c0.72,0.7 1.66,1.3 1.9,2.28a5.5,5.5 0 0 1 -0.16,2.05c-0.42,2.75 1.48,5.83 4.25,6.13c-1.55,1.11 -1.24,3.71 0.18,5s3.46,1.54 5.37,1.54a32.64,32.64 0 0 0 12.61,-2.61a7.52,7.52 0 0 0 3.48,-2.4a3,3 0 0 0 -0.29,-3.88c1.94,0.32 4.27,0.5 5.54,-1c1.77,-2.1 -0.13,-5.21 -2,-7.24a4,4 0 0 0 1.86,-7.12c-0.64,-0.47 -1.51,-0.88 -1.6,-1.67s0.58,-1.3 0.86,-2c0.64,-1.57 -0.82,-3.17 -2.23,-4.12c-3.34,-2.22 -8.26,-2.18 -11.23,-4.42s-1.1,-6.15 -0.67,-9.15z"/>
  <path id="svg_29" fill="#3f3d56" d="m342.510002,195.700002a47.34,47.34 0 0 1 -7.29,0.17a1.59,1.59 0 0 0 -1.75,1.38l-4.65,34.88a14.16,14.16 0 0 1 -3,6.91a15.06,15.06 0 0 0 -3.39,11.51l0,59.25s-0.3,7.9 5.77,7.9a87.75,87.75 0 0 0 21.88,0s4.86,-0.92 4.86,-8.21l0,-58.34a14.27,14.27 0 0 0 -3,-11.6a14.52,14.52 0 0 1 -2.91,-6.87l-4.83,-35.61a1.59,1.59 0 0 0 -1.69,-1.37z"/>
  <path id="svg_30" opacity="0.1" d="m342.510002,195.700002a47.34,47.34 0 0 1 -7.29,0.17a1.59,1.59 0 0 0 -1.75,1.38l-4.65,34.88a14.16,14.16 0 0 1 -3,6.91a15.06,15.06 0 0 0 -3.39,11.51l0,59.25s-0.3,7.9 5.77,7.9a87.75,87.75 0 0 0 21.88,0s4.86,-0.92 4.86,-8.21l0,-58.34a14.27,14.27 0 0 0 -3,-11.6a14.52,14.52 0 0 1 -2.91,-6.87l-4.83,-35.61a1.59,1.59 0 0 0 -1.69,-1.37z"/>
  <rect id="svg_31" fill="#ffd666" rx="11.05" height="49.83" width="29.47" y="251.61" x="324.12"/>
  <path id="svg_32" fill="#3f3d56" d="m441.580002,44.980002a46.08,46.08 0 0 1 -6.66,3a1.6,1.6 0 0 0 -1.09,1.94l9.14,34a14.12,14.12 0 0 1 -0.08,7.52a15,15 0 0 0 1.3,11.93l22.82,54.68s2.76,7.4 8.37,5.06a87.13,87.13 0 0 0 20.2,-8.46s4.13,-2.72 1.33,-9.44l-22.47,-53.84a14.31,14.31 0 0 0 -7.23,-9.56a14.55,14.55 0 0 1 -5.33,-5.21l-18.17,-31a1.6,1.6 0 0 0 -2.13,-0.62z"/>
  <rect id="svg_33" fill="#ffd666" transform="rotate(-22.649999618530273 -115.26000213623071,134.63000488281247) " rx="11.05" height="49.83" width="29.47" y="322.260005" x="414.779998"/>
  <path id="svg_34" fill="#fbbebe" d="m160.950002,254.690002c-10.75,4.43 -15,18.21 -12.48,29.55s10.11,20.79 17.51,29.78l20.74,25.3c5.73,7 12,14.37 20.74,16.81c12.78,3.57 25.56,-4.57 36.61,-11.93a551.5,551.5 0 0 1 105.16,-54.76c3.61,-1.4 7.31,-2.82 10.28,-5.32c6.16,-5.18 7.89,-14.73 4.46,-22s-11.42,-12 -19.47,-12.06s-15.88,4.2 -20.72,10.64c-2.31,3.07 -4,6.58 -6.23,9.7c-5.64,7.84 -14.44,12.69 -23.05,17.07a588.65,588.65 0 0 1 -64,28c-4,1.46 -8.51,2.85 -12.28,0.92c-2.31,-1.19 -3.87,-3.44 -5.27,-5.64a140.06,140.06 0 0 1 -15.1,-32.18c-2.73,-8.5 -4.94,-17.76 -11.5,-23.8c-9.3,-8.56 -26.14,-6.51 -33.11,4c0,0 -8.17,11.95 -3.17,16.95s10.88,-21.03 10.88,-21.03z"/>
  <path id="svg_35" fill="#fbbebe" d="m721.790002,213.310002c1.46,3.89 1.5,8.15 1.29,12.3c-0.26,5.06 -1.53,11 -6.23,12.93c-3.06,1.23 -6.84,0.3 -9.56,2.16c-3.3,2.24 -3.14,7.06 -2.63,11c1.41,10.83 3,22.06 8.9,31.22c3.17,4.91 7.46,9 11.81,12.91c8.67,7.82 18.18,15.46 29.57,18.07a12.37,12.37 0 0 0 5.7,0.24a11.8,11.8 0 0 0 4.93,-3c6.6,-6.06 10,-14.71 14.4,-22.55c3.11,-5.61 6.82,-11 8.57,-17.18a30,30 0 0 0 -9.18,-30.27c-1.95,-1.67 -4.11,-3.07 -6,-4.8c-4.94,-4.48 -7.82,-10.91 -9,-17.47s-1,-13.31 -0.43,-20c-10,-0.77 -19.93,0.44 -29.69,2.39c-4.34,0.87 -10.45,1.27 -14.38,3.34c-4.42,2.35 0.72,5.36 1.93,8.71z"/>
  <path id="svg_36" opacity="0.1" d="m721.790002,213.310002c1.46,3.89 1.5,8.15 1.29,12.3c-0.26,5.06 -1.53,11 -6.23,12.93c-3.06,1.23 -6.84,0.3 -9.56,2.16c-3.3,2.24 -3.14,7.06 -2.63,11c1.41,10.83 3,22.06 8.9,31.22c3.17,4.91 7.46,9 11.81,12.91c8.67,7.82 18.18,15.46 29.57,18.07a12.37,12.37 0 0 0 5.7,0.24a11.8,11.8 0 0 0 4.93,-3c6.6,-6.06 10,-14.71 14.4,-22.55c3.11,-5.61 6.82,-11 8.57,-17.18a30,30 0 0 0 -9.18,-30.27c-1.95,-1.67 -4.11,-3.07 -6,-4.8c-4.94,-4.48 -7.82,-10.91 -9,-17.47s-1,-13.31 -0.43,-20c-10,-0.77 -19.93,0.44 -29.69,2.39c-4.34,0.87 -10.45,1.27 -14.38,3.34c-4.42,2.35 0.72,5.36 1.93,8.71z"/>
  <path id="svg_37" fill="#fbbebe" d="m665.990002,242.740002c-16.24,-5.57 -24,-27.33 -41,-29.77c-2.68,-0.39 -5.43,-0.24 -8.06,-0.86c-9.79,-2.32 -14,-13.64 -16.83,-23.29c-9.54,-32.17 -22,-63.65 -39.7,-92.17c-7.47,-12 -19.28,-21.86 -24.67,-35c-1.24,-3 -1.87,-6.42 -4.1,-8.79s-7,-2.71 -8.21,0.31a7,7 0 0 0 -0.22,3.31l1.17,12.45l-20.34,-1.83a11.88,11.88 0 0 0 -5.63,0.4a9.55,9.55 0 0 0 -4.43,4.61c-6.88,12.93 0.45,29.87 12.59,38.05c14.18,9.55 34.43,11 43.85,25.25c5.6,8.48 5.71,19.39 9.4,28.86c1.76,4.53 4.33,8.69 6.38,13.08c3.91,8.37 5.91,17.47 8.94,26.19c4.34,12.47 10.77,24.09 17.18,35.64c4.94,8.92 10,18 17.6,24.82c5,4.48 10.88,7.8 16.76,11c14.46,7.9 31.51,15.5 46.83,9.44c0.88,-13.66 -2.55,-28.89 -7.51,-41.7z"/>
  <path id="svg_38" fill="#fbbebe" d="m715.300002,673.220002c-1.23,13.05 -9.15,24.87 -11,37.43c-12.2,-1.91 -24.21,-4.37 -35.83,-7.17c-1.43,-0.34 -2.85,-0.69 -4.28,-1c6.58,-18 0.85,-38.16 2.59,-57.33c0.17,-1.84 0.41,-3.68 0.73,-5.5c15.07,-5.14 28.68,-12 44.48,-10c0.31,3.2 0.63,6.41 0.94,9.61q0.95,9.59 1.88,19.16a77.69,77.69 0 0 1 0.49,14.8z"/>
  <path id="svg_39" fill="#fbbebe" d="m819.520002,705.860002c-5.92,1.8 -12,3.37 -18.35,4.66c-1.06,0.22 -2.13,0.43 -3.2,0.63c-6.5,1.22 -13.08,2.11 -19.73,2.72c-0.68,-13.9 -10,-26.68 -11.36,-40.95a60.15,60.15 0 0 1 0.11,-10.65c0.12,-1.4 0.26,-2.8 0.39,-4.2l2.82,-28.77a44.36,44.36 0 0 1 6.77,-0.33c13,0.31 24.83,5.94 37.71,10.33a89.9,89.9 0 0 1 1,18.36c-0.49,15.62 -3,31.43 2.8,45.76c0.33,0.81 0.69,1.62 1.04,2.44z"/>
  <path id="svg_40" fill="#f86d70" d="m650.720002,486.520002c1.75,13.64 -5.22,26.7 -8.24,40.11c-2,8.87 -2.27,18 -2.54,27.1l-1.58,54.51c-0.16,5.45 -0.3,11 1.36,16.23c3.34,10.48 13.63,17.56 24.34,20.08s21.91,1.24 32.82,-0.2c5.35,-0.71 10.93,-1.54 15.36,-4.63c6.09,-4.25 8.75,-11.82 11.05,-18.88l6.49,-19.93c7.47,16.82 4.31,35.21 8.79,53.06a10.28,10.28 0 0 0 2,4.53c1.89,2.1 5,2.43 7.83,2.63c19.6,1.38 39.47,2.75 58.75,-1c5.3,-1 10.83,-2.62 14.49,-6.6c4.26,-4.63 5,-11.44 4.95,-17.73c-0.27,-21.61 -8.08,-42.46 -9.82,-64c-0.75,-9.23 -0.38,-18.51 -0.71,-27.77a185.92,185.92 0 0 0 -1.95,-20.8a27.94,27.94 0 0 0 -2.56,-9.1c-3,-5.6 -9.23,-8.64 -15.13,-11c-45.84,-18.62 -96.26,-18.44 -145.7,-16.61z"/>
  <circle id="svg_41" fill="#fbbebe" r="43" cy="175.19" cx="735.59"/>
  <path id="svg_42" fill="#e3e8f4" d="m773.070002,250.930002c-3.19,7 -8.21,14 -15.68,15.78c-6.87,1.65 -14.15,-1.66 -19.21,-6.59s-8.37,-11.33 -11.88,-17.46c-2.56,-4.48 -5.41,-9 -9.74,-11.82c-5.92,-3.84 -13.56,-3.74 -20.54,-2.61s-13.91,3.15 -21,2.69c-8.83,-0.59 -17.83,-5 -26.16,-2.06c2.7,12.08 1.73,25.36 1.42,37.74a17,17 0 0 1 -0.8,5.64a18.22,18.22 0 0 1 -2.91,4.68l-8,10.31c8.58,6.42 16,14.8 19,25.09c1.69,5.86 1.17,12.08 1.11,18.18c-0.19,17.91 3.7,35.75 2.47,53.62c-1.44,20.93 -9.8,40.71 -14.11,61.24a160.33,160.33 0 0 0 -2.06,53.6c44.82,15.51 91,23.45 138.38,26.05c8.37,0.46 17.41,0.53 24.28,-4.28c5.71,-4 8.91,-10.85 10,-17.75s0.34,-13.92 -0.42,-20.86q-3.09,-28.15 -6.17,-56.3c-1.17,-10.68 -2.34,-21.42 -1.58,-32.13c0.57,-8 2.21,-15.85 3.84,-23.68l10,-48.06c1.43,-6.83 2.87,-13.71 5.7,-20.08c2.32,-5.2 5.53,-10 8.09,-15.06a66.51,66.51 0 0 0 6.24,-19.27a12.77,12.77 0 0 0 -0.08,-5.9c-1.07,-3.28 -4.34,-5.25 -7.39,-6.86a214.69,214.69 0 0 0 -59.16,-20.75c-1.4,5.89 -1.13,11.41 -3.64,16.9z"/>
  <path id="svg_43" fill="#3f3d56" d="m768.920002,222.130002c5,-9.58 14.35,-16.3 19.78,-25.66a37.93,37.93 0 0 0 1.22,-35c-1.91,-3.9 -4.5,-7.48 -6,-11.56c-1.67,-4.64 -1.83,-9.75 -3.76,-14.29c-2.65,-6.22 -8.39,-10.7 -14.64,-13.28s-13,-3.51 -19.73,-4.41l-22.72,-3.06c-3.29,-0.44 -6.7,-0.88 -9.9,0s-6.18,3.49 -6.44,6.81c-0.31,3.93 3.14,7.59 2.34,11.45c-0.29,1.36 -1.09,2.74 -0.63,4.06a4.12,4.12 0 0 0 2,2c5.39,3 11.83,3.27 17.67,5.23s11.7,6.88 11.11,13c-0.32,3.29 -2.44,6.71 -1,9.66c1.38,2.73 5,3.23 7.89,4.08c9.35,2.71 15.91,12.85 14.55,22.5c-0.42,3 -1.5,5.87 -1.72,8.88c-0.73,10.54 0.93,13.55 9.54,19.68l0.44,-0.09z"/>
  <path id="svg_44" fill="#be6f72" d="m827.330002,267.710002a14.59,14.59 0 0 1 -1.07,5.83c-3.12,6.65 -12.67,6.23 -19,10c-7.88,4.7 -9.62,15.19 -10.34,24.33c-0.82,10.35 -1.38,20.85 0.74,31s7.22,20.05 15.74,26c10.37,7.21 24.47,7.46 36.31,3.07s21.73,-12.88 30.31,-22.16c8.14,-8.8 15.43,-18.61 19.8,-29.78c0.77,-2 1.45,-4.12 0.83,-6.12c-0.93,-3 -4.2,-4.36 -6.86,-6c-6.21,-3.75 -10.35,-10.29 -12.5,-17.2s-2.51,-14.26 -2.58,-21.51c-0.08,-7.53 -0.1,-15.76 -4.9,-21.57s-13.12,-7.44 -20.7,-7.38c-6.2,0 -23.36,0.59 -27.59,6c-3.47,4.5 2.06,19.05 1.81,25.49z"/>
  <path id="svg_45" opacity="0.1" d="m827.330002,267.710002a14.59,14.59 0 0 1 -1.07,5.83c-3.12,6.65 -12.67,6.23 -19,10c-7.88,4.7 -9.62,15.19 -10.34,24.33c-0.82,10.35 -1.38,20.85 0.74,31s7.22,20.05 15.74,26c10.37,7.21 24.47,7.46 36.31,3.07s21.73,-12.88 30.31,-22.16c8.14,-8.8 15.43,-18.61 19.8,-29.78c0.77,-2 1.45,-4.12 0.83,-6.12c-0.93,-3 -4.2,-4.36 -6.86,-6c-6.21,-3.75 -10.35,-10.29 -12.5,-17.2s-2.51,-14.26 -2.58,-21.51c-0.08,-7.53 -0.1,-15.76 -4.9,-21.57s-13.12,-7.44 -20.7,-7.38c-6.2,0 -23.36,0.59 -27.59,6c-3.47,4.5 2.06,19.05 1.81,25.49z"/>
  <path id="svg_46" fill="#be6f72" d="m774.010002,535.890002a8.55,8.55 0 0 0 2.08,4.08a8.26,8.26 0 0 0 3.37,1.59c32.82,9.63 67.88,5.79 101.86,1.86c-4.65,-14.16 -9.33,-28.48 -10.62,-43.33c-1.07,-12.25 0.13,-25 -4.21,-36.49c-1.28,-3.4 -75.88,12.25 -83.24,13.52c-3.77,0.65 -8.11,0.43 -10.78,3.42c-3.22,3.62 -3.49,12.24 -3.83,16.75c-0.96,13.03 1.73,26.15 5.37,38.6z"/>
  <path id="svg_47" fill="#be6f72" d="m848.740002,694.630002c-6,2.78 -12.19,5.37 -18.6,7.69q-5.2,1.89 -10.62,3.54c-5.92,1.8 -12,3.37 -18.35,4.66q-5.43,-13.77 -10.87,-27.55c-2.67,-6.76 -5.34,-13.55 -7.57,-20.46a128.13,128.13 0 0 1 -3.82,-14.39a102.65,102.65 0 0 1 2.48,-49.77c13.86,2.61 27.41,4.31 41.06,6.29c7.29,1 14.6,2.18 22,3.57q0.87,7.23 1.58,14.46q1.08,11.16 1.77,22.32q1.53,24.8 0.94,49.64z"/>
  <path id="svg_48" opacity="0.1" d="m848.740002,694.630002c-6,2.78 -12.19,5.37 -18.6,7.69q-5.2,1.89 -10.62,3.54c-5.92,1.8 -12,3.37 -18.35,4.66q-5.43,-13.77 -10.87,-27.55c-2.67,-6.76 -5.34,-13.55 -7.57,-20.46a128.13,128.13 0 0 1 -3.82,-14.39a102.65,102.65 0 0 1 2.48,-49.77c13.86,2.61 27.41,4.31 41.06,6.29c7.29,1 14.6,2.18 22,3.57q0.87,7.23 1.58,14.46q1.08,11.16 1.77,22.32q1.53,24.8 0.94,49.64z"/>
  <path id="svg_49" fill="#be6f72" d="m925.640002,651.300002c0.08,5.76 -1.56,11.64 -3.08,17.29c-0.11,0.4 -0.21,0.79 -0.31,1.19a16.48,16.48 0 0 1 -8.83,-6.62a18.91,18.91 0 0 1 -2.37,-5.55q-6.79,4.62 -13.7,9.15c-15.07,9.9 -31,19.73 -48.61,27.87c-6,2.78 -12.19,5.37 -18.6,7.69q-2,-7 -3.8,-14.09a130.5,130.5 0 0 1 -3.08,-14.79a75.12,75.12 0 0 1 3.32,-33.65l0,0l0.45,-1.3a73.55,73.55 0 0 1 6.55,-13.79c2.49,-4 7.42,-3.33 12.45,-2c2.28,0.59 4.59,1.3 6.69,1.74c13.07,2.74 26.64,-0.09 40,0.66a47.81,47.81 0 0 1 18.35,4.67c6.43,3.23 11.61,8.17 13.64,15a22.39,22.39 0 0 1 0.66,3a26.56,26.56 0 0 1 0.27,3.53z"/>
  <path id="svg_50" fill="#be6f72" d="m685.060002,190.750002c-20.65,-20 -44.12,-36.95 -68.13,-52.8a187.11,187.11 0 0 1 -18,-12.83c-6,-5 -11.23,-10.87 -17.6,-15.37s-14.25,-7.59 -21.9,-6.11s-14.45,8.8 -13.33,16.46c1,6.74 7.06,11.36 12.66,15.23c10.6,7.33 21.25,14.68 32.78,20.43a102.74,102.74 0 0 1 11.63,6.2c7.18,4.84 12.41,12 17.84,18.73a260.43,260.43 0 0 0 74,63c0.34,0.2 12.17,-25.33 11.67,-28.64c-1.1,-7.61 -16.18,-19.02 -21.62,-24.3z"/>
  <path id="svg_51" fill="#3f3d56" d="m861.680002,513.910002c-15.94,1 -31.23,6.38 -46.82,9.81s-32.53,4.76 -47,-2l8.8,60.09c0.49,3.34 1,6.76 0.27,10.05c-0.67,3.14 -2.41,6.1 -2.26,9.31c0.23,5.08 5,8.65 9.49,11a84.85,84.85 0 0 0 42.4,9.77c-1.09,4.4 -2.45,8.75 -3.55,13.15c7.35,7.89 19.37,8.42 29.86,10.92c8,1.89 15.5,5.17 23.34,7.48a99.63,99.63 0 0 0 29.21,4.07c6.67,-0.07 13.74,-1 18.92,-5.16c6.37,-5.13 8.35,-13.85 9.73,-21.91c0.77,-4.5 1.48,-9.06 1,-13.6c-0.52,-5.22 -2.54,-10.16 -4.54,-15l-13.7,-33.25c-2.49,-6 -5,-12.09 -8,-17.88c-9.8,-18.73 -26.06,-38.16 -47.15,-36.85z"/>
  <path id="svg_52" fill="#ffd666" d="m873.880002,306.290002a15,15 0 0 1 15.7,-9.57c4,0.56 7.57,2.75 11,4.89l19.1,11.92a83.26,83.26 0 0 1 9.09,6.26c13.17,10.92 18.25,28.87 19.7,45.92s0,34.39 3.39,51.16c-8.06,6.68 -17,12.33 -25.06,19c-4.22,3.49 -8.49,7 -11.69,11.49c-2.54,3.53 -4.35,7.57 -7,11a26.46,26.46 0 0 1 -17.53,9.74c4.37,2.54 6.82,7.47 8,12.38s1.5,10 2.81,14.91c1.8,6.67 5.53,12.76 6.76,19.56c0.86,4.69 0.48,9.5 0.79,14.26c1.56,24.63 20.89,46.16 19.64,70.8a107.36,107.36 0 0 1 -25.66,-13.49c-3.56,-2.55 -7,-5.31 -10.37,-8.06l-25.47,-20.65c-12.39,-10 -24.9,-20.22 -34.75,-32.78c-6.18,-7.88 -11.22,-16.6 -17.42,-24.46s-13.83,-15 -23.3,-18.3c-1.39,2.09 -3.86,3.54 -5.25,5.63a4.18,4.18 0 0 0 -0.58,1.08a4.73,4.73 0 0 0 0.33,2.76a57.46,57.46 0 0 1 2,12.39l0.63,7.52a25.62,25.62 0 0 1 0,6c-0.95,6.43 -6.91,11.42 -13.34,12.42a5.8,5.8 0 0 1 -2.81,-0.09c-1.79,-0.6 -2.78,-2.49 -3.32,-4.29c-2.53,-8.54 1.35,-17.55 1.66,-26.44a63.53,63.53 0 0 0 -0.23,-6.76l-0.6,-8.87c-5.81,-1.21 -9.15,-7.45 -10.69,-13.18c-4.16,-15.47 -8.35,-31.48 -5.94,-47.32c0.64,-4.24 1.76,-8.54 1,-12.78c-1,-5.67 -5.08,-10.27 -7.23,-15.61c-7,-17.41 7.87,-36.31 6.49,-55c-0.58,-7.85 -5.56,-14.67 -8.56,-21.95a62,62 0 0 0 -6,-12.11c-3.06,-4.37 -7.19,-7.87 -11.2,-11.39a427.74,427.74 0 0 1 -35.18,-34.66a26,26 0 0 1 -15.15,-6.94c-2.64,-2.5 -4.81,-5.8 -4.88,-9.43s2.61,-7.44 6.24,-7.63c2.12,-0.11 4.1,0.94 6.17,1.4c6.48,1.42 13,-3.35 15.89,-9.34s2.89,-12.88 2.84,-19.52a18.72,18.72 0 0 1 17.33,6.07c4.47,4.86 7.38,10.92 10.9,16.5a25.57,25.57 0 0 0 5.44,6.57c4.81,3.82 11.74,4.54 15.94,9c2.13,2.28 3.31,5.3 5.26,7.74c5.48,6.87 15.51,7.71 23,12.23s12.7,12.78 21,15.46c3,1 6.27,1.13 9.24,2.24c6.86,2.55 11.05,9.84 12,17.09s-0.67,14.58 -2.31,21.72l-3.85,16.71c-0.85,3.7 -1.5,8.15 1.23,10.79a11.12,11.12 0 0 0 4.43,2.23c7,2.28 14.8,4.52 21.38,1.29c3.11,-1.54 5.55,-4.14 7.78,-6.8c9.76,-11.5 16.25,-26.56 21.21,-40.71z"/>
  <path id="svg_53" fill="#be6f72" d="m952.810002,646.340002c-1.38,9.15 -6.42,18.15 -14.67,22.34a21,21 0 0 1 -15.89,1.1a16.48,16.48 0 0 1 -8.83,-6.62a18.91,18.91 0 0 1 -2.37,-5.55c0,-0.1 -0.05,-0.21 -0.07,-0.31a44,44 0 0 1 -0.93,-10.77a140.5,140.5 0 0 1 1,-16.79a90.91,90.91 0 0 1 2.76,-13.88c1.86,-6.49 4.54,-12.74 7,-19c1.28,-3.3 2.51,-6.61 3.52,-10l0,0c0.61,-2 1.13,-4.06 1.55,-6.14l0.15,-0.75c0.08,-0.42 0.15,-0.84 0.22,-1.26c1,-5.7 1.29,-11.6 3.86,-16.75c6,-12.09 17.68,-9 19.46,2.15a19.64,19.64 0 0 1 0.23,2.61c0.27,14.11 -5.33,27.9 -2.77,42.06a98,98 0 0 0 2.72,10.22c0.9,3.09 1.71,6.22 2.33,9.39a53.37,53.37 0 0 1 0.73,17.95z"/>
  <path id="svg_54" fill="#ffd666" d="m958.310002,489.440002c0.27,5.78 0,11.63 1.16,17.3c2.71,13.4 13,25.26 11.86,38.88c-0.28,3.32 -1.51,6.89 -4.41,8.53s-7.7,1.51 -8.65,4.81c-0.27,0.92 -0.13,1.92 -0.43,2.83c-0.63,1.94 -3,2.77 -5,2.72s-4,-0.71 -6.07,-0.54c-7.25,0.61 -9.91,10.31 -16.37,13.64c-4.35,2.24 -10,1 -13.59,-2.31s-5.16,-8.47 -4.88,-13.36c0.21,-3.69 1.38,-7.25 2,-10.89c1.13,-6.49 0.54,-13.14 -0.05,-19.7c-0.87,-9.61 -1.77,-19.34 -4.93,-28.45c-1.49,-4.3 -3.47,-8.41 -4.76,-12.77c-1.84,-6.17 -2.26,-12.66 -2.45,-19.09c-0.39,-13.53 0.54,-28 8.62,-38.88c6.07,-8.16 14.77,-14.79 21.64,-22.34c4.3,-4.73 5.54,-6.21 10.29,-2.2c3.91,3.29 8,7.83 8.44,12.29c1.2,11.43 0,22.67 2.14,34.31s4.88,23.27 5.44,35.22z"/>
  <circle id="svg_55" fill="#be6f72" r="51" cy="218.19" cx="854.59"/>
  <path id="svg_56" fill="#3f3d56" d="m901.290002,315.750002c1.12,-1.57 2.45,-3.26 4.35,-3.59a7.59,7.59 0 0 1 4.14,0.87l13.43,5.61a43.84,43.84 0 0 0 6.24,-19.76c0.28,-4.29 -0.06,-8.64 0.76,-12.86c1.22,-6.26 4.93,-11.87 5.79,-18.19c0.68,-5.1 -0.55,-10.23 -1.29,-15.32c-2.28,-15.72 0.17,-31.76 -1.14,-47.59s-7.66,-32.79 -21.78,-40.06c-4,-2 -8.31,-3.2 -12.47,-4.78c-9.27,-3.53 -17.58,-9.18 -26.74,-13s-19.92,-5.57 -28.8,-1.18s-14.05,16.74 -8.28,24.8c1.9,2.65 4.68,4.53 7.34,6.44c5.41,3.87 10.93,8.65 12.18,15.19c2.24,11.77 -10,21 -13.45,32.51a27.64,27.64 0 0 0 -0.33,13.79c1.49,6.82 5.13,13.26 5,20.24c-0.1,7.65 -4.68,14.58 -5.54,22.19c-0.31,2.79 -0.12,5.62 -0.47,8.4a43.35,43.35 0 0 1 -3.23,10.63c-8,20 -16.11,40.21 -28,58.19a77.07,77.07 0 0 0 36.63,-8.56a60.54,60.54 0 0 1 -9.17,21.54a69.4,69.4 0 0 0 28.66,-10a93.11,93.11 0 0 1 -9.1,21.61c0.34,-0.58 6.63,-2 7.79,-2.66a13.57,13.57 0 0 0 5.5,-5.87c3.4,-6.08 5.52,-13.41 8.67,-19.73a287.33,287.33 0 0 1 23.31,-38.86z"/>
  <path id="svg_57" fill="#3f3d56" d="m514.510002,9.700002a47.34,47.34 0 0 1 -7.29,0.17a1.59,1.59 0 0 0 -1.75,1.38l-4.65,34.88a14.16,14.16 0 0 1 -3,6.91a15.06,15.06 0 0 0 -3.39,11.51l0,59.25s-0.3,7.9 5.77,7.9a87.75,87.75 0 0 0 21.88,0s4.86,-0.92 4.86,-8.21l0,-58.34a14.27,14.27 0 0 0 -3,-11.6a14.52,14.52 0 0 1 -2.91,-6.87l-4.83,-35.61a1.59,1.59 0 0 0 -1.69,-1.37z"/>
  <rect id="svg_58" fill="#ffd666" rx="11.05" height="49.83" width="29.47" y="65.61" x="496.12"/>
  <path id="svg_59" fill="#3f3d56" d="m583.510002,60.700002a47.34,47.34 0 0 1 -7.29,0.17a1.59,1.59 0 0 0 -1.75,1.38l-4.65,34.88a14.16,14.16 0 0 1 -3,6.91a15.06,15.06 0 0 0 -3.39,11.51l0,59.25s-0.3,7.9 5.77,7.9a87.75,87.75 0 0 0 21.88,0s4.86,-0.92 4.86,-8.21l0,-58.34a14.27,14.27 0 0 0 -3,-11.6a14.52,14.52 0 0 1 -2.91,-6.87l-4.83,-35.61a1.59,1.59 0 0 0 -1.69,-1.37z"/>
  <rect id="svg_60" fill="#ffd666" rx="11.05" height="49.83" width="29.47" y="116.61" x="565.12"/>
  <g id="svg_61" opacity="0.2">
   <path id="svg_62" fill="#3f3d56" d="m505.950002,658.230002a19,19 0 0 1 -0.37,3.21q-10.44,-1.66 -21,-3c0,-0.28 0,-0.57 0,-0.86a16.88,16.88 0 0 1 2.5,-8.48c2.06,-3.26 5.19,-5.3 8.64,-5.19s6.44,2.34 8.29,5.71a16.87,16.87 0 0 1 1.94,8.61z"/>
   <ellipse id="svg_63" fill="#3f3d56" transform="rotate(-88.19000244140625 -254.19000244140636,1188.6099853515625) " ry="10.7" rx="14.01" cy="1920.939985" cx="317.019998"/>
   <ellipse id="svg_64" fill="#3f3d56" transform="rotate(-88.19000244140625 -236.550003051758,1172.5699462890623) " ry="10.7" rx="14.01" cy="1887.779946" cx="335.199997"/>
   <ellipse id="svg_65" fill="#3f3d56" transform="rotate(-88.19000244140625 -218.9199981689454,1156.530029296875) " ry="10.7" rx="14.01" cy="1854.620029" cx="353.370002"/>
   <ellipse id="svg_66" fill="#3f3d56" transform="rotate(-88.19000244140625 -201.2799987792968,1140.489990234375) " ry="10.7" rx="14.01" cy="1821.45999" cx="371.550001"/>
   <path id="svg_67" fill="#ffd666" d="m461.050002,470.990002a49.66,49.66 0 0 1 -3.8,-6l28.26,-3.73l-30.42,-0.73a51.38,51.38 0 0 1 0.31,-40.64l40.12,22.45l-36.75,-28.84a51.28,51.28 0 1 1 82.84,60a50.8,50.8 0 0 1 5.55,9.53l-37.09,17.8l39.33,-11.83a51.34,51.34 0 0 1 -9.82,47.91a51.28,51.28 0 1 1 -80.56,-2.54a51.28,51.28 0 0 1 2,-63.38l0.03,0z"/>
   <path id="svg_68" opacity="0.1" d="m551.580002,505.570002a51,51 0 0 1 -12,31.34a51.28,51.28 0 1 1 -80.56,-2.54c-6.57,-8.93 92.74,-34.55 92.56,-28.8z"/>
  </g>
 </g>
</svg>