<svg width="1137.34" height="780.14" xmlns="http://www.w3.org/2000/svg">
 <title>QA engineers</title>

 <g>
  <title>background</title>
  <rect fill="none" id="canvas_background" height="782.14" width="1139.34" y="-1" x="-1"/>
 </g>
 <g>
  <title>Layer 1</title>
  <path id="svg_1" opacity="0.1" fill="#ffd666" d="m1081.169998,623.33c-26.56,54.81 -80.52,91.46 -136.42,115.63a503.33,503.33 0 0 1 -140.45,37.48q-13.9,1.65 -27.89,2.56a540.92,540.92 0 0 1 -71.57,-0.08q-21.5,-1.43 -42.85,-4.57a540.44,540.44 0 0 1 -143.27,-41.72q-19.74,-8.89 -38.68,-19.41a494.85,494.85 0 0 1 -60.46,-39.54q-6.36,-4.86 -12.56,-9.93l-1.7,-1.39c-3.25,-2.68 -6.47,-5.42 -9.74,-8.08a141.6,141.6 0 0 0 -17.26,-12.38c-0.41,-0.24 -0.82,-0.48 -1.24,-0.71c-1.12,-0.65 -2.26,-1.26 -3.42,-1.84a78.31,78.31 0 0 0 -7.34,-3.24c-11.55,-4.4 -23.92,-6 -36.46,-5.73c-2.08,0 -4.16,0.14 -6.25,0.28l0,0c-2.92,0.2 -5.85,0.5 -8.77,0.88l-1.08,0.15a198.77,198.77 0 0 0 -27.53,5.91c-13.94,4 -27.63,9 -41.41,13.51l0,0c-5.85,1.93 -11.71,3.77 -17.62,5.42l-1.3,0.36a192.87,192.87 0 0 1 -25.61,5.36a142.7,142.7 0 0 1 -58.61,-4.72l-0.66,-0.19l-1.22,-0.36l-1.67,-0.52q-4.2,-1.32 -8.33,-2.89l-1.67,-0.64q-4,-1.54 -7.83,-3.31l-1.67,-0.76q-4,-1.86 -7.83,-3.93c-0.92,-0.48 -1.83,-1 -2.73,-1.49q-4.08,-2.28 -8,-4.78q-4.16,-2.65 -8.14,-5.53q-1.84,-1.32 -3.64,-2.71a161.36,161.36 0 0 1 -19.37,-17.47c-0.33,-0.33 -0.64,-0.67 -0.95,-1c-1.59,-1.72 -3.15,-3.47 -4.66,-5.26c-0.56,-0.66 -1.12,-1.32 -1.67,-2q-2.69,-3.28 -5.19,-6.71c-0.25,-0.33 -0.49,-0.67 -0.73,-1a144.59,144.59 0 0 1 -16.87,-30.5c-0.14,-0.33 -0.27,-0.67 -0.39,-1q-2,-5.15 -3.65,-10.47c-0.45,-1.48 -0.88,-3 -1.26,-4.48c-0.13,-0.44 -0.25,-0.89 -0.36,-1.33c-5.52,-21.73 -6.15,-44.32 -6.15,-66.78q0,-3.93 0,-7.85c0.16,-36.33 0.72,-73.28 6.08,-109.11c0,-0.25 0.07,-0.5 0.11,-0.74a340.76,340.76 0 0 1 7.31,-35.82a264.25,264.25 0 0 1 12.31,-36.3c12.33,-29 30.26,-55.39 50.17,-79.85c24,-29.43 51.5,-56.59 82.13,-79q6.6,-4.83 13.38,-9.38l2.09,-1.37c0.73,-0.49 1.46,-1 2.19,-1.43l0,0c1.5,-1 3,-1.94 4.52,-2.89l1.7,-1.06l3.24,-2l1,-0.57l1.73,-1l1.71,-1q3,-1.77 6.07,-3.46q13.11,-7.31 26.84,-13.36q4.05,-1.79 8.15,-3.45a287.43,287.43 0 0 1 38.15,-12.51q7.2,-1.82 14.49,-3.2q8.6,-1.66 17.29,-2.75a274.38,274.38 0 0 1 27.78,-2.07c65.32,-1.59 131.3,19.67 182.49,60.42c20.4,16.24 38.73,35.47 61.64,47.92c20,10.84 43.41,15.33 64.83,6.8c17.7,-7.05 29.22,-10.55 49.1,-9.48a411.56,411.56 0 0 1 120.31,25.16c1.56,0.57 3.12,1.16 4.67,1.75c100.71,38.55 187.3,115.1 232.28,213.47q1.78,3.9 3.47,7.86c26.83,62.65 36.51,136.1 6.9,197.18z"/>
  <path id="svg_2" opacity="0.1" fill="#ffd666" d="m227.169998,277.39l0,379.16l-1.3,0.36a192.87,192.87 0 0 1 -25.61,5.36a142.7,142.7 0 0 1 -58.61,-4.72l-0.66,-0.19l-1.22,-0.36l-1.67,-0.52q-4.2,-1.32 -8.33,-2.89l-1.67,-0.64q-4,-1.54 -7.83,-3.31l-1.67,-0.76q-4,-1.86 -7.83,-3.93c-0.92,-0.48 -1.83,-1 -2.73,-1.49q-4.08,-2.28 -8,-4.78q-4.16,-2.65 -8.14,-5.53q-1.84,-1.32 -3.64,-2.71a161.36,161.36 0 0 1 -19.37,-17.47c-0.33,-0.33 -0.64,-0.67 -0.95,-1c-1.59,-1.72 -3.15,-3.47 -4.66,-5.26c-0.56,-0.66 -1.12,-1.32 -1.67,-2q-2.69,-3.28 -5.19,-6.71c-0.25,-0.33 -0.49,-0.67 -0.73,-1a144.59,144.59 0 0 1 -16.87,-30.5c-0.14,-0.33 -0.27,-0.67 -0.39,-1q-2,-5.15 -3.65,-10.47c-0.45,-1.48 -0.88,-3 -1.26,-4.48c-0.13,-0.44 -0.25,-0.89 -0.36,-1.33c-5.52,-21.73 -6.15,-44.32 -6.15,-66.78q0,-3.93 0,-7.85c0.16,-36.33 0.72,-73.28 6.08,-109.11c0,-0.25 0.07,-0.5 0.11,-0.74a340.76,340.76 0 0 1 7.31,-35.82l102.12,0l0,-51.53l20.36,0l0,-41.39l43.82,0l0,41.39l20.36,0z"/>
  <path id="svg_3" opacity="0.1" fill="#ffd666" d="m1081.169998,623.33c-26.56,54.81 -80.52,91.46 -136.42,115.63a503.33,503.33 0 0 1 -140.45,37.48q-13.9,1.65 -27.89,2.56a540.92,540.92 0 0 1 -71.57,-0.08q-21.5,-1.43 -42.85,-4.57a540.44,540.44 0 0 1 -143.27,-41.72q-19.74,-8.89 -38.68,-19.41a494.85,494.85 0 0 1 -60.46,-39.54q-6.36,-4.86 -12.56,-9.93l-1.7,-1.39c-3.25,-2.68 -6.47,-5.42 -9.74,-8.08a141.6,141.6 0 0 0 -17.26,-12.38c-0.41,-0.24 -0.82,-0.48 -1.24,-0.71c-1.12,-0.65 -2.26,-1.26 -3.42,-1.84a78.31,78.31 0 0 0 -7.34,-3.24l0,-155.11l185.59,0l0,34.53l81.45,0l0,-252.58l95.87,0l0,101l47.42,0l0,-59.8l39.18,0l0,-63.88l18,0l0,-37.2c1.56,0.57 3.12,1.16 4.67,1.75l0,35.45l17.52,0l0,63.92l39.15,0l0,59.8l57.73,0l0,227.83l91.76,0l0,-165.69l29.57,0c26.87,62.67 36.55,136.12 6.94,197.2z"/>
  <rect id="svg_4" opacity="0.1" fill="#ffd666" height="42.85" width="42.85" y="300.96" x="662.01"/>
  <rect id="svg_5" opacity="0.1" fill="#ffd666" height="42.85" width="42.85" y="389.78" x="662.01"/>
  <rect id="svg_6" opacity="0.1" fill="#ffd666" height="42.85" width="42.85" y="478.61" x="662.01"/>
  <rect id="svg_7" opacity="0.1" fill="#ffd666" height="42.85" width="42.85" y="567.44" x="662.01"/>
  <rect id="svg_8" opacity="0.1" fill="#ffd666" height="42.85" width="42.85" y="656.26" x="662.01"/>
  <path id="svg_9" opacity="0.1" fill="#ffd666" d="m704.859998,745.07l0,33.84q-21.5,-1.43 -42.85,-4.57l0,-29.27l42.85,0z"/>
  <rect id="svg_10" opacity="0.1" fill="#ffd666" height="19.41" width="149.99" y="536.38" x="380.45"/>
  <rect id="svg_11" opacity="0.1" fill="#ffd666" height="19.41" width="149.99" y="595.33" x="380.45"/>
  <path id="svg_12" opacity="0.1" fill="#ffd666" d="m530.439998,654.28l0,19.4l-110.84,0q-6.36,-4.86 -12.56,-9.93l-1.7,-1.39c-3.25,-2.68 -6.47,-5.42 -9.74,-8.08l134.84,0z"/>
  <path id="svg_13" opacity="0.1" fill="#ffd666" d="m530.439998,713.22l0,19.41l-11.7,0q-19.74,-8.89 -38.68,-19.41l50.38,0z"/>
  <rect id="svg_14" opacity="0.1" fill="#ffd666" height="27.89" width="27.89" y="416.99" x="776.43"/>
  <rect id="svg_15" opacity="0.1" fill="#ffd666" height="27.89" width="27.89" y="287.01" x="172.43"/>
  <rect id="svg_16" opacity="0.1" fill="#ffd666" height="27.89" width="27.89" y="351.81" x="172.43"/>
  <rect id="svg_17" opacity="0.1" fill="#ffd666" height="27.89" width="27.89" y="416.6" x="172.43"/>
  <rect id="svg_18" opacity="0.1" fill="#ffd666" height="27.89" width="27.89" y="481.4" x="172.43"/>
  <rect id="svg_19" opacity="0.1" fill="#ffd666" height="27.89" width="27.89" y="546.2" x="172.43"/>
  <rect id="svg_20" opacity="0.1" fill="#ffd666" height="27.89" width="27.89" y="610.99" x="172.43"/>
  <rect id="svg_21" opacity="0.1" fill="#ffd666" height="27.89" width="27.89" y="416.99" x="882.92"/>
  <rect id="svg_22" opacity="0.1" fill="#ffd666" height="27.89" width="27.89" y="485.79" x="776.43"/>
  <rect id="svg_23" opacity="0.1" fill="#ffd666" height="27.89" width="27.89" y="485.79" x="882.92"/>
  <rect id="svg_24" opacity="0.1" fill="#ffd666" height="27.89" width="27.89" y="554.6" x="776.43"/>
  <rect id="svg_25" opacity="0.1" fill="#ffd666" height="27.89" width="27.89" y="554.6" x="882.92"/>
  <rect id="svg_26" opacity="0.1" fill="#ffd666" height="27.89" width="27.89" y="623.41" x="776.43"/>
  <rect id="svg_27" opacity="0.1" fill="#ffd666" height="27.89" width="27.89" y="623.41" x="882.92"/>
  <rect id="svg_28" opacity="0.1" fill="#ffd666" height="27.89" width="27.89" y="692.21" x="776.43"/>
  <rect id="svg_29" opacity="0.1" fill="#ffd666" height="27.89" width="27.89" y="692.21" x="882.92"/>
  <polygon id="svg_30" opacity="0.1" fill="#ffd666" points="776.4299926757812,779 776.4299926757812,761.010009765625 804.3200073242188,761.010009765625 804.3200073242188,776.4400024414062 776.4299926757812,779 "/>
  <path id="svg_31" opacity="0.1" fill="#ffd666" d="m33.099998,364.75l0,16l106.67,0l0,-16l-106.67,0zm116.17,15l-114.5,0l0,-14l7.83,0l106.67,14zm9.5,0l-114.5,0l0,-14l7.83,0l106.67,14zm9.5,0l-114.5,0l0,-14l7.83,0l106.67,14zm9.5,0l-114.5,0l0,-14l7.83,0l106.67,14zm9.5,0l-114.5,0l0,-14l7.83,0l106.67,14zm9.5,0l-114.5,0l0,-14l7.83,0l106.67,14zm9.5,0l-114.5,0l0,-14l7.83,0l106.67,14zm9.5,0l-114.5,0l0,-14l7.83,0l106.67,14zm9.5,0l-114.5,0l0,-14l7.83,0l106.67,14zm9.5,0l-114.5,0l0,-14l7.83,0l106.67,14zm10,0l-115,0l0,-14l8.33,0l106.67,14z"/>
  <path id="svg_32" opacity="0.1" fill="#ffd666" d="m33.099998,411.21l0,15.95l106.67,0l0,-15.95l-106.67,0zm116.17,14.95l-114.5,0l0,-13.95l7.83,0l106.67,13.95zm9.5,0l-114.5,0l0,-13.95l7.83,0l106.67,13.95zm9.5,0l-114.5,0l0,-13.95l7.83,0l106.67,13.95zm9.5,0l-114.5,0l0,-13.95l7.83,0l106.67,13.95zm9.5,0l-114.5,0l0,-13.95l7.83,0l106.67,13.95zm9.5,0l-114.5,0l0,-13.95l7.83,0l106.67,13.95zm9.5,0l-114.5,0l0,-13.95l7.83,0l106.67,13.95zm9.5,0l-114.5,0l0,-13.95l7.83,0l106.67,13.95zm9.5,0l-114.5,0l0,-13.95l7.83,0l106.67,13.95zm9.5,0l-114.5,0l0,-13.95l7.83,0l106.67,13.95zm10,0l-115,0l0,-13.95l8.33,0l106.67,13.95z"/>
  <path id="svg_33" opacity="0.1" fill="#ffd666" d="m33.099998,457.66l0,15.95l106.67,0l0,-15.95l-106.67,0zm116.17,14.95l-114.5,0l0,-13.95l7.83,0l106.67,13.95zm9.5,0l-114.5,0l0,-13.95l7.83,0l106.67,13.95zm9.5,0l-114.5,0l0,-13.95l7.83,0l106.67,13.95zm9.5,0l-114.5,0l0,-13.95l7.83,0l106.67,13.95zm9.5,0l-114.5,0l0,-13.95l7.83,0l106.67,13.95zm9.5,0l-114.5,0l0,-13.95l7.83,0l106.67,13.95zm9.5,0l-114.5,0l0,-13.95l7.83,0l106.67,13.95zm9.5,0l-114.5,0l0,-13.95l7.83,0l106.67,13.95zm9.5,0l-114.5,0l0,-13.95l7.83,0l106.67,13.95zm9.5,0l-114.5,0l0,-13.95l7.83,0l106.67,13.95zm10,0l-115,0l0,-13.95l8.33,0l106.67,13.95z"/>
  <path id="svg_34" opacity="0.1" fill="#ffd666" d="m33.099998,504.07l0,16l106.67,0l0,-16l-106.67,0zm116.17,15l-114.5,0l0,-14l7.83,0l106.67,14zm9.5,0l-114.5,0l0,-14l7.83,0l106.67,14zm9.5,0l-114.5,0l0,-14l7.83,0l106.67,14zm9.5,0l-114.5,0l0,-14l7.83,0l106.67,14zm9.5,0l-114.5,0l0,-14l7.83,0l106.67,14zm9.5,0l-114.5,0l0,-14l7.83,0l106.67,14zm9.5,0l-114.5,0l0,-14l7.83,0l106.67,14zm9.5,0l-114.5,0l0,-14l7.83,0l106.67,14zm9.5,0l-114.5,0l0,-14l7.83,0l106.67,14zm9.5,0l-114.5,0l0,-14l7.83,0l106.67,14zm10,0l-115,0l0,-14l8.33,0l106.67,14z"/>
  <path id="svg_35" opacity="0.1" fill="#ffd666" d="m33.509998,550.56c0.38,1.5 0.81,3 1.26,4.48l0,-3.48l7.83,0l0,14l-4.18,0c0.12,0.33 0.25,0.67 0.39,1l101,0l0,-16l-106.3,0zm124.89,15l-114.13,0l0,-14l7.83,0l106.3,14zm9.5,0l-114.13,0l0,-14l7.83,0l106.3,14zm9.5,0l-114.13,0l0,-14l7.83,0l106.3,14zm9.5,0l-114.13,0l0,-14l7.83,0l106.3,14zm9.5,0l-114.13,0l0,-14l7.83,0l106.3,14zm9.5,0l-114.13,0l0,-14l7.83,0l106.3,14zm9.5,0l-114.13,0l0,-14l7.83,0l106.3,14zm9.5,0l-114.13,0l0,-14l7.83,0l106.3,14zm9.5,0l-114.13,0l0,-14l7.83,0l106.3,14zm10,0l-114.63,0l0,-14l8.33,0l106.3,14z"/>
  <path id="svg_36" opacity="0.1" fill="#ffd666" d="m55.679998,597.01c0.24,0.33 0.48,0.67 0.73,1l5.19,0l0,6.71c0.55,0.67 1.11,1.33 1.67,2l0,-8.7l7.83,0l0,14l-3.17,0c0.31,0.33 0.62,0.67 0.95,1l70.89,0l0,-16l-84.09,-0.01zm109.01,15.01l-91.92,0l0,-14l7.83,0l84.09,14zm9.5,0l-91.92,0l0,-14l7.83,0l84.09,14zm9.5,0l-91.92,0l0,-14l7.83,0l84.09,14zm9.5,0l-91.92,0l0,-14l7.83,0l84.09,14zm9.5,0l-91.92,0l0,-14l7.83,0l84.09,14zm9.5,0l-91.92,0l0,-14l7.83,0l84.09,14zm10,0l-92.42,0l0,-14l8.33,0l84.09,14z"/>
  <path id="svg_37" opacity="0.1" fill="#ffd666" d="m108.039998,643.46c0.9,0.51 1.81,1 2.73,1.49l0,-0.49l7.83,0l0,4.42l1.67,0.76l0,-5.18l7.83,0l0,8.49l1.67,0.64l0,-9.13l8.33,0l0,12l1.67,0.52l0,-13.52l-31.73,0z"/>
  <path id="svg_38" opacity="0.1" fill="#ffd666" d="m436.959998,226.24s-23.84,-1.44 -21,15.26a4.08,4.08 0 0 0 2.12,4.3s0,-1.24 2.44,-0.82a11.15,11.15 0 0 0 2.59,0.12a5.39,5.39 0 0 0 3.17,-1.3l0,0s6.7,-2.77 9.31,-13.72c0,0 1.92,-2.39 1.85,-3l-4,1.72s1.38,2.9 0.3,5.31c0,0 -0.13,-5.2 -0.91,-5.08c-0.15,0 -2.09,1 -2.09,1s2.37,5.06 0.58,8.73c0,0 0.68,-6.22 -1.31,-8.36l-2.9,1.67s2.77,5.22 0.89,9.48c0,0 0.49,-6.53 -1.48,-9.07l-2.57,2s2.6,5.14 1,8.68c0,0 -0.21,-7.61 -1.57,-8.19a15.42,15.42 0 0 0 -2.59,2.8s1.78,3.73 0.68,5.7c0,0 -0.68,-5.06 -1.24,-5.09c0,0 -2.23,3.36 -2.46,5.66a12.18,12.18 0 0 1 1.92,-6a6.72,6.72 0 0 0 -3.42,1.77s0.35,-2.37 4,-2.58c0,0 1.85,-2.54 2.35,-2.7c0,0 -3.61,-0.3 -5.8,0.67c0,0 1.93,-2.24 6.46,-1.22l2.53,-2.07s-4.75,-0.65 -6.76,0.07c0,0 2.31,-2 7.44,-0.54l2.76,-1.65a25.18,25.18 0 0 0 -6.46,-0.56s2.54,-1.37 7.27,0.12l2,-0.89s-3,-0.58 -3.83,-0.67s-0.92,-0.33 -0.92,-0.33a10.28,10.28 0 0 1 5.57,0.62s4.15,-1.58 4.08,-1.84z"/>
  <path id="svg_39" opacity="0.1" fill="#ffd666" d="m374.379998,307.51s-8.15,22.44 8.67,24.49a4.07,4.07 0 0 0 4.71,-0.81s-1.17,-0.39 -0.09,-2.58a11.39,11.39 0 0 0 0.86,-2.44a5.41,5.41 0 0 0 -0.36,-3.41l0,0s-0.75,-7.21 -10.51,-12.82c0,0 -1.74,-2.53 -2.35,-2.63l0.5,4.35s3.17,-0.5 5.18,1.22c0,0 -5,-1.35 -5.13,-0.57c0,0.15 0.37,2.29 0.37,2.29s5.52,-0.84 8.53,1.92c0,0 -5.78,-2.42 -8.39,-1.11l0.78,3.18s5.79,-1.16 9.34,1.84c0,0 -6.12,-2.31 -9.12,-1.15l1.19,3s5.67,-1 8.61,1.49c0,0 -7.36,-2 -8.29,-0.82a15.74,15.74 0 0 0 1.94,3.27s4.09,-0.64 5.66,1c0,0 -5.05,-0.79 -5.23,-0.27c0,0 2.59,3.1 4.73,4a12.24,12.24 0 0 1 -5.19,-3.55a6.72,6.72 0 0 0 0.73,3.79s-2.18,-1 -1.35,-4.55c0,0 -1.92,-2.49 -1.92,-3c0,0 -1.32,3.37 -1,5.75c0,0 -1.6,-2.49 0.66,-6.54l-1.26,-3s-2,4.37 -1.86,6.51c0,0 -1.24,-2.79 1.6,-7.3l-0.79,-3.11a24.93,24.93 0 0 0 -2.37,6s-0.6,-2.83 2.17,-6.94l-0.29,-2.14s-1.4,2.68 -1.73,3.49s-0.58,0.78 -0.58,0.78a10.28,10.28 0 0 1 2.17,-5.17s-0.32,-4.46 -0.59,-4.46z"/>
  <path id="svg_40" opacity="0.1" fill="#ffd666" d="m532.409998,288.59s-8.14,22.48 8.67,24.48a4.08,4.08 0 0 0 4.72,-0.82s-1.18,-0.39 -0.09,-2.57a10.7,10.7 0 0 0 0.85,-2.45a5.41,5.41 0 0 0 -0.35,-3.41l0,0s-0.75,-7.21 -10.51,-12.82c0,0 -1.75,-2.52 -2.36,-2.62l0.51,4.34s3.17,-0.49 5.18,1.23c0,0 -5,-1.35 -5.14,-0.58c0,0.16 0.37,2.29 0.37,2.29s5.52,-0.83 8.54,1.92c0,0 -5.78,-2.41 -8.4,-1.11l0.79,3.19s5.79,-1.17 9.34,1.84c0,0 -6.13,-2.32 -9.13,-1.16l1.19,3s5.67,-1 8.61,1.49c0,0 -7.35,-2 -8.29,-0.81a15.43,15.43 0 0 0 2,3.27s4.08,-0.65 5.66,1c0,0 -5.05,-0.79 -5.23,-0.26c0,0 2.58,3.09 4.72,4a12.13,12.13 0 0 1 -5.18,-3.55a6.77,6.77 0 0 0 0.72,3.79s-2.17,-1 -1.34,-4.54c0,0 -1.92,-2.5 -1.93,-3c0,0 -1.31,3.38 -1,5.75c0,0 -1.6,-2.48 0.66,-6.54l-1.26,-3s-2,4.37 -1.86,6.5c0,0 -1.24,-2.78 1.6,-7.29l-0.8,-3.12a24.93,24.93 0 0 0 -2.37,6s-0.59,-2.83 2.18,-6.94l-0.29,-2.14s-1.4,2.68 -1.74,3.49s-0.58,0.78 -0.58,0.78a10.35,10.35 0 0 1 2.18,-5.17s-0.36,-4.45 -0.64,-4.46z"/>
  <path id="svg_41" opacity="0.1" fill="#ffd666" d="m306.509998,472.07s-8.15,22.45 8.67,24.5a4.06,4.06 0 0 0 4.71,-0.82s-1.17,-0.39 -0.09,-2.57a10.77,10.77 0 0 0 0.86,-2.45a5.34,5.34 0 0 0 -0.36,-3.41l0,0s-0.75,-7.21 -10.51,-12.81c0,0 -1.74,-2.53 -2.35,-2.63l0.5,4.34s3.18,-0.49 5.18,1.23c0,0 -5,-1.35 -5.13,-0.58c0,0.16 0.37,2.29 0.37,2.29s5.52,-0.83 8.53,1.92c0,0 -5.78,-2.41 -8.39,-1.11l0.78,3.19s5.79,-1.17 9.34,1.84c0,0 -6.12,-2.32 -9.12,-1.16l1.19,3s5.67,-1 8.61,1.49c0,0 -7.35,-2 -8.29,-0.81a15.74,15.74 0 0 0 1.94,3.27s4.09,-0.65 5.67,1c0,0 -5.06,-0.79 -5.24,-0.26c0,0 2.59,3.09 4.73,4a12.17,12.17 0 0 1 -5.19,-3.54a6.69,6.69 0 0 0 0.73,3.78s-2.18,-1 -1.35,-4.54c0,0 -1.91,-2.5 -1.92,-3c0,0 -1.32,3.38 -1,5.75c0,0 -1.6,-2.48 0.66,-6.54l-1.26,-3s-2,4.37 -1.85,6.5c0,0 -1.24,-2.78 1.6,-7.29l-0.8,-3.11a24.74,24.74 0 0 0 -2.37,6s-0.6,-2.84 2.17,-6.94l-0.29,-2.15s-1.4,2.68 -1.73,3.49s-0.58,0.78 -0.58,0.78a10.24,10.24 0 0 1 2.18,-5.17s-0.33,-4.48 -0.6,-4.48z"/>
  <path id="svg_42" opacity="0.1" fill="#ffd666" d="m274.169998,260.48s-8.14,22.44 8.67,24.49a4.09,4.09 0 0 0 4.72,-0.81s-1.18,-0.39 -0.09,-2.58a11.21,11.21 0 0 0 0.85,-2.45a5.38,5.38 0 0 0 -0.35,-3.4l0,0s-0.75,-7.21 -10.52,-12.82c0,0 -1.74,-2.53 -2.35,-2.63l0.51,4.35s3.17,-0.5 5.17,1.22c0,0 -5,-1.35 -5.13,-0.57c0,0.15 0.37,2.29 0.37,2.29s5.52,-0.84 8.54,1.92c0,0 -5.78,-2.42 -8.4,-1.11l0.78,3.18s5.79,-1.17 9.35,1.84c0,0 -6.13,-2.32 -9.13,-1.15l1.19,3s5.67,-1 8.61,1.5c0,0 -7.35,-2 -8.29,-0.82a15.74,15.74 0 0 0 1.94,3.27s4.09,-0.64 5.67,1c0,0 -5.05,-0.79 -5.23,-0.27c0,0 2.58,3.1 4.72,4a12.3,12.3 0 0 1 -5.19,-3.55a6.72,6.72 0 0 0 0.73,3.79s-2.18,-1 -1.34,-4.55c0,0 -1.92,-2.49 -1.93,-3c0,0 -1.31,3.37 -1,5.75c0,0 -1.61,-2.49 0.66,-6.54l-1.27,-3s-2,4.37 -1.85,6.51c0,0 -1.24,-2.79 1.6,-7.3l-0.8,-3.11a24.93,24.93 0 0 0 -2.37,6s-0.59,-2.83 2.17,-6.94l-0.28,-2.14s-1.41,2.68 -1.74,3.48s-0.58,0.79 -0.58,0.79a10.24,10.24 0 0 1 2.18,-5.17s-0.31,-4.47 -0.59,-4.47z"/>
  <path id="svg_43" opacity="0.1" fill="#ffd666" d="m334.609998,382.68s6.29,23 21.21,15a4.07,4.07 0 0 0 3.38,-3.38s-1.18,0.36 -1.55,-2.05a11,11 0 0 0 -0.72,-2.49a5.29,5.29 0 0 0 -2.25,-2.58l0,0s-4.77,-5.46 -16,-4.42c0,0 -2.88,-1.05 -3.44,-0.78l2.92,3.25s2.31,-2.23 4.94,-2c0,0 -4.89,1.8 -4.53,2.49c0.08,0.14 1.62,1.66 1.62,1.66s4,-3.87 8.08,-3.36c0,0 -6.11,1.36 -7.49,3.94l2.47,2.15s4.06,-4.29 8.7,-3.89c0,0 -6.35,1.64 -8.13,4.32l2.72,1.79s4,-4.11 7.9,-3.74c0,0 -7.14,2.63 -7.25,4.11a15.59,15.59 0 0 0 3.48,1.55s3,-2.88 5.19,-2.47c0,0 -4.59,2.27 -4.43,2.8c0,0 3.9,1 6.15,0.52a12.2,12.2 0 0 1 -6.28,0.1a6.66,6.66 0 0 0 2.78,2.67s-2.36,0.43 -3.72,-2.94c0,0 -3,-0.93 -3.32,-1.35c0,0 0.88,3.52 2.5,5.28c0,0 -2.74,-1.11 -3.23,-5.73l-2.77,-1.73s0.91,4.71 2.23,6.38c0,0 -2.62,-1.56 -2.9,-6.88l-2.44,-2.08a25,25 0 0 0 1.54,6.3s-2.11,-2 -2.22,-6.92l-1.47,-1.59s0.4,3 0.59,3.85s0,1 0,1a10.27,10.27 0 0 1 -1.2,-5.48s-2.83,-3.45 -3.06,-3.3z"/>
  <path id="svg_44" opacity="0.1" fill="#ffd666" d="m505.249998,403.22s6.29,23 21.2,15a4.06,4.06 0 0 0 3.39,-3.38s-1.19,0.36 -1.56,-2a10.51,10.51 0 0 0 -0.71,-2.49a5.36,5.36 0 0 0 -2.26,-2.58l0,0s-4.77,-5.46 -16,-4.41c0,0 -2.88,-1.06 -3.43,-0.79l2.91,3.25s2.31,-2.23 4.94,-2c0,0 -4.89,1.8 -4.52,2.49c0.07,0.14 1.62,1.66 1.62,1.66s4,-3.87 8.08,-3.36c0,0 -6.12,1.36 -7.5,3.94l2.48,2.15s4,-4.29 8.69,-3.89c0,0 -6.34,1.64 -8.12,4.32l2.72,1.79s4,-4.11 7.89,-3.74c0,0 -7.14,2.63 -7.24,4.11a15.47,15.47 0 0 0 3.47,1.55s3,-2.88 5.19,-2.47c0,0 -4.58,2.27 -4.43,2.8c0,0 3.9,1 6.16,0.52a12.25,12.25 0 0 1 -6.29,0.1a6.73,6.73 0 0 0 2.78,2.67s-2.36,0.43 -3.72,-2.94c0,0 -3,-0.93 -3.31,-1.35c0,0 0.87,3.52 2.49,5.28c0,0 -2.74,-1.11 -3.23,-5.73l-2.77,-1.75s0.91,4.71 2.24,6.38c0,0 -2.62,-1.56 -2.9,-6.88l-2.45,-2.08a24.69,24.69 0 0 0 1.55,6.3s-2.12,-2 -2.23,-6.92l-1.47,-1.59s0.4,3 0.59,3.85s0,1 0,1a10.27,10.27 0 0 1 -1.2,-5.48s-2.82,-3.48 -3.05,-3.33z"/>
  <path id="svg_45" fill="#ced7e7" d="m441.229998,634.2s51.88,-17.47 41.14,-79.37l-65.9,-17.11l-15.3,50.79l40.06,45.69z"/>
  <path id="svg_46" opacity="0.1" d="m401.169998,588.51l40.05,45.69s51.88,-17.47 41.14,-79.37l-81.19,33.68z"/>
  <path id="svg_47" fill="#fed253" d="m183.169998,131.21s7,11.39 16.57,5.7s0.39,-21.41 0.39,-21.41s-18.33,-2.51 -16.96,15.71z"/>
  <path id="svg_48" opacity="0.1" d="m199.739998,136.91a9.87,9.87 0 0 1 -7.71,1.3c-3.51,-0.89 -6.21,-3.59 -7.66,-5.36a16.7,16.7 0 0 1 -1.2,-1.63c-0.49,-6.5 1.53,-10.37 4.33,-12.65l0,0c3.85,-3.13 9.18,-3.26 11.48,-3.16c0.71,0 1.12,0.1 1.12,0.1l0.19,0.32c0.27,0.51 0.86,1.64 1.49,3.15c2.14,4.95 4.69,13.92 -2.04,17.93z"/>
  <path id="svg_49" fill="#ffa2a2" d="m446.329998,551.92l36,2.91l67,0.55l-52.79,65s-16.75,0.91 -20.2,3.27s-51.89,1.1 -51.89,1.1l-7.82,-33.32l29.7,-39.51z"/>
  <path id="svg_50" opacity="0.05" d="m446.329998,551.92l36,2.91l67,0.55l-52.79,65s-16.75,0.91 -20.2,3.27s-51.89,1.1 -51.89,1.1l-7.82,-33.32l29.7,-39.51z"/>
  <path id="svg_51" fill="#ced7e7" d="m409.919998,377.16l8.37,14.2l1.82,24.76s5.83,21.11 10.2,27.3s6.19,22.58 6.19,22.58s1.82,15.29 4,18.56s5.1,27 5.1,27s19.3,38.59 36.77,43.32c0,0 -86.65,28.4 -41.14,79.37c0,0 -32.4,8 -40.05,-1.09s-27.67,-143.81 -27.67,-143.81l6.19,-113.6l30.22,1.41z"/>
  <path id="svg_52" opacity="0.05" d="m409.919998,377.16l8.37,14.2l1.82,24.76s5.83,21.11 10.2,27.3s6.19,22.58 6.19,22.58s1.82,15.29 4,18.56s5.1,27 5.1,27s19.3,38.59 36.77,43.32c0,0 -86.65,28.4 -41.14,79.37c0,0 -32.4,8 -40.05,-1.09s-27.67,-143.81 -27.67,-143.81l6.19,-113.6l30.22,1.41z"/>
  <path id="svg_53" fill="#ffa2a2" d="m304.789998,238.77a78,78 0 0 0 2.1,37.9l-13.48,38.59s-102.67,-57.16 -93.93,-71c4.95,-7.85 5.58,-28.62 5.18,-45.12c-0.29,-12.54 -1.18,-22.6 -1.18,-22.6s126,12.39 109.23,41.15a67.89,67.89 0 0 0 -7.92,21.08z"/>
  <path id="svg_54" opacity="0.1" d="m312.709998,217.69a67.89,67.89 0 0 0 -7.92,21.08a84.95,84.95 0 0 1 -100.13,-39.63c-0.29,-12.54 -1.18,-22.6 -1.18,-22.6s125.97,12.39 109.23,41.15z"/>
  <path id="svg_55" fill="#ffa2a2" d="m363.679998,155.79a84.84,84.84 0 1 1 -154.06,-49q1.8,-2.53 3.79,-4.94a84.86,84.86 0 0 1 27.61,-22l0,0a83.34,83.34 0 0 1 18.15,-6.58a85,85 0 0 1 103.47,68.93a85.84,85.84 0 0 1 1.04,13.59z"/>
  <path id="svg_56" fill="#ced7e7" d="m397.169998,504.6c-1.27,6.78 0.32,19.17 2.73,31.78c0.1,0.55 0.21,1.1 0.32,1.65s0.27,1.4 0.41,2.09c1.11,5.42 2.32,10.79 3.5,15.67s2.24,9.06 3.14,12.5c1.36,5.15 2.29,8.39 2.29,8.39s0.12,3.18 0.28,8.24c0.09,2.92 0.19,6.48 0.29,10.41c0,1.14 0.07,2.3 0.1,3.5c0.05,2.09 0.1,4.26 0.15,6.48c0,0.72 0,1.44 0.05,2.17c0,2.39 0.09,4.83 0.13,7.26c0.05,3.34 0.09,6.68 0.11,9.92c0,1.24 0,2.46 0,3.66c0,3.1 0,6.07 0,8.8c-0.11,7.75 -0.42,13.6 -1.08,15.29c-0.23,0.58 -0.44,1.21 -0.64,1.87a63.23,63.23 0 0 0 -1.88,9.47l-1.7,-1.39c-3.25,-2.68 -6.47,-5.42 -9.74,-8.08a141.6,141.6 0 0 0 -17.26,-12.38c-0.41,-0.24 -0.82,-0.48 -1.24,-0.71c-1.12,-0.65 -2.26,-1.26 -3.42,-1.84a78.31,78.31 0 0 0 -7.34,-3.24c-11.55,-4.4 -23.92,-6 -36.46,-5.73c-5,1.91 -8.25,3.28 -8.25,3.28l-6.36,1.92l-1.06,0.32c-6.89,2.1 -16.58,5.08 -20.07,6.32c-5.64,2 -54.61,12.19 -54.61,12.19a81.35,81.35 0 0 1 -13.66,2.5a192.87,192.87 0 0 1 -25.61,5.36a142.7,142.7 0 0 1 -58.61,-4.72a9.58,9.58 0 0 1 -1.7,-0.05c0.35,0 0.69,-0.08 1,-0.14l-1.22,-0.36l-1.67,-0.52q-4.2,-1.32 -8.33,-2.89l-1.67,-0.64q-4,-1.54 -7.83,-3.31l-1.67,-0.76q-4,-1.86 -7.83,-3.93c-0.92,-0.48 -1.83,-1 -2.73,-1.49q-4.08,-2.28 -8,-4.78c-0.44,-3.77 -0.67,-6.29 -0.67,-6.29l-3.9,-19.42l-0.2,-1l-2.8,-14l-0.2,-1l-6.09,-30.46l-0.2,-1l-2.8,-14l-0.2,-1l-6.17,-30.44l-0.2,-1l-2.8,-14l-0.2,-1l-6.12,-30.5l-0.2,-1l-2.8,-13.95l-0.2,-1l-1.11,-5.5l-1.67,-8.33s-5.33,-7.62 -11.33,-16.63l-0.67,-1c-1.71,-2.53 -3.47,-5.16 -5.18,-7.74c-0.57,-0.85 -1.12,-1.69 -1.67,-2.52q-1.25,-1.89 -2.42,-3.69l-0.54,-0.83l-0.11,-0.17c-8.62,-13.34 -2.85,-19.14 -2.85,-19.14s3.62,-4.9 8.29,-11.38c0.23,-0.33 0.47,-0.66 0.72,-1c2,-2.8 4.2,-5.86 6.36,-8.92l1.67,-2.38c0.63,-0.89 1.25,-1.78 1.85,-2.66c0.24,-0.33 0.47,-0.67 0.69,-1c4.61,-6.66 8.41,-12.47 9.19,-14.53c1.22,-3.25 9,-12.86 16.75,-21.29c6.11,-6.66 12.19,-12.58 14.92,-14c6.19,-3.27 8.74,-13.84 8.74,-13.84s13.47,-4.72 15.29,-8.36s27.31,-20 27.31,-20s10.31,-6.64 14.48,-10.64a8.53,8.53 0 0 0 1.53,-1.79c1.45,-2.6 10.92,-4.74 14.77,-5.51c1,-0.2 1.62,-0.31 1.62,-0.31a32.59,32.59 0 0 1 5.83,-7.65c1.57,-1.39 3.53,-6.18 5.18,-10.82c1.79,-5.06 3.18,-9.93 3.18,-9.93c2.92,-9.83 8.74,-6.92 8.74,-6.92a20,20 0 0 0 0.38,4l0,0c2.43,12 15.63,17 22.56,22.61c7.65,6.18 19.66,22.21 29.13,25.48c7.84,2.71 16.93,12.93 19.81,16.34l0.22,0.26c0.48,0.56 0.72,0.88 0.72,0.88s5.37,-0.28 8.64,-0.34l1.19,0a3.48,3.48 0 0 0 1.82,-0.74c3.25,-2.21 8.09,-8.69 10.2,-10.18c2.54,-1.83 5.1,-31.32 5.1,-31.32l0.13,-0.06c9.07,-4.25 18.8,38.29 18.8,38.29s17.11,5.1 18.57,8.74c0.28,0.72 1.57,2 3.51,3.55a192.4,192.4 0 0 0 28.1,17.85c0.22,0.11 0.43,0.22 0.65,0.31a6.67,6.67 0 0 0 0.61,0.29c0.37,0.18 0.73,0.34 1.07,0.49q0.81,0.36 1.5,0.6l0.6,0.21a14.46,14.46 0 0 1 4,2.07c0.36,0.26 0.72,0.53 1.07,0.82a28.26,28.26 0 0 1 3.74,3.76c0.17,0.2 0.33,0.41 0.49,0.61l0,0c0.76,0.95 1.44,1.89 2,2.76a40.89,40.89 0 0 1 2.51,4.18s14.92,25.49 19.66,28.39s7.65,32.41 7.65,32.41l0,0l-16,59.31s-0.75,15 -2.15,30.3c-0.78,8.58 -1.77,17.31 -2.95,23.59z"/>
  <path id="svg_57" fill="#63667e" d="m276.659998,290.51s-10.73,5.82 -19.11,6.37a15.75,15.75 0 0 1 -3.28,-0.19c-8.78,-1.33 -21.66,-8.55 -21.66,-8.55l15.11,-16.57l18.38,9.11l6.76,6.29l3.8,3.54z"/>
  <path id="svg_58" opacity="0.1" d="m362.599998,142.2a10.06,10.06 0 0 1 -1.29,1.49c-5.26,5 -14.6,2.93 -21.77,1.77a79.28,79.28 0 0 1 -18.13,-5.24c-5.06,-2.16 -11.13,-4.8 -15.68,-1.7c-1.75,1.18 -2.95,3.07 -4.77,4.11s-4.14,1.11 -6.29,1.14c-7,0 -14,0.08 -20.83,-1.5c-10.19,-2.38 -20.73,-8.37 -30.42,-4.42c-7.58,3.08 -11.69,11.33 -13.74,19.26c-1,3.89 -1.74,8 -4,11.3s-6.63,5.64 -10.35,4.09c-5.49,-2.29 -6.3,-11.61 -12.92,-12.08c-7.27,-0.51 -7.18,7 -5.06,12.43c3.14,8 7.25,16 7.43,24.34a84.89,84.89 0 0 1 4.84,-90.44a9.14,9.14 0 0 0 3.61,-4.22a6.31,6.31 0 0 0 0.18,-0.72c0.55,-2.79 -1,-5.72 -1.09,-8.64c-0.35,-7.13 7.37,-12.1 14.45,-13c4.71,-0.6 9.53,-0.14 14.25,-0.29l0,0a32.24,32.24 0 0 0 7.05,-0.94a33.91,33.91 0 0 0 11,-5.65a85,85 0 0 1 103.47,68.93l0.06,-0.02z"/>
  <path id="svg_59" fill="#896363" d="m364.309998,136.31a11,11 0 0 1 -3,5.2c-5.26,5 -14.6,2.92 -21.77,1.76a78.29,78.29 0 0 1 -18.13,-5.2c-5.06,-2.15 -11.13,-4.79 -15.68,-1.69c-1.75,1.18 -2.95,3.07 -4.77,4.11s-4.14,1.11 -6.29,1.13c-7,0.05 -14,0.09 -20.83,-1.49c-10.19,-2.39 -20.73,-8.37 -30.42,-4.43c-7.58,3.08 -11.69,11.34 -13.74,19.27c-1,3.89 -1.74,8 -4,11.29s-6.63,5.65 -10.35,4.1c-5.49,-2.29 -6.3,-11.61 -12.92,-12.08c-7.27,-0.51 -7.18,7 -5.06,12.43c3.72,9.47 8.78,18.89 7.12,28.93c-1.65,0 -4.38,-0.06 -6,-0.1c1.26,-2.15 -1.14,-4.71 -3.53,-5.44s-5.18,-0.72 -7,-2.46s-1.83,-4.43 -1.64,-6.84a47.07,47.07 0 0 1 3.73,-14.94c1.31,-3 3,-6.25 2,-9.39a26.68,26.68 0 0 0 -2.16,-4.09c-2.08,-4 -1.59,-9 0.19,-13.13c0.76,-1.76 1.31,-3.42 1.94,-5a22.24,22.24 0 0 1 3.41,-6.23c2.29,-2.85 4.53,-7.14 2,-9.79c-0.64,-0.67 0.64,-1.13 0.23,-2a1.71,1.71 0 0 1 -0.15,-0.47a4.54,4.54 0 0 1 0.72,-3a7.33,7.33 0 0 1 0.39,-0.67a5.69,5.69 0 0 1 0.39,-0.66a31.79,31.79 0 0 1 8.65,-9.43c2.17,-1.57 4.71,-3.08 5.57,-5.62c1,-3 -0.76,-6.19 -0.91,-9.36c-0.35,-7.13 7.37,-12.1 14.45,-13s14.42,0.59 21.32,-1.24c9.79,-2.58 16.67,-11.22 25.56,-16.07a36.19,36.19 0 0 1 31.8,-1.14c10.38,4.74 18.21,14.32 29.05,17.92c3.84,1.28 8,1.79 11.46,3.91c4,2.46 6.43,6.76 8.51,11c3.17,6.43 3.81,12.89 6,19.7c1.74,5.4 4.15,12.46 4.35,18.68a18.72,18.72 0 0 1 -0.49,5.53z"/>
  <g id="svg_60" opacity="0.1">
   <path id="svg_61" d="m198.709998,123.78a4.45,4.45 0 0 0 -0.75,-3.74c0.26,0.78 -0.87,1.23 -0.25,1.88a4,4 0 0 1 1,1.86z"/>
   <path id="svg_62" d="m197.929998,117.75l0,0a4.13,4.13 0 0 0 -0.21,1.08c0.19,-0.32 0.45,-0.65 0.21,-1.08z"/>
   <path id="svg_63" d="m361.589998,139.07c-5.27,5 -14.6,2.93 -21.79,1.76a77.76,77.76 0 0 1 -18.11,-5.23c-5.07,-2.16 -11.13,-4.8 -15.69,-1.7c-1.74,1.18 -2.94,3.07 -4.77,4.11s-4.14,1.11 -6.29,1.13c-7,0 -14,0.09 -20.84,-1.5c-10.18,-2.38 -20.72,-8.35 -30.41,-4.42c-7.58,3.09 -11.69,11.34 -13.74,19.27c-1,3.89 -1.73,8 -4,11.3s-6.64,5.64 -10.35,4.1c-5.49,-2.3 -6.3,-11.61 -12.92,-12.08c-5.17,-0.37 -6.61,3.33 -6.26,7.44c0.3,-3.14 2,-5.56 6.26,-5.26c6.62,0.47 7.43,9.79 12.92,12.08c3.71,1.55 8.09,-0.78 10.35,-4.1s3,-7.41 4,-11.29c2.05,-7.93 6.16,-16.19 13.74,-19.27c9.69,-3.94 20.23,2 30.41,4.42c6.8,1.59 13.86,1.54 20.84,1.49c2.15,0 4.42,-0.06 6.29,-1.12s3,-2.93 4.77,-4.12c4.56,-3.09 10.62,-0.45 15.69,1.7a78.27,78.27 0 0 0 18.11,5.24c7.19,1.16 16.52,3.25 21.79,-1.77c2.86,-2.73 3.72,-6.68 3.53,-11c-0.16,3.43 -1.16,6.54 -3.53,8.82z"/>
   <path id="svg_64" d="m212.649998,89.21a10.63,10.63 0 0 0 -0.06,1.5c0.1,2.08 0.89,4.16 1.14,6.19c0.37,-2.49 -0.78,-5.09 -1.08,-7.69z"/>
   <path id="svg_65" d="m192.329998,160.16a7.36,7.36 0 0 1 0.19,0.91a7.18,7.18 0 0 0 -0.19,-3.09a25.93,25.93 0 0 0 -2.16,-4.1a12.35,12.35 0 0 1 -1.31,-4.75a13.17,13.17 0 0 0 1.31,6.94a25.41,25.41 0 0 1 2.16,4.09z"/>
   <path id="svg_66" d="m204.739998,197.14l-5.85,-0.09a2.51,2.51 0 0 1 -0.18,2.18c1.65,0 4.39,0.06 6,0.1a24.5,24.5 0 0 0 0.29,-5.18a23.45,23.45 0 0 1 -0.26,2.99z"/>
   <path id="svg_67" d="m195.169998,191.61c-2.39,-0.72 -5.17,-0.73 -6.95,-2.48a6.34,6.34 0 0 1 -1.66,-4.19c-0.15,2.3 0,4.78 1.66,6.38c1.78,1.75 4.56,1.76 6.95,2.48a5.94,5.94 0 0 1 3.63,3c1.01,-2.07 -1.31,-4.5 -3.63,-5.19z"/>
  </g>
  <path id="svg_68" opacity="0.1" d="m377.099998,641.19c-1.12,-0.65 -2.26,-1.26 -3.42,-1.84a78.31,78.31 0 0 0 -7.34,-3.24c-11.55,-4.4 -23.92,-6 -36.46,-5.73c-5,1.91 -8.25,3.28 -8.25,3.28l-6.36,1.92l-1.06,0.32c-0.07,-0.7 -0.15,-1.4 -0.22,-2.11s-0.15,-1.39 -0.23,-2.09c-2.24,-21.21 -4,-43 -4,-43l0,-18.82l0,-2.19l-0.12,-55.45l-1,-18.28l-0.47,-8.09l-0.09,-1.54l-0.18,-3.16l-0.1,-1.88a16.9,16.9 0 0 1 -0.56,-1.82l0,0c-0.07,-0.25 -0.14,-0.53 -0.2,-0.82c-0.25,-1 -0.52,-2.29 -0.8,-3.69c-1.83,-9.2 -4.12,-24.71 -4.26,-27.86c-0.18,-4.2 -3.82,-29.32 -3.82,-29.32c-0.37,-13.83 -12,-39.87 -14.93,-44.78s-6.2,-34.41 -5.1,-36c0.57,-0.85 0.94,-5.88 1.17,-10.52c0,-0.53 0.05,-1.05 0.07,-1.56c0.15,-3.63 0.22,-6.66 0.22,-6.66l11.44,-2.26l3.07,-0.6l0.24,-0.05l0.1,0.2c0.33,0.61 1.36,2.56 2.57,5.12c0.14,0.27 0.27,0.56 0.41,0.85c0.06,0.14 0.13,0.28 0.2,0.42c2.24,4.9 4.83,11.35 4.72,15.06c-0.18,6.56 7.29,22.4 7.29,22.4c0.72,3.64 16.56,39.86 16.56,39.86s12.93,35.5 12.2,41.33s6.19,44.42 6.19,44.42l7.1,39.69c3.45,7.82 8,25.84 8,25.84l1.73,10.22l0.33,1.95l4.61,27.27l2.26,13.36s0.95,7.1 2.39,15c0.12,0.71 0.26,1.43 0.4,2.15a110.06,110.06 0 0 0 3.77,15.35a57.47,57.47 0 0 1 1.93,7.35z"/>
  <path id="svg_69" fill="#63667e" d="m378.339998,641.9c-0.41,-0.24 -0.82,-0.48 -1.24,-0.71c-1.12,-0.65 -2.26,-1.26 -3.42,-1.84a78.31,78.31 0 0 0 -7.34,-3.24c-11.55,-4.4 -23.92,-6 -36.46,-5.73c-5,1.91 -8.25,3.28 -8.25,3.28l-6.36,1.92c-0.08,-0.7 -0.15,-1.4 -0.23,-2.11s-0.14,-1.28 -0.2,-1.92c-2.24,-21.16 -4,-42.85 -4,-42.85l0,-19l0,-2.19l-0.12,-55.31l-1,-17.46l-0.2,-3.62l-0.14,-2.45l-0.18,-3.24l-0.18,-3.29l-0.13,-2.37l0,-0.52c0,-0.05 0,-0.11 -0.07,-0.17c-0.19,-0.54 -0.42,-1.36 -0.67,-2.4l-0.12,-0.5c-0.05,-0.23 -0.11,-0.48 -0.16,-0.73a0.43,0.43 0 0 1 0,0c-1.88,-8.53 -4.64,-26.92 -4.79,-30.37c-0.18,-4.2 -3.82,-29.32 -3.82,-29.32c-0.37,-13.83 -12,-39.87 -14.93,-44.78s-6.19,-34.41 -5.1,-36c0.63,-1 1,-7.07 1.24,-12.08c0,-0.4 0,-0.79 0,-1.16c0.13,-3.09 0.18,-5.5 0.18,-5.5l10.64,-2.1l2.7,-0.53l0.42,-0.08l1,-0.2s1.31,2.42 2.88,5.75l0.2,0.42c2.29,4.94 5,11.66 4.92,15.48c-0.18,6.56 7.29,22.4 7.29,22.4c0.72,3.64 16.56,39.86 16.56,39.86s12.93,35.5 12.2,41.33s6.19,44.42 6.19,44.42l7.1,39.69c3.45,7.82 8,25.84 8,25.84l1.61,9.52l0.33,1.93l3.63,21.52l3.35,19.83s1,7.07 2.38,15c0.13,0.72 0.26,1.44 0.4,2.17a110.63,110.63 0 0 0 3.77,15.42a61,61 0 0 1 2.12,7.99z"/>
  <path id="svg_70" fill="#fed253" d="m369.319998,128.31s-3.82,4.92 -7.27,4.92s-16.88,-0.55 -23.88,-2.73s-41.32,-3.83 -41.32,-3.83s-48.6,0.18 -50.24,-1.46s-30.22,-10.38 -33.13,-9.83c-0.61,0.12 -2.1,0.38 -4.09,0.71l-2.28,0.37c-3.45,0.55 -7.76,1.19 -11.7,1.66c-4.87,0.57 -9.15,0.86 -10.51,0.36l0,-4.19s5.64,-8.2 6,-10.55s5.1,-36.42 17.48,-48.61a48.8,48.8 0 0 1 23.48,-22c16.75,-7.29 33.5,-13.47 33.5,-13.47l2.93,-0.42l9.45,-1.4a7.13,7.13 0 0 1 0.93,-0.78c2.62,-2 10.56,-6.35 20.91,3l1.83,2.92s31.85,7.46 46.59,33.49s15.48,51.52 16.57,63.17c0,0 -0.73,3.28 0.73,4.55a20.41,20.41 0 0 1 1.51,1.48c0.13,0.13 0.26,0.26 0.38,0.4c0.42,0.42 0.81,0.86 1.13,1.22a0.47,0.47 0 0 1 0.1,0.1a3.2,3.2 0 0 0 0.25,0.27l0.65,0.65z"/>
  <path id="svg_71" opacity="0.05" d="m369.319998,128.31s-3.82,4.92 -7.27,4.92s-16.88,-0.55 -23.88,-2.73s-41.32,-3.83 -41.32,-3.83s-48.6,0.18 -50.24,-1.46s-30.22,-10.38 -33.13,-9.83c-0.61,0.12 -2.1,0.38 -4.09,0.71l-0.52,-3.2l-0.13,-0.79s55.16,-11.83 91.93,-5.63s63.9,13.1 63.9,13.1s-0.73,3.28 0.73,4.55a20.41,20.41 0 0 1 1.51,1.48c0.13,0.13 0.26,0.26 0.38,0.4c0.42,0.42 0.81,0.86 1.13,1.22a0.47,0.47 0 0 1 0.1,0.1a3.32,3.32 0 0 0 0.25,0.27l0.65,0.72z"/>
  <path id="svg_72" opacity="0.1" d="m364.309998,136.31c-6.81,0.53 -19.36,-1.13 -24.85,-1.94c-1.56,-0.23 -3.09,-0.51 -4.63,-0.85c-5.89,-1.28 -24,-4.87 -35,-3.21c-13.29,2 -50.79,-1.64 -50.79,-1.64s-23.12,-4.73 -32.41,-8.55c-3.41,-1.41 -9.11,-1.85 -14.78,-1.15a41.15,41.15 0 0 0 -4.3,0.77c-7.74,1.83 -14.27,6 -13.14,13.11a16.7,16.7 0 0 1 -1.2,-1.63c-0.49,-6.5 1.53,-10.37 4.33,-12.65l0,0l0.66,-0.27a80.76,80.76 0 0 1 10.42,-2.23c0.55,-0.09 1.12,-0.17 1.7,-0.24c9.95,-1.34 24.34,-1.64 36.48,4.47c0,0 11.28,5.29 18.93,5.29s69.9,0.55 84.47,4.73a62,62 0 0 0 8.85,1.87a36,36 0 0 0 15.8,-1.49a18.72,18.72 0 0 1 -0.54,5.61z"/>
  <path id="svg_73" opacity="0.1" d="m369.319998,128.31s-3.82,4.92 -7.27,4.92s-16.88,-0.55 -23.88,-2.73s-41.32,-3.83 -41.32,-3.83s-48.6,0.18 -50.24,-1.46s-30.22,-10.38 -33.13,-9.83c-0.61,0.12 -2.1,0.38 -4.09,0.71l-2.28,0.37a40.6,40.6 0 0 0 -11.7,1.66c-4.87,0.57 -9.15,0.86 -10.51,0.36l0,-0.83a24,24 0 0 1 3.27,-1.58a88.44,88.44 0 0 1 20.7,-3.22c8.73,-0.32 18.94,0.7 27.91,5.22c0,0 11.28,5.29 18.93,5.29s69.9,0.54 84.47,4.73a63.32,63.32 0 0 0 8.85,1.86a36.8,36.8 0 0 0 19.29,-2.77a0.47,0.47 0 0 1 0.1,0.1a3.32,3.32 0 0 0 0.25,0.27l0.65,0.76z"/>
  <path id="svg_74" fill="#fed253" d="m184.549998,132.68s-12.2,-9.29 3.64,-15.48c0,0 27.67,-8.55 48.61,2c0,0 11.28,5.27 18.93,5.27s69.9,0.55 84.47,4.74a63,63 0 0 0 8.85,1.86a37.67,37.67 0 0 0 22.47,-4.27c1,-0.55 1.9,-0.83 2.17,-0.51c0.91,1.1 0.19,7.47 -7.82,8.74c-6.25,1 -20.45,-0.89 -26.42,-1.76c-1.55,-0.23 -3.09,-0.52 -4.62,-0.85c-5.89,-1.28 -24,-4.87 -35.05,-3.21c-13.28,2 -50.79,-1.64 -50.79,-1.64s-23.11,-4.73 -32.4,-8.56s-35.5,-0.53 -32.04,13.67z"/>
  <path id="svg_75" opacity="0.1" d="m287.399998,35.07c-1,-1.44 -13.85,-11.73 -19.09,-15.89l9.45,-1.4a7.13,7.13 0 0 1 0.93,-0.78c6.87,7.21 8.71,18.07 8.71,18.07z"/>
  <polygon id="svg_76" opacity="0.1" points="245.72000122070312,90.26000213623047 241.52999877929688,96.44999694824219 257.5500030517578,95.91000366210938 257.9100036621094,88.98999786376953 245.72000122070312,90.26000213623047 "/>
  <polygon id="svg_77" opacity="0.1" points="343.4700012207031,97.7300033569336 345.2900085449219,103.37000274658203 355.489990234375,105.01000213623047 351.1199951171875,98.2699966430664 343.4700012207031,97.7300033569336 "/>
  <path id="svg_78" opacity="0.1" d="m168.349998,287.07c1.09,1.82 36.95,49 46.42,47.69s-46.42,-47.69 -46.42,-47.69z"/>
  <path id="svg_79" opacity="0.1" d="m288.499998,330.19s8.74,8.38 7.46,11.65s-7.46,-11.65 -7.46,-11.65z"/>
  <path id="svg_80" opacity="0.1" d="m193.109998,387.72s-7.65,35.86 -3.64,37s3.64,-37 3.64,-37z"/>
  <path id="svg_81" opacity="0.1" d="m291.409998,526.98c1.27,3.64 11.83,27.31 14.2,28.58s-14.2,-28.58 -14.2,-28.58z"/>
  <path id="svg_82" opacity="0.1" d="m414.109998,429.77c-0.37,1.27 -9.47,8.74 -7.47,11.47s7.47,-11.47 7.47,-11.47z"/>
  <path id="svg_83" opacity="0.1" d="m343.469998,496.21c-0.18,0.92 -2,20 1.46,23.67s-1.46,-23.67 -1.46,-23.67z"/>
  <path id="svg_84" opacity="0.1" d="m436.749998,595.33c-2.64,1.47 -5.37,2.89 -8.15,4.25c-3,1.46 -6,2.85 -9.06,4.16c-1.22,0.53 -2.44,1.05 -3.65,1.55q-2.76,1.14 -5.46,2.19c-5.47,2.14 -10.74,4 -15.43,5.57c-1.82,0.61 -3.56,1.17 -5.18,1.69c-8.16,2.59 -13.58,4 -13.58,4a14.72,14.72 0 0 0 -3.77,-0.31c-0.35,0 -0.71,0 -1.08,0a47.44,47.44 0 0 0 -5.05,0.64c-11.17,2 -26.95,7.61 -36.46,11.28c-5,1.91 -8.25,3.28 -8.25,3.28l-6.36,1.92l-1.06,0.32c-6.89,2.1 -16.58,5.08 -20.07,6.32c-5.64,2 -54.61,12.19 -54.61,12.19a81.35,81.35 0 0 1 -13.66,2.5a249.29,249.29 0 0 1 -34.22,0.78c-11.46,0.74 -30,-1.78 -40.79,-3.48l-1.72,-0.27c-4.17,-0.68 -6.82,-1.17 -6.82,-1.17l1.4,-1.93l28.71,-39.61l0.17,-0.24l26.75,-36.89l1,-1.34l2.43,-3.35s1.46,-2 7.08,-2.13c0.66,0 1.38,0 2.17,0a58.61,58.61 0 0 1 13.87,2.83l1.3,0.39c19.37,5.55 49.31,4.16 49.31,4.16s18.63,-3 33.27,-4.8l1.09,-0.14a134.29,134.29 0 0 1 14.43,-1.25c8.92,0.18 28.22,-4.55 28.22,-4.55c4.15,-0.89 5.9,-1.64 8.24,-3.31c0.31,-0.22 0.64,-0.46 1,-0.72c1,-0.75 2.15,-1.67 3.63,-2.81c2.7,-2.07 6.49,-4.88 12.45,-8.82c0.52,-0.34 1.07,-0.68 1.66,-1s1.34,-0.75 2.06,-1.11a78.09,78.09 0 0 1 18.12,-6a106.22,106.22 0 0 1 15.77,-2.17l0.79,0c15,-0.8 30.32,1.77 39.28,10.2a24.59,24.59 0 0 1 4.06,5a22.8,22.8 0 0 1 1.46,2.72a25.51,25.51 0 0 1 1.81,5.6q0.11,0.54 0.18,1.08c0,0.11 0,0.21 0,0.32c0,0.29 0.06,0.58 0.08,0.87c0.8,11.97 -11.62,22.79 -27.36,31.59z"/>
  <path id="svg_85" fill="#ffa2a2" d="m142.319998,650.59s32.4,6 49.33,4.91c0,0 31.13,1.64 47.88,-3.27c0,0 49,-10.2 54.61,-12.2s27.49,-8.56 27.49,-8.56s42.6,-17.84 54.61,-14.93c0,0 94.3,-24.39 87.56,-57.34s-66.26,-25.48 -85,-13.11s-16,13.66 -25.3,15.66c0,0 -19.3,4.73 -28.22,4.55s-48.79,6.19 -48.79,6.19s-31.31,1.46 -50.6,-4.55s-23.12,-0.73 -23.12,-0.73l-60.45,83.38z"/>
  <path id="svg_86" opacity="0.1" d="m212.579998,565.07a0.49,0.49 0 0 1 0,0.12a6.75,6.75 0 0 1 -0.57,2.15c-3.84,9.42 -25.64,34.83 -25.64,34.83a69.59,69.59 0 0 1 -3.59,8.82a135.25,135.25 0 0 1 -10.35,17.55a237.64,237.64 0 0 1 -18.83,23.87l-0.05,0a28.61,28.61 0 0 1 -2.69,1.77c-2.35,1.4 -5.88,3.13 -9.21,3.34a9.58,9.58 0 0 1 -1.7,-0.05c0.35,0 0.69,-0.08 1,-0.14l-1.22,-0.36l-1.67,-0.52q-4.2,-1.32 -8.33,-2.89l-1.67,-0.64q-4,-1.54 -7.83,-3.31l-1.67,-0.76q-4,-1.86 -7.83,-3.93c-0.92,-0.48 -1.83,-1 -2.73,-1.49q-4.08,-2.28 -8,-4.78q-4.16,-2.65 -8.14,-5.53c-2,-3.71 -3.65,-7 -4.55,-8.77c-1.64,-3.29 -1.78,-8 -1.58,-11.41c0,-0.35 0,-0.68 0.06,-1c0.17,-2.14 0.43,-3.61 0.43,-3.61a51.4,51.4 0 0 1 -4,-6.24a7.34,7.34 0 0 1 -1.12,-3.59a4.26,4.26 0 0 0 -0.14,-1.52c-0.77,-3.16 -4.08,-8.59 -7.14,-12c-2.28,-2.51 -2.42,-11.89 -2.2,-18.54c0.13,-4 0.38,-6.94 0.38,-6.94a2.33,2.33 0 0 1 -0.95,-1.23a29.72,29.72 0 0 1 -1.62,-6.78c0,-0.33 -0.09,-0.66 -0.14,-1c-0.64,-4.59 -0.93,-9.2 -0.93,-9.2c-7.4,-5.39 -10.92,-13.8 -12.56,-21.3l-0.21,-1a63,63 0 0 1 -1.14,-14c0,-0.45 0,-0.79 0,-1s0,-0.25 0,-0.25s0.98,-21.67 3.72,-30.13c0.11,-0.36 0.23,-0.69 0.35,-1a7.49,7.49 0 0 1 0.78,-1.51c1,-1.33 1.71,-3.84 2.3,-6.81c0.41,-2.06 0.75,-4.35 1,-6.63c0.23,-1.9 0.41,-3.79 0.55,-5.54c0.39,-4.68 0.51,-8.33 0.51,-8.33l-1.85,-9.12c-0.51,-2.49 -0.9,-5 -1.17,-7.51c0,-0.33 -0.08,-0.66 -0.12,-1a84.51,84.51 0 0 1 -0.25,-13.95c0,-0.34 0,-0.67 0.06,-1a84.55,84.55 0 0 1 8.16,-30.5l0.5,-1q1,-2 2.1,-3.93c0.53,-0.95 1.09,-1.89 1.67,-2.82a82.48,82.48 0 0 1 5,-7.21c0.26,-0.34 0.53,-0.67 0.8,-1a81.48,81.48 0 0 1 10.36,-10.68c10.1,-8.68 19.37,-12.45 27.79,-12.74c36.82,-1.3 57.47,63.82 60.81,75.23c0.32,1.1 0.48,1.7 0.48,1.7s14.92,14.93 10.55,21.48a11.27,11.27 0 0 0 -1.51,4.72c-1.2,8.81 2.24,23.32 2.24,23.32s1.22,4 4.78,13.58l1.05,2.8c2.23,6 2.75,16.07 1.47,25.09c-1.23,8.64 -4.12,16.28 -8.75,18.24c-9.47,4 -6.92,8 -4.74,11.29a44.94,44.94 0 0 1 3.23,7.38c1.37,3.69 2.64,7.57 3.12,9.08c0.14,0.42 0.21,0.65 0.21,0.65a19.77,19.77 0 0 1 4.11,-1.1c1.79,-0.25 3.56,-0.07 3.9,1.46c0.18,0.82 1.21,1.79 2.66,2.76c4.3,2.96 12.26,6.06 12.26,6.06z"/>
  <path id="svg_87" fill="#ced7e7" d="m210.399998,565.07l0,0a6.59,6.59 0 0 1 -0.57,2.2c-3.82,9.43 -25.64,34.9 -25.64,34.9a71.1,71.1 0 0 1 -3.59,8.82a127.4,127.4 0 0 1 -8.17,14.27a235.15,235.15 0 0 1 -20.78,26.9l-0.23,0.25s-0.88,0.67 -2.28,1.53a26,26 0 0 1 -8.15,3.42l-1.22,-0.36l-1.67,-0.52q-4.2,-1.32 -8.33,-2.89l-1.67,-0.64q-4,-1.54 -7.83,-3.31l-1.67,-0.76q-4,-1.86 -7.83,-3.93c-0.92,-0.48 -1.83,-1 -2.73,-1.49q-4.08,-2.28 -8,-4.78q-4.16,-2.65 -8.14,-5.53q-1.84,-1.32 -3.64,-2.71c-1.35,-2.56 -2.43,-4.72 -3.1,-6.06c-1.64,-3.29 -1.78,-8 -1.58,-11.41c0,-0.35 0,-0.68 0.06,-1c0.17,-2.14 0.43,-3.61 0.43,-3.61s-0.81,-1.09 -1.79,-2.57c-0.55,-0.82 -1.14,-1.77 -1.67,-2.71c-1,-1.76 -1.78,-3.54 -1.63,-4.55a2.23,2.23 0 0 0 0,-0.52a4.85,4.85 0 0 0 -0.15,-1c-0.77,-3.16 -4.09,-8.59 -7.15,-12c-2.28,-2.51 -2.42,-11.89 -2.21,-18.54c0,-0.34 0,-0.67 0,-1c0.14,-3.45 0.35,-5.94 0.35,-5.94c-1.13,-0.49 -2,-4.12 -2.56,-8l-0.15,-1c-0.64,-4.59 -0.93,-9.2 -0.93,-9.2c-7.4,-5.39 -10.92,-13.8 -12.55,-21.3a61.06,61.06 0 0 1 -1.3,-16c0,-0.16 0,-0.25 0,-0.25s0.86,-21.78 3.6,-30.25c0.11,-0.36 0.23,-0.69 0.35,-1a7.49,7.49 0 0 1 0.89,-1.46c1.52,-2.12 2.53,-7.22 3.19,-12.44l0.12,-1c0.83,-7 1.06,-13.87 1.06,-13.87l-1.86,-9.12q-0.76,-3.75 -1.17,-7.51c-0.05,-0.33 -0.08,-0.67 -0.12,-1a84.53,84.53 0 0 1 -0.25,-13.95c0,-0.34 0,-0.67 0.07,-1a84.35,84.35 0 0 1 8.16,-30.5c0.16,-0.34 0.32,-0.67 0.5,-1a78.35,78.35 0 0 1 4.28,-7.56c0.54,-0.85 1.09,-1.69 1.67,-2.52c0.91,-1.32 1.86,-2.62 2.85,-3.88l0.8,-1a81.58,81.58 0 0 1 10.27,-10.65c11,-9.43 21,-13.07 30,-12.74c35.45,1.27 55.35,64.05 58.62,75.23c0.32,1.1 0.48,1.7 0.48,1.7s14.93,14.93 10.56,21.48a11.27,11.27 0 0 0 -1.51,4.72c-1.21,8.81 2.24,23.32 2.24,23.32s1.22,4 4.78,13.58c0.32,0.89 0.67,1.82 1,2.8c2.23,6 2.75,16.07 1.47,25.09c-1.23,8.65 -4.11,16.28 -8.75,18.24c-9.46,4 -6.92,8 -4.73,11.29a44.94,44.94 0 0 1 3.23,7.38c1.73,4.71 3.32,9.73 3.32,9.73a19.46,19.46 0 0 1 2,-0.65a10.23,10.23 0 0 1 4.32,-0.45a1.91,1.91 0 0 1 1.71,1.46c0.27,1.2 2.34,2.69 4.85,4.1a92.62,92.62 0 0 0 10.07,4.72z"/>
  <path id="svg_88" opacity="0.1" d="m78.779998,468.91c3.46,-0.18 40.6,-14.56 48.25,-9.65s55,36.77 55,36.77s-29.67,-38.77 -55.52,-47.87s-47.73,20.75 -47.73,20.75z"/>
  <path id="svg_89" opacity="0.1" d="m132.169998,527.53s37.14,7.46 42.78,12.56l-42.78,-12.56z"/>
  <path id="svg_90" opacity="0.1" d="m125.019998,583.07c-0.54,0.55 -14,30.76 -12.92,30.76s12.56,-18 12.56,-18l0.36,-12.76z"/>
  <path id="svg_91" opacity="0.1" d="m150.329998,546.82s-10.92,3.83 -9.65,4.19s9.28,-2.55 9.65,-4.19z"/>
  <path id="svg_92" opacity="0.1" d="m139.409998,592.52c1.82,3.82 7.64,15.29 8.92,13.47s-8.92,-13.47 -8.92,-13.47z"/>
  <path id="svg_93" opacity="0.1" d="m275.729998,289.74l-1.56,2.22s-12.39,-8.73 -17.48,-13.1s-17.11,15.65 -26.58,21.11s-25.48,6.92 -25.48,6.92s-12.38,-12.38 -12,-16s-5.82,-4.73 -6.19,-7.28s-2.55,-9.83 -5.46,-13.47c-1.54,-1.92 -1.76,-7.93 -1.62,-13.16c1,-0.2 1.62,-0.31 1.62,-0.31a32.59,32.59 0 0 1 5.83,-7.65c3.28,-2.91 8.37,-20.75 8.37,-20.75c2.91,-9.83 8.73,-6.92 8.73,-6.92c0,14.93 15.3,20.39 22.94,26.58s19.66,22.21 29.13,25.49c7.77,2.65 16.86,12.9 19.75,16.32z"/>
  <path id="svg_94" fill="#ced7e7" d="m275.729998,287.55l-1.56,2.23s-12.44,-8.71 -17.53,-13.11s-17.11,15.65 -26.58,21.11s-25.48,6.93 -25.48,6.93s-12.38,-12.39 -12,-16s-5.82,-4.73 -6.19,-7.29s-2.55,-9.83 -5.46,-13.47c-1.54,-1.92 -1.76,-7.93 -1.62,-13.16l1.62,-0.3a32.59,32.59 0 0 1 5.83,-7.65c3.28,-2.92 8.37,-20.75 8.37,-20.75c2.91,-9.83 8.73,-6.93 8.73,-6.93c0,14.93 15.3,20.4 22.94,26.59s19.66,22.2 29.13,25.48c7.82,2.69 16.91,12.9 19.8,16.32z"/>
  <path id="svg_95" opacity="0.1" d="m276.659998,290.51s-10.73,5.82 -19.11,6.37a15.75,15.75 0 0 1 -3.28,-0.19l0,0s9.25,-6.91 17.84,-8.32l4.55,2.14z"/>
  <path id="svg_96" opacity="0.1" d="m298.509998,320.18s-13.53,-5.27 -18,2.66c0.15,-3.64 0.21,-6.66 0.21,-6.66l14.75,-2.92s1.42,2.63 3.08,6.17c-0.04,0.47 -0.04,0.75 -0.04,0.75z"/>
  <path id="svg_97" fill="#63667e" d="m254.269998,296.69s16.21,-9.73 24,-8.91c8.17,0.85 24,1.45 24,1.45s-5.46,12.38 -4.73,14.93s0.91,14.93 0.91,14.93s-16.38,-6.37 -19.11,5.46c0,0 -8.92,-13.29 -14.93,-17.3a40.88,40.88 0 0 1 -10.14,-10.56z"/>
  <path id="svg_98" opacity="0.1" d="m345.839998,307.99c-4.73,0 -21.48,-10.57 -25.12,-17.48s-8.74,0.72 -13.47,3.28c-3,1.64 -14.89,-1.79 -21.3,-4.28c3.25,-2.21 10.45,-8.43 12.56,-9.92c2.54,-1.83 5.1,-31.32 5.1,-31.32c9.1,-4.73 18.93,38.23 18.93,38.23s17.12,5.1 18.57,8.74c0.28,0.72 1.57,2 3.51,3.55c2,5.04 3.1,9.2 1.22,9.2z"/>
  <path id="svg_99" fill="#ced7e7" d="m345.839998,305.8c-4.73,0 -21.48,-10.56 -25.12,-17.47s-8.74,0.72 -13.47,3.27c-3,1.64 -12.53,-1.53 -18.94,-4c3.25,-2.2 8.09,-8.68 10.2,-10.18c2.54,-1.82 5.1,-31.31 5.1,-31.31c9.1,-4.73 18.93,38.23 18.93,38.23s17.12,5.1 18.57,8.74c0.28,0.72 1.57,2 3.51,3.55c2,5.01 3.1,9.17 1.22,9.17z"/>
  <path id="svg_100" fill="#ffd666" d="m410.529998,624.77l158.31,-132a8.48,8.48 0 0 1 5.66,-2l59.06,1.55s4.09,3 -1.91,9.56l-149.34,122.55a9.5,9.5 0 0 1 -5.7,2.14l-64.58,2.14a2.23,2.23 0 0 1 -1.5,-3.94z"/>
  <path id="svg_101" fill="#ffa2a2" d="m487.109998,608.53s34.58,49.52 73,3.46s27.31,-70.26 15.66,-71.54s-77.2,49.15 -88.66,68.08z"/>
  <path id="svg_102" opacity="0.1" fill="#ffd666" d="m720.339998,54.67s44.57,-86.5 97.25,-41.89c0,0 11.5,4.19 10.63,16.35c0,0 -4.43,-2.43 -7.95,6.86a44.88,44.88 0 0 1 -5,9.33a22,22 0 0 1 -11.1,8.38l0,0s-23.64,17.71 -67.43,4.05c0,0 -12.38,1.78 -14.38,0.24l14.39,-10.52s7.31,10.85 18,12.09c0,0 -18,-11.3 -15.94,-13.75c0.42,-0.5 7.88,-5.23 7.88,-5.23s12.79,18.81 29.37,20.2c0,0 -23.23,-10.59 -26.56,-22l11.67,-6.51s12.54,20.55 31.37,22.85c0,0 -23.9,-11.91 -28.72,-24.1l12.35,-4.82s12.63,19.8 28.3,21.61c0,0 -26.22,-16.55 -25.4,-22.53c0,0 11.61,-3.74 15.17,-3.25c0,0 9.39,14 18.59,14.25c0,0 -16.35,-12.92 -15.27,-14.91c0,0 16.42,-0.85 25,3.12c0,0 -12.2,-6.79 -25,-5.69c0,0 5.79,-6.81 13.34,-8.31c0,0 -9.05,-3.72 -17.32,8.56c0,0 -12.77,1.17 -14.35,2.59c0,0 6.46,-13.28 14.41,-18.93c0,0 -11.85,2.09 -17.72,20.09l-12.52,4.57s7.61,-18 14.32,-23.56c0,0 -11.76,4 -17.38,25l-11.52,6.26s5.37,-16 11.5,-23.81c0,0 -10.11,6.06 -14.74,25.72l-7.2,5.07s4.13,-11.62 5.62,-14.85s0.74,-3.9 0.74,-3.9a41.87,41.87 0 0 0 -9.43,20.77s-14.14,11.4 -14.97,10.6z"/>
  <path id="svg_103" opacity="0.1" fill="#ffd666" d="m904.669998,100.93s20.14,-39.09 43.94,-18.93c0,0 5.2,1.89 4.8,7.38c0,0 -2,-1.09 -3.59,3.11a20,20 0 0 1 -2.24,4.21a10,10 0 0 1 -5,3.79l0,0s-10.69,8 -30.48,1.83c0,0 -5.59,0.8 -6.49,0.11l6.5,-4.76s3.3,4.91 8.14,5.46c0,0 -8.12,-5.1 -7.2,-6.21c0.18,-0.22 3.55,-2.36 3.55,-2.36s5.78,8.5 13.28,9.13c0,0 -10.5,-4.79 -12,-10l5.28,-2.93s5.66,9.29 14.17,10.33c0,0 -10.8,-5.38 -13,-10.89l5.58,-2.18s5.7,8.95 12.78,9.77c0,0 -11.85,-7.48 -11.47,-10.18c0,0 5.24,-1.69 6.85,-1.47c0,0 4.24,6.33 8.4,6.43c0,0 -7.39,-5.83 -6.9,-6.73c0,0 7.42,-0.38 11.28,1.41c0,0 -5.51,-3.07 -11.28,-2.57a12.39,12.39 0 0 1 6,-3.76s-4.09,-1.68 -7.83,3.87c0,0 -5.77,0.53 -6.48,1.17c0,0 2.92,-6 6.51,-8.55c0,0 -5.36,0.94 -8,9.08l-5.6,2.1s3.43,-8.13 6.47,-10.65c0,0 -5.32,1.81 -7.86,11.29l-5.2,2.82s2.42,-7.24 5.19,-10.76c0,0 -4.57,2.74 -6.65,11.62l-3.26,2.29s1.87,-5.25 2.54,-6.71s0.33,-1.76 0.33,-1.76a19,19 0 0 0 -4.26,9.41s-6.45,5.15 -6.8,4.79z"/>
  <path id="svg_104" opacity="0.1" fill="#ffd666" d="m686.439998,146.41s20.14,-39.09 44,-18.93c0,0 5.19,1.89 4.8,7.39c0,0 -2,-1.1 -3.59,3.1a20.42,20.42 0 0 1 -2.24,4.21a10,10 0 0 1 -5.05,3.79l0,0s-10.68,8 -30.47,1.83c0,0 -5.59,0.81 -6.49,0.11l6.5,-4.76s3.3,4.91 8.13,5.47c0,0 -8.12,-5.11 -7.2,-6.22c0.19,-0.22 3.56,-2.36 3.56,-2.36s5.78,8.5 13.27,9.13c0,0 -10.49,-4.79 -12,-10l5.28,-2.92s5.67,9.28 14.18,10.32c0,0 -10.8,-5.38 -13,-10.89l5.58,-2.18s5.71,8.95 12.79,9.77c0,0 -11.85,-7.48 -11.48,-10.18c0,0 5.25,-1.69 6.86,-1.47c0,0 4.24,6.33 8.4,6.44c0,0 -7.39,-5.84 -6.9,-6.74c0,0 7.41,-0.38 11.28,1.41c0,0 -5.52,-3.07 -11.29,-2.57a12.39,12.39 0 0 1 6,-3.76s-4.08,-1.68 -7.82,3.87c0,0 -5.77,0.53 -6.48,1.17c0,0 2.91,-6 6.51,-8.55c0,0 -5.36,0.94 -8,9.08l-5.67,2.1s3.44,-8.13 6.47,-10.64c0,0 -5.31,1.8 -7.85,11.28l-5.21,2.82s2.43,-7.24 5.2,-10.76c0,0 -4.57,2.74 -6.66,11.62l-3.26,2.29s1.87,-5.25 2.54,-6.71s0.34,-1.76 0.34,-1.76a18.9,18.9 0 0 0 -4.26,9.41s-6.42,5.15 -6.77,4.79z"/>
 </g>
</svg>