<svg width="1001.82" height="836.94" xmlns="http://www.w3.org/2000/svg" xmlns:xlink="http://www.w3.org/1999/xlink">
 <defs>
  <linearGradient y2="0" x2="0.5" y1="1" x1="0.5" id="ea2a8d95-0699-482c-91e0-ca0cacc7c232">
   <stop stop-opacity="0.25" stop-color="gray" offset="0"/>
   <stop stop-opacity="0.12" stop-color="gray" offset="0.54"/>
   <stop stop-opacity="0.1" stop-color="gray" offset="1"/>
  </linearGradient>
  <linearGradient xlink:href="#ea2a8d95-0699-482c-91e0-ca0cacc7c232" y2="202.46" x2="408.15" y1="247.13" x1="408.15" id="b656a8ae-b549-4f4b-a44e-d2f1362afc31"/>
  <linearGradient xlink:href="#ea2a8d95-0699-482c-91e0-ca0cacc7c232" y2="289.17" x2="616.5" y1="333.84" x1="616.5" id="b10a0065-53c1-4d9e-b99d-b718a629214b"/>
  <linearGradient xlink:href="#ea2a8d95-0699-482c-91e0-ca0cacc7c232" y2="318.75" x2="829.09" y1="363.41" x1="829.09" id="bfbeeaf2-a683-44d0-8e10-e16cdf93710e"/>
  <linearGradient xlink:href="#ea2a8d95-0699-482c-91e0-ca0cacc7c232" y2="347.66" x2="886.06" y1="392.32" x1="886.06" id="fb4cfe3a-7af2-4b22-b7a9-00d134c7f93e"/>
  <linearGradient xlink:href="#ea2a8d95-0699-482c-91e0-ca0cacc7c232" y2="270.41" x2="957.49" y1="315.08" x1="957.49" id="bf81fb29-ed39-4b28-8488-01fed2cfb575"/>
  <linearGradient xlink:href="#ea2a8d95-0699-482c-91e0-ca0cacc7c232" y2="333.07" x2="943.03" y1="377.73" x1="943.03" id="b71406f3-4257-4384-ba99-31ba324d4435"/>
  <linearGradient xlink:href="#ea2a8d95-0699-482c-91e0-ca0cacc7c232" y2="202.46" x2="471.08" y1="247.13" x1="471.08" id="eb943baf-c412-4f05-8efc-9ee158cc9537"/>
  <linearGradient xlink:href="#ea2a8d95-0699-482c-91e0-ca0cacc7c232" y2="310.73" x2="255.53" y1="355.4" x1="255.53" id="b69c398c-54a9-47dd-afd9-5e0a5757f9a8"/>
  <linearGradient xlink:href="#ea2a8d95-0699-482c-91e0-ca0cacc7c232" y2="266.84" x2="441.44" y1="311.5" x1="441.44" id="e3af3aa4-a222-4e60-9637-0eaa2901e9f3"/>
  <linearGradient xlink:href="#ea2a8d95-0699-482c-91e0-ca0cacc7c232" y2="240.15" x2="681.87" y1="284.81" x1="681.87" id="ad37da05-9f52-438b-b0f9-c6be067943d0"/>
  <linearGradient xlink:href="#ea2a8d95-0699-482c-91e0-ca0cacc7c232" y2="208.83" x2="925.27" y1="253.49" x1="925.27" id="a265d039-0f6d-45fd-ab7e-3e2cd81e15a7"/>
  <linearGradient xlink:href="#ea2a8d95-0699-482c-91e0-ca0cacc7c232" y2="202.46" x2="742.73" y1="247.13" x1="742.73" id="babc5ba7-c6fe-48e2-92bf-72856f98d351"/>
  <linearGradient xlink:href="#ea2a8d95-0699-482c-91e0-ca0cacc7c232" y2="289.17" x2="740.12" y1="333.84" x1="740.12" id="ec9e310d-9a5b-45f6-8698-da6dc9c57588"/>
  <linearGradient xlink:href="#ea2a8d95-0699-482c-91e0-ca0cacc7c232" y2="224.03" x2="533.02" y1="268.69" x1="533.02" id="b3661b6d-d573-4e01-a978-b086bfcbdc08"/>
  <linearGradient xlink:href="#ea2a8d95-0699-482c-91e0-ca0cacc7c232" y2="238.4" x2="287.92" y1="283.06" x1="287.92" id="b8b14048-6787-4a2b-bd44-c1ec7ea7272f"/>
  <linearGradient xlink:href="#ea2a8d95-0699-482c-91e0-ca0cacc7c232" y2="289.17" x2="310.98" y1="333.84" x1="310.98" id="fe094bed-fd2f-41a8-9bb1-a3b86eba6c14"/>
  <linearGradient xlink:href="#ea2a8d95-0699-482c-91e0-ca0cacc7c232" y2="296.42" x2="502.32" y1="341.08" x1="502.32" id="b9692457-795f-4873-987a-fd1d41e3d8dd"/>
  <linearGradient xlink:href="#ea2a8d95-0699-482c-91e0-ca0cacc7c232" y2="208.83" x2="839.93" y1="253.49" x1="839.93" id="b4b795d7-efc6-49d3-84fc-f260d7c9dd5c"/>
  <linearGradient xlink:href="#ea2a8d95-0699-482c-91e0-ca0cacc7c232" y2="270.41" x2="880.75" y1="315.08" x1="880.75" id="e5745201-e903-41b8-9c5c-e2d7c4777962"/>
  <linearGradient xlink:href="#ea2a8d95-0699-482c-91e0-ca0cacc7c232" y2="202.46" x2="620.53" y1="247.13" x1="620.53" id="b3cc34d3-f838-4603-bb51-088152e015c9"/>
  <linearGradient xlink:href="#ea2a8d95-0699-482c-91e0-ca0cacc7c232" y2="333.07" x2="676.65" y1="377.73" x1="676.65" id="b3771d5f-6b05-4923-81a0-f9623be616e8"/>
  <linearGradient xlink:href="#ea2a8d95-0699-482c-91e0-ca0cacc7c232" gradientTransform="matrix(-1, 0, 0, 1, 1188.16, 0)" y2="245.95" x2="378.28" y1="850.01" x1="378.28" id="a5464100-bfa1-4039-8123-dc9b79f8f7ac"/>
  <linearGradient xlink:href="#ea2a8d95-0699-482c-91e0-ca0cacc7c232" gradientTransform="matrix(-1, 0, 0, 1, 1014.03, 0)" y2="228.24" x2="499.11" y1="829.74" x1="499.11" id="f7a9ddad-0622-4a2a-ab1d-dd2f922ca980"/>
 </defs>
 <title>scrum board</title>
 <g>
  <title>background</title>
  <rect fill="none" id="canvas_background" height="838.94" width="1003.82" y="-1" x="-1"/>
 </g>
 <g>
  <title>Layer 1</title>
  <path stroke="null" id="svg_1" opacity="0.1" fill="#ffd666" d="m993.82013,538.539999a266.602358,320.15 0 0 1 -5.887486,67.29q-1.981926,11.11 -4.605063,21.78q-3.247694,13.3 -7.428059,25.79q-2.123492,6.36 -4.48848,12.5a158.803904,190.7 0 0 1 -10.13447,67.57c-11.949848,38 -33.709397,69 -60.940061,87.11a114.085657,137 0 0 1 -55.502256,17.36l-645.641545,0c-34.508829,0 -66.49445,-14.73 -92.717497,-39.83a170.936955,205.27 0 0 1 -21.293214,-24.35a181.113062,217.49 0 0 1 -23.408378,-40.29c-15.10594,-33.35 -23.808094,-72.61 -23.808094,-114.63c-15.780461,-38.37 -24.965606,-84.37 -24.965606,-133.87c0,-62.39 14.62295,-119.29 38.647557,-162.38a184.918694,222.06 0 0 1 16.413345,-25.33a160.569317,192.82 0 0 1 18.770005,-21.32a142.823584,171.51 0 0 1 16.65484,-13.86c2.406624,-1.7 4.821576,-3.3 7.278165,-4.79q3.231039,-2 6.545352,-3.73q3.972179,-2.1 8.044288,-3.85t8.035961,-3.07a113.660959,136.49 0 0 1 11.866574,-3.17c3.330968,-0.69 6.661936,-1.2 9.992904,-1.53q3.972179,-0.39 8.010978,-0.45c0.491318,0 0.965981,0 1.457299,0c2.964562,0 5.912468,0.17 8.835393,0.44c0.308115,-0.86 0.641211,-1.72 0.949326,-2.58c1.165839,-3.08 2.373315,-6.14 3.589118,-9.16a0.29146,0.35 0 0 0 0,-0.08c0.208186,-0.52 0.416371,-1 0.632884,-1.55c0.982636,-2.46 2.006908,-4.9 3.056163,-7.32c0.48299,-1.12 0.957653,-2.23 1.448971,-3.34c0.108256,-0.26 0.216513,-0.51 0.341424,-0.77c0.499645,-1.15 1.007618,-2.29 1.523918,-3.43q3.855596,-8.53 8.019306,-16.8c0.241495,-0.47 0.466336,-0.94 0.707831,-1.4c0.433026,-0.85 0.832742,-1.7 1.315732,-2.54c1.149184,-2.24 2.331678,-4.47 3.522499,-6.68c0.832742,-1.56 1.665484,-3.12 2.564845,-4.66q3.247694,-5.85 6.661936,-11.55t7.094962,-11.4c0.333097,-0.52 0.666194,-1 1.015945,-1.55l3.555808,-5.37l0,0l0.491318,-0.73l0,0l1.29075,-1.89c1.906979,-2.79 3.863923,-5.55 5.829194,-8.28a335.411832,402.78 0 0 1 31.894019,-38.55c0.441353,-0.49 0.891034,-1 1.332387,-1.42c2.115165,-2.21 4.263639,-4.39 6.412114,-6.53a336.053043,403.55 0 0 1 36.982073,-32c0.882707,-0.68 1.782068,-1.34 2.689757,-2a336.311193,403.86 0 0 1 35.383209,-22.6q9.992904,-5.52 20.193994,-10.22c4.513462,-2.06 9.043578,-4 13.631987,-5.84q10.642443,-4.22 21.551364,-7.65a337.210555,404.94 0 0 1 65.153736,-12.32q9.992904,-0.72 20.210649,-0.72a338.443013,406.42 0 0 1 97.422489,17.09a3.397587,4.08 0 0 0 3.022854,2.18l2.806341,0c1.215803,0.46 2.423279,0.94 3.639083,1.42q10.184435,4.06 20.07741,8.89l1.665484,0.82a337.718527,405.55 0 0 1 87.071506,62.86q2.922924,2.89 5.762575,5.87q3.447552,-3.07 7.011688,-5.87a128.242271,154 0 0 1 29.046042,-17.18a115.476336,138.67 0 0 1 65.153736,-3.54c27.688672,8.15 52.754207,28.37 72.998166,57.12a195.311314,234.54 0 0 1 21.892788,38.56c0.458008,1 0.916016,2 1.357369,3a226.131096,271.55 0 0 1 13.940101,38.55c0.141566,0.48 0.283132,1 0.408044,1.44a248.640113,298.58 0 0 1 8.577243,38.53c0.099929,0.66 0.216513,1.33 0.316442,2a264.687052,317.85 0 0 1 4.097091,38.55c0,0.47 0,0.94 0.066619,1.41q0.524627,10.06 0.532955,20.34q0,9.2 -0.424698,18.22c0,0.67 -0.066619,1.35 -0.108256,2c-0.074947,1.75 -0.183203,3.5 -0.29146,5.24a171.061866,205.42 0 0 1 17.804024,23.28q3.639083,5.53 7.044998,11.45a208.093904,249.89 0 0 1 18.153776,38.55c14.081668,36.95 22.17592,80.33 22.17592,126.76z"/>
  <path id="svg_2" opacity="0.1" fill="#ffd666" d="m975.82,798.299999c0,14.85 -45.92,28.4 -121.38,38.64l-708,0c-75.45,-10.24 -121.37,-23.79 -121.37,-38.64c0,-11.31 26.64,-21.87 72.7,-30.79l0,0l1.3,-0.25c13,-2.49 27.53,-4.85 43.41,-7.06l1.21,-0.17l0,0q18.9,-2.61 40.21,-4.93l1.34,-0.14q8.22,-0.9 16.78,-1.74l0,0l2.2,-0.21c41.55,-4 88.78,-7.24 140,-9.41l0.06,0q10.76,-0.45 21.75,-0.84q12.22,-0.45 24.74,-0.8c6.37,-0.19 12.82,-0.35 19.29,-0.5l0.15,0c29.19,-0.69 59.35,-1.05 90.19,-1.05c76.26,0 148.34,2.19 212.21,6.08l0.18,0c9.82,0.6 19.46,1.23 28.86,1.91l8,0.59q15.91,1.2 31,2.54l0,0c118.33,10.53 195.17,27.56 195.17,46.77z"/>
  <path id="svg_3" opacity="0.03" stroke-miterlimit="10" stroke="#fff" fill="none" d="m219.91,105.319999l0,30.33a4.1,4.1 0 0 1 -4.1,4.11l-55.52,0a402.78,402.78 0 0 1 38.3,-38.55l17.23,0a4.1,4.1 0 0 1 4.09,4.11z"/>
  <path stroke="null" id="svg_4" fill="#fff" d="m899.31,106.259999l0,455.62a11.699101,12 0 0 1 -11.699101,12l-793.09182,0a11.699101,12 0 0 1 -11.699101,-12l0,-318.41c3.8997,-0.69 7.799401,-1.2 11.699101,-1.53q4.650393,-0.39 9.378779,-0.45c0.575206,0 1.130913,0 1.706119,0c3.470733,0 6.921968,0.17 10.343955,0.44c0.360722,-0.86 0.750692,-1.72 1.111415,-2.58c1.364895,-3.08 2.778537,-6.14 4.201927,-9.16a0.341224,0.35 0 0 0 0,-0.08c0.243731,-0.52 0.487463,-1 0.740943,-1.55c1.150412,-2.46 2.349569,-4.9 3.577975,-7.32c0.565457,-1.12 1.121164,-2.23 1.69637,-3.34c0.12674,-0.26 0.253481,-0.51 0.399719,-0.77c0.584955,-1.15 1.179659,-2.29 1.784113,-3.43q4.513903,-8.53 9.388529,-16.8c0.282728,-0.47 0.545958,-0.94 0.828686,-1.4c0.506961,-0.85 0.974925,-1.7 1.540382,-2.54c1.345397,-2.24 2.72979,-4.47 4.123933,-6.68c0.974925,-1.56 1.94985,-3.12 3.002769,-4.66q3.802208,-5.85 7.799401,-11.55t8.306362,-11.4c0.38997,-0.52 0.77994,-1 1.189409,-1.55l4.16293,-5.37l0,0l0.575206,-0.73l0,0l1.511134,-1.89c2.232578,-2.79 4.523652,-5.55 6.824476,-8.28a392.680332,402.78 0 0 1 37.339631,-38.55c0.51671,-0.49 1.04317,-1 1.55988,-1.42c2.47631,-2.21 4.991617,-4.39 7.506923,-6.53l505.206187,0q3.421987,2.89 6.746482,5.87q4.03619,-3.07 8.208869,-5.87l142.339065,0a11.699101,12 0 0 1 11.689352,11.91z"/>
  <path stroke="null" id="svg_5" fill="#3f3d56" d="m851.340001,180.559999l0,11.34l-709.550012,0c1.342168,-2.24 2.72324,-4.47 4.123764,-6.68c0.972586,-1.56 1.945172,-3.12 2.985839,-4.66l702.440409,0z"/>
  <rect id="svg_6" fill="#3f3d56" transform="rotate(90 1061.8000488281252,-456.2000122070312) " height="11.34" width="431.85" y="-89.260012" x="1643.160049"/>
  <rect id="svg_7" fill="#3f3d56" transform="rotate(90 853.1699829101562,-247.57000732421866) " height="11.34" width="431.85" y="119.369993" x="1225.899983"/>
  <rect id="svg_8" fill="#3f3d56" transform="rotate(90 644.5399780273439,-38.939998626708935) " height="11.34" width="431.85" y="328.000001" x="808.639978"/>
  <path id="svg_9" fill="url(#ea2a8d95-0699-482c-91e0-ca0cacc7c232)" d="m147.4,216.069999l0,44.66l-46.12,0l0,-31.6s0,-0.05 0,-0.08c0.25,-0.52 0.5,-1 0.76,-1.55c1.19,-2.46 2.41,-4.9 3.68,-7.32c0.57,-1.12 1.14,-2.23 1.73,-3.34c0.13,-0.26 0.27,-0.51 0.41,-0.77l39.54,0z"/>
  <path id="svg_10" fill="#7cfcff" d="m146.61,216.839999l0,43.12l-44.53,0l0,-32.49c1.19,-2.46 2.41,-4.9 3.68,-7.32c0.57,-1.12 1.14,-2.23 1.73,-3.34l39.12,0.03z"/>
  <rect id="svg_11" fill="url(#b656a8ae-b549-4f4b-a44e-d2f1362afc31)" height="44.66" width="46.13" y="202.46" x="288.08"/>
  <rect id="svg_12" fill="#7cfcff" height="43.12" width="44.54" y="203.23" x="288.88"/>
  <rect id="svg_13" fill="url(#b10a0065-53c1-4d9e-b99d-b718a629214b)" height="44.66" width="46.13" y="289.17" x="496.43"/>
  <rect id="svg_14" fill="#7cfcff" height="43.12" width="44.54" y="289.94" x="497.23"/>
  <rect id="svg_15" fill="url(#bfbeeaf2-a683-44d0-8e10-e16cdf93710e)" height="44.66" width="46.13" y="318.75" x="709.03"/>
  <rect id="svg_16" fill="#7cfcff" height="43.12" width="44.54" y="319.52" x="709.82"/>
  <rect id="svg_17" fill="url(#fb4cfe3a-7af2-4b22-b7a9-00d134c7f93e)" height="44.66" width="46.13" y="347.66" x="765.99"/>
  <rect id="svg_18" fill="#7cfcff" height="43.12" width="44.54" y="348.43" x="766.79"/>
  <rect id="svg_19" fill="url(#bf81fb29-ed39-4b28-8488-01fed2cfb575)" height="44.66" width="46.13" y="270.41" x="837.43"/>
  <rect id="svg_20" fill="#7cfcff" height="43.12" width="44.54" y="271.18" x="838.22"/>
  <rect id="svg_21" fill="url(#b71406f3-4257-4384-ba99-31ba324d4435)" height="44.66" width="46.13" y="333.07" x="822.97"/>
  <rect id="svg_22" fill="#7cfcff" height="43.12" width="44.54" y="333.84" x="823.76"/>
  <rect id="svg_23" fill="url(#eb943baf-c412-4f05-8efc-9ee158cc9537)" height="44.66" width="46.13" y="202.46" x="351.01"/>
  <rect id="svg_24" fill="#7cfcff" height="43.12" width="44.54" y="203.23" x="351.81"/>
  <rect id="svg_25" fill="url(#b69c398c-54a9-47dd-afd9-5e0a5757f9a8)" height="44.66" width="46.13" y="310.73" x="135.47"/>
  <rect id="svg_26" fill="#ffffa5" height="43.12" width="44.54" y="311.5" x="136.26"/>
  <rect id="svg_27" fill="url(#e3af3aa4-a222-4e60-9637-0eaa2901e9f3)" height="44.66" width="46.13" y="266.84" x="321.37"/>
  <rect id="svg_28" fill="#ffffa5" height="43.12" width="44.54" y="267.61" x="322.17"/>
  <rect id="svg_29" fill="url(#ad37da05-9f52-438b-b0f9-c6be067943d0)" height="44.66" width="46.13" y="240.15" x="561.81"/>
  <rect id="svg_30" fill="#ffffa5" height="43.12" width="44.54" y="240.92" x="562.6"/>
  <rect id="svg_31" fill="url(#a265d039-0f6d-45fd-ab7e-3e2cd81e15a7)" height="44.66" width="46.13" y="208.83" x="805.2"/>
  <rect id="svg_32" fill="#ffffa5" height="43.12" width="44.54" y="209.6" x="806"/>
  <rect id="svg_33" fill="url(#babc5ba7-c6fe-48e2-92bf-72856f98d351)" height="44.66" width="46.13" y="202.46" x="622.67"/>
  <rect id="svg_34" fill="#ffffa5" height="43.12" width="44.54" y="203.23" x="623.46"/>
  <rect id="svg_35" fill="url(#ec9e310d-9a5b-45f6-8698-da6dc9c57588)" height="44.66" width="46.13" y="289.17" x="620.05"/>
  <rect id="svg_36" fill="#ffffa5" height="43.12" width="44.54" y="289.94" x="620.85"/>
  <rect id="svg_37" fill="url(#b3661b6d-d573-4e01-a978-b086bfcbdc08)" height="44.66" width="46.13" y="224.03" x="412.95"/>
  <rect id="svg_38" fill="#ffffa5" height="43.12" width="44.54" y="224.79" x="413.75"/>
  <rect id="svg_39" fill="url(#b8b14048-6787-4a2b-bd44-c1ec7ea7272f)" height="44.66" width="46.13" y="238.4" x="167.85"/>
  <rect id="svg_40" fill="#ff69b4" height="43.12" width="44.54" y="239.17" x="168.65"/>
  <rect id="svg_41" fill="url(#fe094bed-fd2f-41a8-9bb1-a3b86eba6c14)" height="44.66" width="46.13" y="289.17" x="190.92"/>
  <rect id="svg_42" fill="#ff69b4" height="43.12" width="44.54" y="289.94" x="191.71"/>
  <rect id="svg_43" fill="url(#b9692457-795f-4873-987a-fd1d41e3d8dd)" height="44.66" width="46.13" y="296.42" x="382.26"/>
  <rect id="svg_44" fill="#ff69b4" height="43.12" width="44.54" y="297.19" x="383.05"/>
  <rect id="svg_45" fill="url(#b4b795d7-efc6-49d3-84fc-f260d7c9dd5c)" height="44.66" width="46.13" y="208.83" x="719.86"/>
  <rect id="svg_46" fill="#ff69b4" height="43.12" width="44.54" y="209.6" x="720.66"/>
  <rect id="svg_47" fill="url(#e5745201-e903-41b8-9c5c-e2d7c4777962)" height="44.66" width="46.13" y="270.41" x="760.68"/>
  <rect id="svg_48" fill="#ff69b4" height="43.12" width="44.54" y="271.18" x="761.48"/>
  <rect id="svg_49" fill="url(#b3cc34d3-f838-4603-bb51-088152e015c9)" height="44.66" width="46.13" y="202.46" x="500.46"/>
  <rect id="svg_50" fill="#ff69b4" height="43.12" width="44.54" y="203.23" x="501.26"/>
  <rect id="svg_51" fill="url(#b3771d5f-6b05-4923-81a0-f9623be616e8)" height="44.66" width="46.13" y="333.07" x="556.59"/>
  <rect id="svg_52" fill="#ff69b4" height="43.12" width="44.54" y="333.84" x="557.38"/>
  <path id="svg_53" fill="url(#a5464100-bfa1-4039-8123-dc9b79f8f7ac)" d="m822.12,341.969999a8.83,8.83 0 0 0 -3.52,-5.92a35.06,35.06 0 0 0 -6.12,-3.54a5,5 0 0 1 -1.78,-1.27a15.91,15.91 0 0 1 -1,-1.92c-1.2,-2.09 -3.8,-2.75 -5.84,-4c-3.64,-2.21 -5.32,-6.13 -6.83,-10.25c-0.1,-0.26 -0.18,-0.52 -0.28,-0.77c-1.47,-4.08 -2.87,-8.26 -5.92,-11.12a12.7,12.7 0 0 0 -15.88,-0.85a3.74,3.74 0 0 1 -2.24,1.11a4.23,4.23 0 0 1 -2.15,-1.16a8.77,8.77 0 0 0 -5.36,-1.48a51.08,51.08 0 0 1 -1.51,-11.15l0,-0.1s0,0 0,0a0,0 0 0 1 0,0a0,0 0 0 1 0,0l0,0a0.15,0.15 0 0 1 0,-0.07l0,0c0,-0.93 0,-1.85 0,-2.78l0.22,0l0.41,0a7.15,7.15 0 0 0 2.21,-0.25a6,6 0 0 0 0.87,-0.32l0,0c2.69,-1.27 4.32,-4.27 5.53,-7.11c0.8,-1.88 1.54,-3.81 2.17,-5.78c0.08,-0.25 0.15,-0.5 0.24,-0.76l0,0c0.11,-0.4 0.24,-0.81 0.34,-1.22c0,-0.13 0.07,-0.26 0.1,-0.39s0.07,-0.25 0.1,-0.38l0.09,-0.42l0.51,0.36l0,0l0.09,0.05l1.1,0.77c5.16,3.53 10.58,6.86 12.82,6.94l0,0a1.16,1.16 0 0 0 0.66,-0.13c1.45,-0.8 -1.33,-3.78 -4.82,-6.81c-0.29,-0.26 -0.6,-0.51 -0.91,-0.77c-2.59,-2.19 -5.38,-4.31 -7,-5.53l-1.5,-1.09c2,-1.83 3.16,-5.11 3.68,-8a62.07,62.07 0 0 0 0.94,-8.39l0,-0.14a33.85,33.85 0 0 0 -0.81,-9c-1.36,-5.72 -4.8,-11.18 -10,-13.86c-1.5,-0.78 -3.21,-1.39 -4.69,-2.23c-0.28,-0.16 -0.53,-0.33 -0.79,-0.5l0,0a6.94,6.94 0 0 1 -1.3,-1.11a4.53,4.53 0 0 1 -0.66,-0.9a2.68,2.68 0 0 1 -0.26,-0.47a6.06,6.06 0 0 0 -0.74,-1.43c-1,-1.11 -2.68,-0.78 -4.13,-0.6l-0.48,0l-0.39,0l-0.38,0c-5.19,0.12 -10.2,-2.78 -15.45,-2.78c-5.74,0 -10.63,3.33 -15.69,5.61c-1,0.47 -2,0.89 -2.89,1.32c-0.76,0.36 -1.47,0.72 -2.16,1.11l0,0a9.21,9.21 0 0 0 -0.78,0.49l0,0a11.1,11.1 0 0 0 -4.28,5a10.3,10.3 0 0 0 -2.11,4.07a10.06,10.06 0 0 0 -0.27,2.09a34.67,34.67 0 0 0 -10.37,24.7c0,0.49 0,1 0,1.44l0,0.07a34.7,34.7 0 0 0 24.69,31.76l0,0c0.39,0.12 0.79,0.24 1.2,0.34c0.1,0.34 0.24,0.68 0.34,1c0.21,0.65 0.41,1.29 0.56,1.94l0,0c0.1,0.32 0.17,0.65 0.24,1a27.07,27.07 0 0 1 0.72,6.79c0,0.2 0,0.39 0,0.6c0,0 0,0 0,0l0,0s0,0.05 0,0.07a26.36,26.36 0 0 0 -7.5,3a14.47,14.47 0 0 0 -6.31,7.77a6.23,6.23 0 0 0 -0.2,0.73a20.08,20.08 0 0 0 -5.71,-1c-1.77,-0.06 -3.75,0.13 -4.92,1.47a4.44,4.44 0 0 0 -0.91,1.89c-0.68,0.61 -0.8,1.68 -1.27,2.5c-1.46,2.56 -5.26,1.72 -8.12,2.42a5.63,5.63 0 0 0 -0.85,0.28l0,0c-2.71,1 -5,3.4 -7.88,3.42a20.13,20.13 0 0 0 -3.45,-0.19l-0.21,0.05c-1.19,0.3 -2.14,1.94 -1.22,2.76c-1.41,-0.32 -2.79,0.63 -3.69,1.77s-1.45,2.5 -2.42,3.57a3.74,3.74 0 0 0 -3.79,-1.47a13.74,13.74 0 0 0 -4,1.58a5.49,5.49 0 0 1 -1.77,0.62a7.66,7.66 0 0 1 -2.13,-0.19a17.2,17.2 0 0 0 -10.09,1.41c-2.76,1.31 -5.43,-1.1 -8.48,-1.29a4.7,4.7 0 0 1 -3.1,-1a1.34,1.34 0 0 1 -0.23,-0.25a4.51,4.51 0 0 1 -0.44,-0.77c-0.2,-0.46 -0.33,-1 -0.5,-1.43a12.15,12.15 0 0 0 -8.39,-7.76l-0.5,-0.12a8.85,8.85 0 0 0 0.42,-1.76s0,0 0,0a0,0 0 0 0 0,0a10.39,10.39 0 0 0 -6.51,-11a11,11 0 0 0 -3.8,-9.63a16.84,16.84 0 0 1 -1.82,-1.43l-0.1,-0.08a4.64,4.64 0 0 1 -0.69,-0.91s0,0 0,0a14.07,14.07 0 0 1 -1.06,-2.33c-0.89,-2.38 -1.8,-4.76 -2.69,-7.14c-1.2,-0.24 -2.13,-0.74 -3.27,-0.93c0,-0.24 0,-0.48 0,-0.73a23.72,23.72 0 0 0 -1.23,-7.17a33.1,33.1 0 0 0 -3.89,-7.72l0,0c-0.25,-0.4 -0.51,-0.79 -0.78,-1.18l0,0c-0.34,-0.53 -0.71,-1 -1.07,-1.56c-2.58,-3.59 -5.45,-7.14 -9.27,-9.31a36.14,36.14 0 0 0 -3.95,-1.82l-7,-2.87a3.29,3.29 0 0 0 -1.25,-0.34c-1.68,0 -2.13,2.31 -1.46,3.9a3.94,3.94 0 0 0 0.29,0.54c2.13,3.12 6.9,4 8.23,7.53a4.81,4.81 0 0 0 -1.83,0.39a5.3,5.3 0 0 0 -3.13,3.48a2.87,2.87 0 0 1 -0.66,1.56c-0.63,0.49 -1.58,0.21 -2.27,0.59c-1.24,0.66 -0.71,2.51 -0.84,3.91c-0.12,1.25 -0.89,2.33 -1.27,3.52a6.2,6.2 0 0 0 -0.15,2.84l0.06,0.3l0,0a3.43,3.43 0 0 0 0.09,0.44a9.06,9.06 0 0 0 1.23,2.76a22.43,22.43 0 0 0 4.56,4.62c1.14,0.94 2.3,1.89 3.52,2.75c0.35,0.24 0.69,0.47 1,0.7a1.18,1.18 0 0 0 -0.11,0.19c0,0.14 -0.11,0.28 -0.17,0.43l0,0s0,0 0,0a2.2,2.2 0 0 0 -0.12,1.24a2,2 0 0 0 0.39,0.82l0,0a7.47,7.47 0 0 0 0.88,0.9a18,18 0 0 1 5.48,9.9a6.06,6.06 0 0 1 -0.08,2.24l0,0l0,0a18.42,18.42 0 0 0 -0.89,4.54a7.14,7.14 0 0 0 0.14,1.12l0,0a23.74,23.74 0 0 0 1.58,5.17c1.86,4.72 3.83,9.6 7.54,13a42.1,42.1 0 0 0 8.46,20.83c3.89,5 9.1,8.78 14.25,12.49a26.68,26.68 0 0 0 5.26,3.3a30.26,30.26 0 0 0 5.22,1.41a268,268 0 0 0 43.65,5.1l2,0.07l0.1,0c0,0.77 0.07,1.54 0.1,2.31q0.51,11.53 0.47,23.08l0,0.73c0,0.45 0,0.89 0,1.34a11.59,11.59 0 0 1 -0.62,4.43a12.83,12.83 0 0 1 -2.08,3c-0.19,0.24 -0.4,0.49 -0.59,0.74c-3,4 -3.58,9.33 -3.48,14.47l0,0.09c0,0.77 0,1.54 0.08,2.3a157.19,157.19 0 0 0 2.46,20.49c1.18,6.42 0.68,13.34 1.6,19.84a32,32 0 0 0 1.6,6.52q1.81,4.87 3.62,9.73a8.54,8.54 0 0 1 0.72,2.87a4.8,4.8 0 0 1 -0.07,0.93l0,0l0,0c-0.32,1.73 -1.49,3.27 -2.39,4.83a16.72,16.72 0 0 0 -2.11,8.84c0,0.08 0,0.16 0,0.25l0,0a1.44,1.44 0 0 0 0.24,0.72c0.39,0.54 1.21,0.49 1.86,0.39a74.12,74.12 0 0 1 7.85,-0.73l0,0l0.28,0c-0.09,0.11 -0.19,0.22 -0.28,0.34l0,0c-0.3,0.41 -0.6,0.85 -0.89,1.33l0,0l-0.14,0.24a30,30 0 0 0 -1.73,3.54a33.47,33.47 0 0 0 -2.3,6.35a5.8,5.8 0 0 0 -0.23,1c-0.16,0.66 -0.3,1.32 -0.4,2a63.51,63.51 0 0 0 -0.72,10.4l0,0.62c0,0.22 0,0.43 0,0.65c0,0 0,0 0,0.06l0,0.11c-0.08,1.55 -0.16,3.12 -0.25,4.64c-0.29,5.56 -0.63,10.55 -1.19,12.28a10.1,10.1 0 0 0 -0.34,3.4l0,0.05a27.84,27.84 0 0 0 0.64,4.53c0.31,1.58 0.72,3.21 1.13,4.82l0,0.16c0,0.6 0.06,1.19 0.12,1.78l0,0.08a29.36,29.36 0 0 0 1.59,7.73s0,0.08 0,0.12c0,0.4 0,0.79 0,1.19a1.34,1.34 0 0 0 0,0.2l0,0c0,0.72 0.09,1.45 0.16,2.17c0.22,2.11 0.57,4.21 1,6.31c0,0.12 0,0.23 0,0.35q3,16.66 6.1,33.31c0.12,0.67 0.25,1.33 0.38,2q3.36,17.82 7,35.59c0.21,1 0.4,2 0.62,3c0.11,0.47 0.21,0.95 0.33,1.42s0.28,1.15 0.42,1.72a49.45,49.45 0 0 0 9.11,18a82.34,82.34 0 0 1 9.5,15.22c0,0.15 -0.07,0.29 -0.11,0.44l0,0c-0.22,1.06 -0.46,2.11 -0.71,3.16l-0.06,0.24c-2.66,11.29 -6.21,22.42 -7.44,34c-0.09,0.83 -0.16,1.66 -0.24,2.5c-0.36,3.79 -0.71,7.6 -2.2,11.08c-0.43,1 -0.95,1.95 -1.4,2.94a10.69,10.69 0 0 0 -1.07,3.63a2.79,2.79 0 0 0 0,0.5a0.57,0.57 0 0 0 0,0.13a0.43,0.43 0 0 0 0,0.05s0,0 0,0a7.22,7.22 0 0 0 1,3.54l-0.13,0.1c-0.27,0.21 -0.53,0.41 -0.78,0.62l-0.5,0.42c-3.45,2.74 -8.07,3.3 -12.34,4.41s-8.83,3.36 -10.15,7.58c-0.08,0.27 -0.14,0.54 -0.2,0.82a2.76,2.76 0 0 0 -0.06,0.4s0,0 0,0l0,0a7.28,7.28 0 0 0 -0.09,1.23l0,0.09a1.23,1.23 0 0 0 0,0.19a11.39,11.39 0 0 0 5,8.35c3.54,2.43 8,3.19 12.2,3.74s8.64,1 12.5,2.87c3.32,1.65 6.13,4.36 9.65,5.55c0.21,0.07 0.42,0.11 0.64,0.17l-0.19,0.11c-0.48,0.29 -1,0.57 -1.45,0.83l-0.78,0.43a36.56,36.56 0 0 1 -11.65,3.71c-4.12,0.57 -9,0.84 -11.13,4.42l0,0a0.71,0.71 0 0 0 -0.08,0.18l0,0a2.38,2.38 0 0 0 -0.23,0.55l0,0.08a1.17,1.17 0 0 0 -0.09,0.24a1.43,1.43 0 0 0 -0.09,0.27a1.89,1.89 0 0 1 0,0.23a4.28,4.28 0 0 0 -0.17,0.79a6.62,6.62 0 0 0 0.07,2.08a9.32,9.32 0 0 0 2.69,4.87c2.5,2.35 6,3.37 9.28,4.1c7.59,1.67 15.35,2.27 23.1,2.87l7.53,0.58c2.69,0.21 5.39,0.41 8.08,0.6c1.91,0.12 3.82,0.24 5.73,0.33s3.64,0.15 5.46,0.19l0.08,0c0.92,0 1.84,0 2.76,0l0,0q7,0 13.91,-0.59c4.47,-0.4 8.89,-1 13.29,-1.78a3,3 0 0 0 2.16,-1a2,2 0 0 0 0.13,-0.25a0.85,0.85 0 0 0 0.06,-0.17a0.36,0.36 0 0 0 0,-0.09a1.29,1.29 0 0 0 0,-0.19a2.54,2.54 0 0 0 0,-0.29l0,-0.09c0,-0.21 0,-0.42 0,-0.62c0,-0.95 0,-1.89 -0.07,-2.84c0,-0.17 0,-0.35 0,-0.52l0,-0.64l-0.06,-1.17c-0.07,-1.14 -0.14,-2.29 -0.24,-3.43l-0.12,-1.36c0,-0.15 0,-0.3 0,-0.45c0,-0.34 -0.06,-0.68 -0.1,-1c0,-0.19 0,-0.39 -0.07,-0.59l-0.18,-1.61c-0.14,-1.18 -0.3,-2.35 -0.47,-3.52q-0.55,-3.84 -1.35,-7.63s0,0 0,-0.07s0,0 0,-0.06c-0.19,-0.86 -0.38,-1.71 -0.56,-2.56c-0.63,-2.7 -4.31,1 -6.37,3.31c-0.27,-1.29 -0.55,-2.57 -0.89,-3.82l0,0s0,-0.1 0,-0.15c0.55,-0.25 1.09,-0.51 1.62,-0.77a5.76,5.76 0 0 0 3,-2.48a4.31,4.31 0 0 0 0.32,-1.34a5.87,5.87 0 0 0 0,-0.84c0,-0.22 0,-0.44 0,-0.66c-0.3,-5.94 -0.66,-12.09 -3.48,-17.3a36.8,36.8 0 0 0 -6.87,-8.38c0,-0.64 -0.07,-1.28 -0.1,-1.92c-0.3,-6.36 -0.73,-12.72 -1.33,-19.07a278,278 0 0 0 -5.31,-34.47c-0.71,-3.07 -1.43,-6.14 -2.32,-9.17c0,0 0,0 0,0a60,60 0 0 0 -7.76,-17.33c-0.67,-1 -1.39,-2 -2.12,-3q-0.32,-5.62 -1,-11.26c-0.6,-5.16 -1.4,-10.3 -2.25,-15.39c-0.07,-0.48 -0.16,-1 -0.21,-1.47l0,-0.08a4.84,4.84 0 0 1 0.24,-2a11.83,11.83 0 0 1 2,-2.69a11.37,11.37 0 0 0 2.11,-7a2.81,2.81 0 0 0 0,-0.29c0,-2.65 -0.39,-5.45 -0.57,-8.08c0,-0.74 -0.07,-1.47 -0.07,-2.21l0,0l0,-0.08a0,0 0 0 0 0,0l0,0c0,-0.11 0,-0.22 0,-0.33c0,-0.77 0,-1.53 0.05,-2.29c0.28,-5.9 1.68,-11.76 3,-17.52c1.43,-6 2.88,-11.91 4.3,-17.87l0,0c0.57,-2.32 1.13,-4.65 1.67,-7c0.21,-0.83 0.41,-1.65 0.6,-2.48a43.88,43.88 0 0 1 2.32,-7.57c1.52,-3.43 3.89,-6.4 5.92,-9.55a53.55,53.55 0 0 0 8.35,-28.43l0,0a0.17,0.17 0 0 0 0,-0.07s0,-0.08 0,-0.12a1.34,1.34 0 0 0 0,-0.2c0,-0.68 0,-1.35 0,-2l0,0c0,-0.52 0,-1 -0.09,-1.58c1.24,0.44 2.49,0.89 3.72,1.37a21.08,21.08 0 0 0 0.16,-2.26l0,-0.08c0.1,-4.63 -0.91,-9.55 -1,-14.21a0.66,0.66 0 0 1 0,-0.14l0,-0.13a24.61,24.61 0 0 1 0.31,-4.57a18.39,18.39 0 0 1 0.51,-2.07c0.35,-0.28 0.7,-0.56 1,-0.85l0,0a28.73,28.73 0 0 0 8.25,-10.22c1.8,-4 2.32,-8.57 4.2,-12.57c1.06,-2.25 2.56,-4.33 3.19,-6.75a10.82,10.82 0 0 0 0.33,-2.26l0,-0.12a74.36,74.36 0 0 0 -0.5,-7.54l0,0c0,-0.4 0,-0.81 0,-1.21c0.1,-6.94 4.42,-13.44 4.9,-20.21l0,-0.09a16.22,16.22 0 0 0 -0.16,-3.4c-0.53,-3.37 -2.32,-6.52 -2.65,-9.88c0,0 0,0 0,0l0,0a8,8 0 0 1 -0.06,-1.29a19.64,19.64 0 0 1 1.57,-6.07c3.49,-9.23 6.94,-18.94 7.2,-28.67a0.27,0.27 0 0 0 0,-0.09l0,-0.21a36.09,36.09 0 0 0 -0.61,-7.95c-0.46,-2.55 -1.21,-5.07 -1.41,-7.63a16.36,16.36 0 0 1 0,-2c0.16,-2.81 1.19,-5.56 1.46,-8.32c0,0 0,0 0,0a11.36,11.36 0 0 0 0,-2.67a8.42,8.42 0 0 0 -0.9,-2.64l0,0a8.37,8.37 0 0 0 -0.76,-1.2a45.55,45.55 0 0 0 4.07,-7.8a14.6,14.6 0 0 0 1,-3.2a0,0 0 0 1 0,0a7.41,7.41 0 0 0 0.04,-2.01zm-68.42,441.22l0,0l-0.1,-0.06a12.49,12.49 0 0 0 -3.33,-0.95c-0.28,0 -0.57,-0.06 -0.85,-0.08l-0.06,0a16.57,16.57 0 0 0 0.33,-2.83c0,-0.56 0,-1.13 0,-1.7c0,-0.26 0,-0.52 0,-0.79c0,-0.11 0,-0.21 0,-0.32c0,-0.56 -0.05,-1.13 -0.09,-1.69s-0.11,-1.22 -0.15,-1.83l0,0l0,0a2.62,2.62 0 0 1 0,-0.28c0.13,0.38 0.27,0.76 0.43,1.14q1.85,4.82 4,9.49l-0.18,-0.1zm23.33,-519.26l0,0s0,0 0,0z"/>
  <path id="svg_54" fill="#ee8e9e" d="m730.7,305.869999c-0.13,5.07 -1.85,10 -2.12,15.06c15,0.74 29.69,-6.51 44.48,-4.29c-4.13,-2.67 -6.34,-7.5 -7.64,-12.25a50.61,50.61 0 0 1 -1.46,-18.82a7.59,7.59 0 0 1 0.18,-1c0.55,-2.48 2,-6 1.59,-7.95c-0.5,-2.58 -2.94,-2.07 -5.13,-1.92a194.12,194.12 0 0 0 -19.94,2.57c-1.72,0.3 -18.47,4.48 -18.72,4.05c2.76,4.77 5.57,9.73 7.25,14.93a29.09,29.09 0 0 1 1.51,9.62z"/>
  <path id="svg_55" fill="#ee8e9e" d="m582.91,290.189999a21.66,21.66 0 0 0 4.57,4.6c1.13,0.93 2.29,1.88 3.51,2.73a15,15 0 0 0 7.47,3c3.56,0.24 11.12,-1.85 13.33,-4.9a8.82,8.82 0 0 0 1.27,-5.1a23.64,23.64 0 0 0 -1.22,-7.14a39.71,39.71 0 0 0 -5.77,-10.42c-2.57,-3.58 -5.43,-7.1 -9.26,-9.27a35.92,35.92 0 0 0 -3.94,-1.81l-7,-2.86a3.51,3.51 0 0 0 -1.27,-0.33c-1.87,0 -2.21,2.87 -1.15,4.41c2.12,3.11 6.89,4 8.23,7.5a5.34,5.34 0 0 0 -5,3.84a2.74,2.74 0 0 1 -0.67,1.56c-0.61,0.49 -1.57,0.21 -2.27,0.58c-1.23,0.66 -0.69,2.5 -0.82,3.9c-0.12,1.24 -0.9,2.31 -1.28,3.5a7.44,7.44 0 0 0 1.27,6.21z"/>
  <path id="svg_56" fill="#65617d" d="m788.91,798.989999c-1.15,-1.15 -3,-0.95 -4.64,-0.7a172.4,172.4 0 0 1 -26.07,2.11c-1.09,-5.34 2.08,-10.53 3.1,-15.88a14,14 0 0 1 1,-4c1.22,-2.36 4,-3.44 6.6,-4c4.7,-1 12,-2.74 14.67,2c3.19,5.71 4.2,14.13 5.34,20.47z"/>
  <path id="svg_57" fill="#3f3d56" d="m693.4,778.829999c3.54,2.42 7.94,3.17 12.2,3.72s8.64,0.95 12.5,2.85c3.33,1.64 6.13,4.34 9.66,5.52c3.2,1.07 6.7,0.78 10,0.16c4,-0.74 8.18,-2.19 10.32,-5.61c1.91,-3 1.7,-6.89 1.44,-10.47c-0.31,-4 -0.6,-8.1 -0.9,-12.15a5.93,5.93 0 0 0 -0.75,-2.94c-2.87,-4.17 -9.83,1.75 -13.55,1.74c-5.91,0 -12.25,-3.2 -16.5,-7.12a5,5 0 0 0 -1.28,-1c-1.69,-0.76 -3.37,0.64 -4.87,1.86c-0.16,0.14 -0.33,0.27 -0.5,0.4c-3.45,2.74 -8.07,3.29 -12.33,4.4s-8.83,3.34 -10.15,7.54a6,6 0 0 0 -0.2,0.81c-0.76,3.93 1.6,8.02 4.91,10.29z"/>
  <path id="svg_58" opacity="0.05" d="m693.4,778.829999c3.54,2.42 7.94,3.17 12.2,3.72s8.64,0.95 12.5,2.85c3.33,1.64 6.13,4.34 9.66,5.52c3.2,1.07 6.7,0.78 10,0.16c4,-0.74 8.18,-2.19 10.32,-5.61c1.91,-3 1.7,-6.89 1.44,-10.47c-0.31,-4 -0.6,-8.1 -0.9,-12.15a5.93,5.93 0 0 0 -0.75,-2.94c-2.87,-4.17 -9.83,1.75 -13.55,1.74c-5.91,0 -12.25,-3.2 -16.5,-7.12a5,5 0 0 0 -1.28,-1c-1.69,-0.76 -3.37,0.64 -4.87,1.86c-0.16,0.14 -0.33,0.27 -0.5,0.4c-3.45,2.74 -8.07,3.29 -12.33,4.4s-8.83,3.34 -10.15,7.54a6,6 0 0 0 -0.2,0.81c-0.76,3.93 1.6,8.02 4.91,10.29z"/>
  <path id="svg_59" fill="#e8eaf2" d="m693.4,780.189999c3.54,2.42 7.94,3.17 12.2,3.72s8.64,0.95 12.5,2.85c3.33,1.65 6.13,4.34 9.66,5.52c3.2,1.07 6.7,0.78 10,0.16a16.56,16.56 0 0 0 10.32,-7c1.91,-3 1.7,-6.89 1.44,-10.47c-0.31,-4 -0.6,-8.1 -0.9,-12.15a5.93,5.93 0 0 0 -0.75,-2.94c-2.87,-4.17 -9.83,1.75 -13.55,1.74c-5.91,0 -12.25,-3.2 -16.5,-7.12a5,5 0 0 0 -1.28,-1c-1.69,-0.76 -3.37,0.64 -4.87,1.86a35,35 0 0 0 4.15,8.56c3,4.39 7.72,7.75 13,8.14c2.64,0.19 5.35,-0.33 7.9,0.35s4.93,3.29 4,5.77s-4,3 -6.58,3.09c-3.61,0.19 -7.31,0.37 -10.73,-0.75c-2.09,-0.7 -4,-1.85 -6,-2.7c-8.65,-3.59 -19.58,-1.58 -26.73,-7.64a15.19,15.19 0 0 0 -2.18,-1.67c-1.87,3.96 1.59,9.41 4.9,11.68z"/>
  <path id="svg_60" opacity="0.05" d="m693.4,780.189999c3.54,2.42 7.94,3.17 12.2,3.72s8.64,0.95 12.5,2.85c3.33,1.65 6.13,4.34 9.66,5.52c3.2,1.07 6.7,0.78 10,0.16a16.56,16.56 0 0 0 10.32,-7c1.91,-3 1.7,-6.89 1.44,-10.47c-0.31,-4 -0.6,-8.1 -0.9,-12.15a5.93,5.93 0 0 0 -0.75,-2.94c-2.87,-4.17 -9.83,1.75 -13.55,1.74c-5.91,0 -12.25,-3.2 -16.5,-7.12a5,5 0 0 0 -1.28,-1c-1.69,-0.76 -3.37,0.64 -4.87,1.86a35,35 0 0 0 4.15,8.56c3,4.39 7.72,7.75 13,8.14c2.64,0.19 5.35,-0.33 7.9,0.35s4.93,3.29 4,5.77s-4,3 -6.58,3.09c-3.61,0.19 -7.31,0.37 -10.73,-0.75c-2.09,-0.7 -4,-1.85 -6,-2.7c-8.65,-3.59 -19.58,-1.58 -26.73,-7.64a15.19,15.19 0 0 0 -2.18,-1.67c-1.87,3.96 1.59,9.41 4.9,11.68z"/>
  <path id="svg_61" fill="#303d5c" d="m787.3,515.399999a53.18,53.18 0 0 1 -7.3,39.26c-2,3.14 -4.4,6.09 -5.92,9.5a43.83,43.83 0 0 0 -2.32,7.54l-6.56,27.19c-1.78,7.34 -3.56,14.82 -3,22.35c0.37,5.25 1.69,11.15 -1.54,15.3a11.25,11.25 0 0 0 -2,2.68a6.85,6.85 0 0 0 0,3.54c3.32,19.74 5.79,40.37 -0.21,59.47c-5.44,17.31 -5.76,36.49 -10.38,54c-0.57,2.18 -1.23,4.47 -2.88,6a9.39,9.39 0 0 1 -4.3,2c-6.82,1.63 -14,-0.28 -20.38,-3.22c-4.47,-2.07 -9.28,-5.7 -8.9,-10.61c0.19,-2.34 1.55,-4.39 2.48,-6.54c1.81,-4.22 2,-8.93 2.45,-13.5c1.23,-11.48 4.77,-22.55 7.44,-33.78s4.49,-22.95 2.23,-34.27a299.55,299.55 0 0 0 -22,-67.82a8.07,8.07 0 0 0 -2,-3c-0.9,-0.74 -2.09,-1.08 -2.86,-2s-1,-2.32 -1.3,-3.55c-1,-3.58 -3.95,-6.22 -5.93,-9.37c-5,-7.94 -3.42,-18.12 -3.23,-27.5c0.18,-9.13 -1.13,-18.34 0.36,-27.34s6.65,-18.2 15.33,-21c4.3,-1.39 8.95,-1.08 13.45,-0.63c23.74,2.37 46.88,6.74 69.27,15.3z"/>
  <path id="svg_62" opacity="0.05" d="m787.3,515.399999a53.18,53.18 0 0 1 -7.3,39.26c-2,3.14 -4.4,6.09 -5.92,9.5a43.83,43.83 0 0 0 -2.32,7.54l-6.56,27.19c-1.78,7.34 -3.56,14.82 -3,22.35c0.37,5.25 1.69,11.15 -1.54,15.3a11.25,11.25 0 0 0 -2,2.68a6.85,6.85 0 0 0 0,3.54c3.32,19.74 5.79,40.37 -0.21,59.47c-5.44,17.31 -5.76,36.49 -10.38,54c-0.57,2.18 -1.23,4.47 -2.88,6a9.39,9.39 0 0 1 -4.3,2c-6.82,1.63 -14,-0.28 -20.38,-3.22c-4.47,-2.07 -9.28,-5.7 -8.9,-10.61c0.19,-2.34 1.55,-4.39 2.48,-6.54c1.81,-4.22 2,-8.93 2.45,-13.5c1.23,-11.48 4.77,-22.55 7.44,-33.78s4.49,-22.95 2.23,-34.27a299.55,299.55 0 0 0 -22,-67.82a8.07,8.07 0 0 0 -2,-3c-0.9,-0.74 -2.09,-1.08 -2.86,-2s-1,-2.32 -1.3,-3.55c-1,-3.58 -3.95,-6.22 -5.93,-9.37c-5,-7.94 -3.42,-18.12 -3.23,-27.5c0.18,-9.13 -1.13,-18.34 0.36,-27.34s6.65,-18.2 15.33,-21c4.3,-1.39 8.95,-1.08 13.45,-0.63c23.74,2.37 46.88,6.74 69.27,15.3z"/>
  <path id="svg_63" fill="#303d5c" d="m690.22,572.629999a57.7,57.7 0 0 0 1.2,10.54q6.3,35.35 13.43,70.54c0.42,2 0.83,4.07 1.38,6.07a49.31,49.31 0 0 0 9.1,17.9c19.8,24.68 21.51,60.53 32.26,90.3c0.72,2 1.45,4 2.22,6a147.28,147.28 0 0 0 6.63,14.79a4.2,4.2 0 0 0 1.36,1.77a4.09,4.09 0 0 0 2.16,0.42a63,63 0 0 0 27.95,-6.33a5.81,5.81 0 0 0 3,-2.46a6.05,6.05 0 0 0 0.31,-2.84c-0.3,-5.9 -0.66,-12 -3.47,-17.2a36.9,36.9 0 0 0 -6.88,-8.34c-0.84,-18.52 -2.67,-37.08 -6.74,-55.17c-2.09,-9.25 -4.68,-18.6 -10,-26.42c-4,-5.77 -9.64,-11.46 -8.94,-18.43c0.31,-3 1.59,-6.86 -0.9,-8.66c-1.09,-0.79 -2.7,-0.89 -3.43,-2a3.79,3.79 0 0 1 -0.48,-1.72a42.66,42.66 0 0 1 0.88,-14.29c0.72,-3.1 1.8,-6.14 2.13,-9.31s-0.23,-6.62 -2.34,-9c-0.13,-6.36 0,-13 -0.09,-19.3c-0.06,-3.63 -0.13,-7.31 0.89,-10.78c0.49,-1.67 1.22,-3.26 1.59,-5c1.33,-6.1 -2,-13.42 2,-18.26c1.65,-2 4.19,-3 6.34,-4.46c4.31,-2.88 7.13,-7.58 8.7,-12.51s2,-10.15 2.47,-15.32a15.94,15.94 0 0 0 0,-3.31a5.93,5.93 0 0 0 -0.44,-1.65c-1.23,-2.76 -4.53,-3.83 -7.47,-4.54a241.41,241.41 0 0 0 -57,-6.66c-7.1,-4.84 -11.1,-3.11 -14.11,2a53.21,53.21 0 0 0 -4,9.81c-1.38,4.15 -1.46,27.41 -2.8,31.58c-1.87,5.46 3.16,16.54 3.09,22.24z"/>
  <path id="svg_64" fill="#ffd666" d="m818.61,361.009999c0.53,3.66 -1.23,7.26 -1.43,10.95c-0.17,3.22 0.86,6.37 1.45,9.55c2.29,12.4 -2.11,24.95 -6.6,36.73a18.9,18.9 0 0 0 -1.56,6c-0.12,3.85 2.09,7.37 2.7,11.17c1.27,8 -4.61,15.49 -4.74,23.58c0,3.72 1.12,7.51 0.19,11.11c-0.62,2.41 -2.12,4.47 -3.19,6.72c-1.89,4 -2.39,8.49 -4.2,12.5c-3.25,7.26 -10.25,12 -16.9,16.35c-3.79,-1.26 -7.89,-2.76 -10,-6.17a15.19,15.19 0 0 1 -1.73,-5.41c-1.44,-8.27 -1.39,-16.71 -1.34,-25.1a155.85,155.85 0 0 1 1.18,-21.52c1.34,-9.12 4.3,-17.91 6.42,-26.88c2.68,-11.31 4,-23 8.22,-33.85c3.66,-9.54 9.37,-18.1 15.38,-26.29c2.29,-3.13 4.1,-7.6 8.55,-6.88a9.32,9.32 0 0 1 7.6,7.44z"/>
  <path id="svg_65" opacity="0.05" d="m818.61,361.009999c0.53,3.66 -1.23,7.26 -1.43,10.95c-0.17,3.22 0.86,6.37 1.45,9.55c2.29,12.4 -2.11,24.95 -6.6,36.73a18.9,18.9 0 0 0 -1.56,6c-0.12,3.85 2.09,7.37 2.7,11.17c1.27,8 -4.61,15.49 -4.74,23.58c0,3.72 1.12,7.51 0.19,11.11c-0.62,2.41 -2.12,4.47 -3.19,6.72c-1.89,4 -2.39,8.49 -4.2,12.5c-3.25,7.26 -10.25,12 -16.9,16.35c-3.79,-1.26 -7.89,-2.76 -10,-6.17a15.19,15.19 0 0 1 -1.73,-5.41c-1.44,-8.27 -1.39,-16.71 -1.34,-25.1a155.85,155.85 0 0 1 1.18,-21.52c1.34,-9.12 4.3,-17.91 6.42,-26.88c2.68,-11.31 4,-23 8.22,-33.85c3.66,-9.54 9.37,-18.1 15.38,-26.29c2.29,-3.13 4.1,-7.6 8.55,-6.88a9.32,9.32 0 0 1 7.6,7.44z"/>
  <path id="svg_66" opacity="0.1" d="m721.91,281.279999c2.76,4.77 5.57,9.73 7.25,14.93a34.41,34.41 0 0 0 8.23,1c10.77,0 18.4,-6.13 24.73,-13.87c0.55,-2.49 4,-4.8 3.58,-6.76c-0.5,-2.58 -2.94,-2.07 -5.13,-1.92a194.12,194.12 0 0 0 -19.94,2.57c-1.72,0.3 -18.44,4.48 -18.72,4.05z"/>
  <circle id="svg_67" fill="#ee8e9e" r="34.509998" cy="261.76" cx="737.42"/>
  <path id="svg_68" opacity="0.1" d="m693.81,509.029999c6,-0.35 12,-0.11 18,0.13a60.54,60.54 0 0 1 11.16,1.15c4.53,1 8.77,3.09 13.24,4.38c7.16,2.09 14.72,2.18 22.13,2.91a126.53,126.53 0 0 1 14.49,2.27a5.93,5.93 0 0 0 -0.44,-1.65c-1.23,-2.76 -4.53,-3.83 -7.47,-4.54a241.41,241.41 0 0 0 -57,-6.66c-7.1,-4.84 -11.1,-3.11 -14.11,2.01z"/>
  <path id="svg_69" fill="#ffd666" d="m717.33,318.259999c1.51,1.74 3.53,3.66 5.76,3.1a8.09,8.09 0 0 0 2.24,-1.2c4,-2.57 8.86,-3.17 13.54,-3.87a200,200 0 0 0 27.89,-6.27a28.38,28.38 0 0 1 8.25,-1.68c5.85,0 11,3.92 14.7,8.48s6.26,9.89 9.86,14.5c2.56,3.29 5.61,6.19 8,9.6c6,8.61 7.34,19.85 5.78,30.26s-5.72,20.21 -9.84,29.9c-2.36,5.55 -4.74,11.13 -8,16.19c1.39,7.91 0.66,16.95 -3.1,24c-1.23,2.31 -2.73,4.56 -3.13,7.15a17.75,17.75 0 0 0 0.21,5.24l1.76,12.49c0.53,3.81 1.07,7.61 1.76,11.39c1.27,6.92 3,14.43 -0.21,20.69c-3.84,7.49 0.19,17.1 -0.82,25.46a128.07,128.07 0 0 0 -33.63,-8c-7.42,-0.73 -15,-0.82 -22.13,-2.9c-4.47,-1.3 -8.7,-3.36 -13.24,-4.4a61.33,61.33 0 0 0 -11.17,-1.14c-8.27,-0.33 -16.6,-0.66 -24.78,0.56c-0.67,0.1 -1.47,0.15 -1.87,-0.39a1.79,1.79 0 0 1 -0.25,-1a16.45,16.45 0 0 1 2.12,-8.78c1,-1.84 2.49,-3.65 2.45,-5.76a8.66,8.66 0 0 0 -0.72,-2.86l-3.62,-9.68c-3.07,-8.16 -1.61,-17.65 -3.2,-26.22a154,154 0 0 1 -2.38,-20.29c-0.3,-5.82 -0.11,-12.13 3.4,-16.78a19,19 0 0 0 2.65,-3.69a11.09,11.09 0 0 0 0.63,-4.41q0.12,-17.46 -1,-34.91c3.07,-5.5 6.26,-11.13 9.32,-16.63c3.56,-6.4 7.18,-12.93 8.62,-20.11c1,-4.76 0.92,-9.65 1.6,-14.45a6.25,6.25 0 0 1 1.22,-3.38c1.17,-1.32 3.14,-1.51 4.91,-1.46a21.54,21.54 0 0 1 6.42,1.25z"/>
  <path id="svg_70" opacity="0.1" d="m590.98,297.519999a15,15 0 0 0 7.47,3c3.56,0.24 11.12,-1.85 13.33,-4.9a8.82,8.82 0 0 0 1.27,-5.1a6.17,6.17 0 0 0 -1.48,-0.29c-3.87,-0.23 -7.82,-0.46 -11.58,0.47s-7.4,3.21 -9,6.75l-0.01,0.07z"/>
  <path id="svg_71" fill="#ffd666" d="m705.81,372.169999c-2.11,2.61 -4.29,5.31 -7.27,6.85c-3.43,1.78 -7.47,1.82 -11.33,1.74a270.92,270.92 0 0 1 -47.35,-5.2a29.25,29.25 0 0 1 -5.21,-1.4a27.75,27.75 0 0 1 -5.27,-3.28c-5.13,-3.69 -10.34,-7.45 -14.25,-12.43a41.83,41.83 0 0 1 -8.44,-20.71c-3.72,-3.42 -5.69,-8.29 -7.55,-13a20.08,20.08 0 0 1 -1.72,-6.31c-0.1,-2.23 1.38,-4.57 1,-6.77a17.9,17.9 0 0 0 -5.47,-9.85a3.57,3.57 0 0 1 -1.31,-1.73a2.8,2.8 0 0 1 0.32,-1.69c1.58,-3.54 5.22,-5.82 9,-6.75s7.71,-0.69 11.58,-0.46c1.4,0.09 2.42,0.74 3.79,1l2.7,7.11a9.22,9.22 0 0 0 1.77,3.24a17.52,17.52 0 0 0 1.91,1.5a11,11 0 0 1 3.8,9.58a10.29,10.29 0 0 1 6.09,12.7a12.14,12.14 0 0 1 8.9,7.84a5.88,5.88 0 0 0 1.16,2.44a4.76,4.76 0 0 0 3.11,1c3,0.19 5.71,2.59 8.48,1.29a17.19,17.19 0 0 1 10.03,-1.41a7.43,7.43 0 0 0 2.15,0.19a5.84,5.84 0 0 0 1.76,-0.61a14.45,14.45 0 0 1 4,-1.58a3.74,3.74 0 0 1 3.79,1.47c1,-1.06 1.55,-2.42 2.43,-3.55a3.88,3.88 0 0 1 3.68,-1.76c-0.92,-0.82 0,-2.45 1.21,-2.75s2.45,0.14 3.68,0.14c3.19,0 5.64,-2.92 8.74,-3.68c2.85,-0.69 6.65,0.14 8.11,-2.41c0.52,-0.9 0.62,-2.12 1.5,-2.67a2.87,2.87 0 0 1 1.92,-0.23a18.93,18.93 0 0 1 5.83,1.77c3,11.69 1.42,23.83 -0.86,35.68c-1.09,5.63 -2.81,10.19 -6.41,14.69z"/>
  <path id="svg_72" opacity="0.1" d="m705.91,414.059999l14.86,30c-1.61,-2.77 -5,-3.85 -7.67,-5.62a20.32,20.32 0 0 1 -7.33,-9.85a60.47,60.47 0 0 1 -2.86,-12.18c-0.3,-1.9 -0.93,-4.57 0,-6.29c1.73,0.35 2.29,2.53 3,3.94z"/>
  <path id="svg_73" opacity="0.1" d="m748.66,439.469999c3.35,3.32 7.46,5.76 11.15,8.7c8.62,6.86 14.76,16.28 20.76,25.52a40.4,40.4 0 0 1 4.24,7.78c-0.7,0.61 -1.75,0 -2.44,-0.63l-11.68,-10.26a26.35,26.35 0 0 1 -3.89,-3.94c-2,-2.72 -2.92,-6.13 -4.76,-9s-4.52,-5 -7.09,-7.23s-15,-12.71 -12,-16.75c2.17,1.08 3.96,4.08 5.71,5.81z"/>
  <path id="svg_74" fill="#ffd666" d="m723.16,309.599999c3.7,-2.31 8.06,-3.28 12.35,-4.07a26,26 0 0 1 7.86,-0.56c2.43,0.3 4.76,1.24 7.21,1.37c3.43,0.2 6.72,-1.2 10,-2.1s7.15,-1.26 9.94,0.75a4.31,4.31 0 0 0 2.16,1.15a3.76,3.76 0 0 0 2.23,-1.1a12.74,12.74 0 0 1 15.87,0.84c6.33,5.93 5.62,17.52 13,22c2.05,1.24 4.66,1.9 5.85,4a13.88,13.88 0 0 0 1,1.91a5.14,5.14 0 0 0 1.78,1.27a34.92,34.92 0 0 1 6.12,3.51a8.76,8.76 0 0 1 3.52,5.9a11,11 0 0 1 -1.09,5a46.52,46.52 0 0 1 -45.22,28.92c-1.69,-0.08 -3.52,-0.31 -4.74,-1.48a8.92,8.92 0 0 1 -1.66,-2.73c-3.48,-7.31 -10,-12.71 -14.19,-19.66c-2.48,-4.14 -4.07,-8.77 -6.65,-12.85c-3.84,-6.2 -9.79,-10.81 -15.59,-15.2c-3.28,-2.5 -6.93,-5.12 -11.06,-4.95c-3.67,0.16 -6.35,0.36 -5,-4.15a14.41,14.41 0 0 1 6.31,-7.77z"/>
  <path id="svg_75" opacity="0.05" d="m723.16,309.599999c3.7,-2.31 8.06,-3.28 12.35,-4.07a26,26 0 0 1 7.86,-0.56c2.43,0.3 4.76,1.24 7.21,1.37c3.43,0.2 6.72,-1.2 10,-2.1s7.15,-1.26 9.94,0.75a4.31,4.31 0 0 0 2.16,1.15a3.76,3.76 0 0 0 2.23,-1.1a12.74,12.74 0 0 1 15.87,0.84c6.33,5.93 5.62,17.52 13,22c2.05,1.24 4.66,1.9 5.85,4a13.88,13.88 0 0 0 1,1.91a5.14,5.14 0 0 0 1.78,1.27a34.92,34.92 0 0 1 6.12,3.51a8.76,8.76 0 0 1 3.52,5.9a11,11 0 0 1 -1.09,5a46.52,46.52 0 0 1 -45.22,28.92c-1.69,-0.08 -3.52,-0.31 -4.74,-1.48a8.92,8.92 0 0 1 -1.66,-2.73c-3.48,-7.31 -10,-12.71 -14.19,-19.66c-2.48,-4.14 -4.07,-8.77 -6.65,-12.85c-3.84,-6.2 -9.79,-10.81 -15.59,-15.2c-3.28,-2.5 -6.93,-5.12 -11.06,-4.95c-3.67,0.16 -6.35,0.36 -5,-4.15a14.41,14.41 0 0 1 6.31,-7.77z"/>
  <path id="svg_76" fill="#3f3d56" d="m705.2,809.819999c2.5,2.33 5.94,3.35 9.27,4.08c7.59,1.66 15.35,2.25 23.09,2.85l7.54,0.58c7.36,0.55 14.73,1.12 22.12,1.15a152.17,152.17 0 0 0 27.2,-2.35a2.3,2.3 0 0 0 2.49,-2.76a131.44,131.44 0 0 0 -3.34,-27.31c-0.86,-3.68 -7.46,4.57 -7.75,4.92c-1.83,2.08 -3.22,3 -6,3.18c-7.59,0.42 -16.1,-4.2 -22.13,-8.3a27.65,27.65 0 0 0 -4.1,-2.54a11.81,11.81 0 0 0 -3.31,-1a20.05,20.05 0 0 0 -11.3,2.29c-4.53,2.25 -8.51,5.48 -13,7.79a36.27,36.27 0 0 1 -11.65,3.69c-4.11,0.57 -9,0.84 -11.13,4.4a0,0 0 0 0 0,0c-1.75,2.98 -0.49,6.98 2,9.33z"/>
  <path id="svg_77" fill="#e8eaf2" d="m705.2,811.179999c2.5,2.33 5.94,3.35 9.27,4.08c7.59,1.66 15.35,2.25 23.09,2.85l7.54,0.58c7.36,0.55 14.73,1.12 22.12,1.15a152.17,152.17 0 0 0 27.2,-2.35a3,3 0 0 0 2.16,-1c0.32,-0.5 1.69,-2.49 1.68,-3.08c-0.15,-9.19 -2.64,-18.36 -4.7,-27.31c-0.86,-3.68 -7.46,4.57 -7.75,4.92c-1.83,2.08 -3.22,3 -6,3.18c-7.59,0.42 -16.1,-4.2 -22.13,-8.3a27.65,27.65 0 0 0 -4.1,-2.54a11.81,11.81 0 0 0 -3.31,-1c1,5.46 8.81,12.06 12.85,14.07c8.18,4.06 17.9,2 27,2.51a3.71,3.71 0 0 1 1.91,0.47c1.1,0.72 1.16,2.27 1.13,3.58c-0.08,2.18 -0.36,4.73 -2.24,5.84a6.38,6.38 0 0 1 -3,0.63a427.54,427.54 0 0 1 -67.4,-2.36a37.25,37.25 0 0 1 -11,-2.44a28.15,28.15 0 0 1 -6.37,-4.1c-2.84,2.27 -0.44,8.29 2.05,10.62z"/>
  <path id="svg_78" fill="#3f3d56" d="m723.99,261.389999c0.13,3.57 -2.3,10.49 4.37,8.56c4,-1.16 5.1,-5.87 10.15,-4.82s6.21,7.27 7.92,11.34a21.69,21.69 0 0 0 15.72,12.71a9.45,9.45 0 0 0 4.33,0c3.26,-0.93 5.12,-4.29 6.45,-7.4a59.18,59.18 0 0 0 2.85,-8.12a34.57,34.57 0 0 0 1,-6l0,0a27,27 0 0 0 0,-4.12c-0.61,-8.11 -5.22,-15.51 -11.14,-21.11s-13.09,-9.63 -20.18,-13.62a29.38,29.38 0 0 0 -7.45,-3.32a24.94,24.94 0 0 0 -7.86,-0.32a27.12,27.12 0 0 0 -10,2.35a14.15,14.15 0 0 0 -3.52,2.47a10.54,10.54 0 0 0 -3,5.09c-1.28,5.25 2.06,10 4.78,14.11c2.41,3.7 5.4,7.61 5.58,12.2z"/>
  <path id="svg_79" opacity="0.1" d="m611.68,337.979999c1.43,-3.59 7.43,-13.53 5.69,-16.95a45.2,45.2 0 0 0 -4.56,8.15c-1.13,2.78 -0.21,6.51 -1.13,8.8z"/>
  <path id="svg_80" opacity="0.1" d="m718.26,249.209999c-2.72,-4.15 -6.07,-8.87 -4.79,-14.11a11.11,11.11 0 0 1 3.88,-5.81a9.66,9.66 0 0 0 -1,2.45c-1.28,5.24 2.07,10 4.79,14.11c2.41,3.68 5.4,7.59 5.58,12.18c0.13,3.56 -2.31,10.49 4.37,8.56c4,-1.15 5.1,-5.87 10.15,-4.81s6.2,7.26 7.91,11.33a21.73,21.73 0 0 0 15.76,12.71a9.45,9.45 0 0 0 4.33,0a6.47,6.47 0 0 0 2,-1a8.78,8.78 0 0 1 -4.94,4.36a9.45,9.45 0 0 1 -4.33,0a21.73,21.73 0 0 1 -15.7,-12.71c-1.71,-4.07 -2.82,-10.27 -7.91,-11.34s-6.17,3.67 -10.15,4.82c-6.68,1.93 -4.24,-5 -4.37,-8.56c-0.17,-4.59 -3.17,-8.5 -5.58,-12.18z"/>
  <path id="svg_81" opacity="0.1" d="m716.78,242.119999a31.13,31.13 0 0 0 2,2.92a35.77,35.77 0 0 0 4.72,4.89c1,0.89 2.09,1.72 3.19,2.5a51.2,51.2 0 0 0 6.44,3.85c6.53,3.29 13.59,5.35 20.62,7.38l13.78,4c1.69,1.28 4.79,3.59 8.21,6a34.57,34.57 0 0 0 1,-6l0,0a27,27 0 0 0 0,-4.12c-0.61,-8.11 -5.22,-15.51 -11.14,-21.11s-13.09,-9.63 -20.18,-13.62a29.38,29.38 0 0 0 -7.45,-3.32a24.94,24.94 0 0 0 -7.86,-0.32a27.12,27.12 0 0 0 -10,2.35a14.15,14.15 0 0 0 -3.52,2.47a13.14,13.14 0 0 0 -1.77,3.74c-0.78,2.84 0.42,5.88 1.96,8.39z"/>
  <path id="svg_82" fill="#ffd666" d="m716.78,241.189999a31.13,31.13 0 0 0 2,2.92a35.77,35.77 0 0 0 4.72,4.89c1,0.89 2.09,1.72 3.19,2.5a51.2,51.2 0 0 0 6.44,3.85c6.53,3.29 13.59,5.35 20.62,7.39l13.78,4c4.81,3.64 20.9,15.56 23.61,14.07c3.19,-1.75 -14.28,-14.12 -14.28,-14.12l-0.81,0.61c2.56,-1.61 3.9,-5.34 4.48,-8.56c1,-5.77 1.5,-11.77 0.13,-17.47s-4.79,-11.13 -10,-13.8c-2.32,-1.19 -5.13,-2 -6.8,-3.83a4.89,4.89 0 0 1 -0.66,-0.89a4.31,4.31 0 0 1 -0.26,-0.47a6.14,6.14 0 0 0 -0.73,-1.42c-1,-1.11 -2.7,-0.78 -4.15,-0.6l-0.46,0.05q-0.39,0 -0.78,0c-5.18,0.12 -10.2,-2.77 -15.44,-2.77c-5.75,0 -10.63,3.32 -15.69,5.59c-1,0.46 -2,0.88 -2.9,1.31c-3.65,1.7 -6.4,3.51 -7.91,8.35c-0.84,2.85 0.36,5.89 1.9,8.4z"/>
  <path id="svg_83" opacity="0.1" d="m756.85,220.339999a2.35,2.35 0 0 0 0.54,3a4.29,4.29 0 0 0 2.18,0.78a15.82,15.82 0 0 0 1.69,0.13a4.65,4.65 0 0 0 2.24,-0.39a2,2 0 0 0 0.39,-0.25a4.89,4.89 0 0 1 -0.66,-0.89c-0.13,0.1 -0.26,0.08 -0.78,0a12,12 0 0 1 -2.79,-0.48a2.74,2.74 0 0 1 -2,-2l-0.81,0.1z"/>
  <path id="svg_84" opacity="0.1" d="m776.55,266.549999a6.4,6.4 0 0 1 -2.38,0.89a9.65,9.65 0 0 1 -1.85,0.3a10.25,10.25 0 0 1 -4.51,-1.27l8.74,0.08z"/>
  <path id="svg_85" fill="url(#f7a9ddad-0622-4a2a-ab1d-dd2f922ca980)" d="m345.21,374.789999l-1.3,-2.86l-0.52,0.14l1.36,2.85l9.8,20.65c-0.21,0.27 -3.1,3.73 -3,7a4.71,4.71 0 0 0 0.25,1.49c0.5,1.46 1.12,2.05 1.68,2.21c0,-0.09 0,-0.17 0,-0.25a6.16,6.16 0 0 1 0,-1l0,-0.19l0,-0.2l0,-0.05a1,1 0 0 1 0,-0.17s0,-0.05 0,-0.07s0,0 0,0a1.74,1.74 0 0 0 0.05,-0.22l0,0a0.22,0.22 0 0 1 0,-0.08s0,-0.07 0,-0.1l0.12,-0.43l0.05,-0.12l0.06,-0.22c0.05,-0.14 0.1,-0.29 0.16,-0.43a1.19,1.19 0 0 1 0.08,-0.2l0.12,-0.28c0.12,-0.28 0.26,-0.55 0.39,-0.82s0.27,-0.5 0.41,-0.73a17.45,17.45 0 0 1 1.32,-1.9l-11.03,-24.02zm21.93,58.62l-0.06,0a1.24,1.24 0 0 1 -0.61,0l-0.1,0a1.27,1.27 0 0 1 -0.18,-0.06a1.41,1.41 0 0 1 -0.41,-0.25l-0.15,-0.14a3.74,3.74 0 0 1 -0.72,-1.14a3.67,3.67 0 0 0 -0.22,1.17a1.87,1.87 0 0 0 0.91,1.75a3.4,3.4 0 0 1 0.95,0.94l0,0l0,0a0.07,0.07 0 0 0 0,-0.06l0,0a0.29,0.29 0 0 1 0,-0.09a0.17,0.17 0 0 1 0,-0.07a5.45,5.45 0 0 1 0.43,-1.19c0.1,-0.19 0.19,-0.37 0.3,-0.54a1.71,1.71 0 0 1 0.13,-0.23l0.09,-0.14l0.15,-0.24a1.78,1.78 0 0 1 -11.54,-23.73l11.03,24.02zm0,0l-0.06,0a1.24,1.24 0 0 1 -0.61,0l-0.1,0a1.27,1.27 0 0 1 -0.18,-0.06a1.41,1.41 0 0 1 -0.41,-0.25l-0.15,-0.14a3.74,3.74 0 0 1 -0.72,-1.14a3.67,3.67 0 0 0 -0.22,1.17a1.87,1.87 0 0 0 0.91,1.75a3.4,3.4 0 0 1 0.95,0.94l0,0l0,0a0.07,0.07 0 0 0 0,-0.06l0,0a0.29,0.29 0 0 1 0,-0.09a0.17,0.17 0 0 1 0,-0.07a5.45,5.45 0 0 1 0.43,-1.19c0.1,-0.19 0.19,-0.37 0.3,-0.54a1.71,1.71 0 0 1 0.13,-0.23l0.09,-0.14l0.15,-0.24a1.78,1.78 0 0 1 -11.54,-23.73l11.03,24.02zm-10.9,-34.6l-12.33,-26.88l-0.52,0.14l1.36,2.85l9.8,20.65c-0.21,0.27 -3.1,3.73 -3,7a4.71,4.71 0 0 0 0.25,1.49c0.5,1.46 1.12,2.05 1.68,2.21c0,-0.09 0,-0.17 0,-0.25a6.16,6.16 0 0 1 0,-1a0.53,0.53 0 0 1 0,-0.13s0,-0.09 0,-0.14l0,0a0.22,0.22 0 0 0 0,-0.08l0,0l0,-0.05a0.25,0.25 0 0 1 0,-0.08l0,0a0.56,0.56 0 0 1 0,-0.12s0,0 0,0a1.55,1.55 0 0 1 0.05,-0.23a0.22,0.22 0 0 1 0,-0.08s0,-0.07 0,-0.1l0.12,-0.43l0.05,-0.12l0.06,-0.22c0.05,-0.14 0.1,-0.29 0.16,-0.43a1.19,1.19 0 0 1 0.08,-0.2l0.12,-0.28c0.12,-0.28 0.26,-0.55 0.39,-0.82s0.27,-0.5 0.41,-0.73a17.45,17.45 0 0 1 1.32,-1.9l0,-0.07zm10.9,34.6l-0.06,0a1.24,1.24 0 0 1 -0.61,0l-0.1,0a1.27,1.27 0 0 1 -0.18,-0.06a1.41,1.41 0 0 1 -0.41,-0.25l-0.15,-0.14a3.74,3.74 0 0 1 -0.72,-1.14a3.67,3.67 0 0 0 -0.22,1.17a1.87,1.87 0 0 0 0.91,1.75a3.4,3.4 0 0 1 0.95,0.94l0,0l0,0a0.07,0.07 0 0 0 0,-0.06l0,0a0.29,0.29 0 0 1 0,-0.09a0.17,0.17 0 0 1 0,-0.07a5.45,5.45 0 0 1 0.43,-1.19l0.21,-0.41l0.09,-0.13a1.71,1.71 0 0 1 0.13,-0.23l0.09,-0.14l0.15,-0.24a1.78,1.78 0 0 1 -11.54,-23.73l11.03,24.02zm-10.9,-34.6l-12.33,-26.88l-0.52,0.14l1.36,2.85l9.8,20.65c-0.21,0.27 -3.1,3.73 -3,7a4.71,4.71 0 0 0 0.25,1.49c0.5,1.46 1.12,2.05 1.68,2.21c0,-0.09 0,-0.17 0,-0.25a6.16,6.16 0 0 1 0,-1a0.53,0.53 0 0 1 0,-0.13s0,-0.09 0,-0.14l0,0a0.22,0.22 0 0 0 0,-0.08l0,0l0,0a0.25,0.25 0 0 1 0,-0.08l0,0a0.56,0.56 0 0 1 0,-0.12s0,0 0,0a1.55,1.55 0 0 1 0.05,-0.23a0.22,0.22 0 0 1 0,-0.08s0,-0.07 0,-0.1l0.12,-0.43l0.05,-0.12l0.06,-0.22c0.05,-0.14 0.1,-0.29 0.16,-0.43a1.19,1.19 0 0 1 0.08,-0.2l0.12,-0.28c0.12,-0.28 0.26,-0.55 0.39,-0.82s0.27,-0.5 0.41,-0.73a17.45,17.45 0 0 1 1.32,-1.9l0,-0.12zm10.9,34.6l-0.06,0a1.24,1.24 0 0 1 -0.61,0l-0.1,0a1.27,1.27 0 0 1 -0.18,-0.06a1.41,1.41 0 0 1 -0.41,-0.25l-0.15,-0.14a3.74,3.74 0 0 1 -0.72,-1.14a3.67,3.67 0 0 0 -0.22,1.17a1.87,1.87 0 0 0 0.91,1.75a3.4,3.4 0 0 1 0.95,0.94l0,0l0,0a0.07,0.07 0 0 0 0,-0.06l0,0a0.25,0.25 0 0 1 0,-0.08a0.24,0.24 0 0 1 0,-0.08a5.45,5.45 0 0 1 0.43,-1.19l0.21,-0.41l0.09,-0.13a1.71,1.71 0 0 1 0.13,-0.23l0.09,-0.14l0.15,-0.24a1.78,1.78 0 0 1 -11.54,-23.73l11.03,24.02zm-10.9,-34.6l-12.33,-26.88l-0.52,0.14l1.36,2.85l9.8,20.65c-0.21,0.27 -3.1,3.73 -3,7a4.71,4.71 0 0 0 0.25,1.49c0.5,1.46 1.12,2.05 1.68,2.21c0,-0.09 0,-0.17 0,-0.25a6.16,6.16 0 0 1 0,-1a0.53,0.53 0 0 1 0,-0.13s0,-0.09 0,-0.14l0,0a0.22,0.22 0 0 0 0,-0.08l0,0l0,0a0.25,0.25 0 0 1 0,-0.08l0,0a0.56,0.56 0 0 1 0,-0.12s0,0 0,0a1.55,1.55 0 0 1 0.05,-0.23a0.22,0.22 0 0 1 0,-0.08s0,-0.07 0,-0.1l0.12,-0.43l0.05,-0.12l0.06,-0.22c0.05,-0.14 0.1,-0.29 0.16,-0.43a1.19,1.19 0 0 1 0.08,-0.2l0.12,-0.28c0.12,-0.28 0.26,-0.55 0.39,-0.82s0.27,-0.5 0.41,-0.73a17.45,17.45 0 0 1 1.32,-1.9l0,-0.12zm10.9,34.6l-0.06,0a1.24,1.24 0 0 1 -0.61,0l-0.1,0a1.27,1.27 0 0 1 -0.18,-0.06a1.41,1.41 0 0 1 -0.41,-0.25l-0.15,-0.14a3.74,3.74 0 0 1 -0.72,-1.14a3.67,3.67 0 0 0 -0.22,1.17a1.87,1.87 0 0 0 0.91,1.75a3.4,3.4 0 0 1 0.95,0.94l0,0l0,0a0.07,0.07 0 0 0 0,-0.06l0,0a0.25,0.25 0 0 1 0,-0.08a0.24,0.24 0 0 1 0,-0.08a5.45,5.45 0 0 1 0.43,-1.19l0.21,-0.41l0.09,-0.13a1.71,1.71 0 0 1 0.13,-0.23l0.09,-0.14l0.15,-0.24a1.78,1.78 0 0 1 -11.54,-23.73l11.03,24.02zm-10.9,-34.6l-12.33,-26.88l-0.52,0.14l1.36,2.85l9.8,20.65c-0.21,0.27 -3.1,3.73 -3,7a4.71,4.71 0 0 0 0.25,1.49c0.5,1.46 1.12,2.05 1.68,2.21c0,-0.09 0,-0.17 0,-0.25a6.16,6.16 0 0 1 0,-1a0.53,0.53 0 0 1 0,-0.13s0,-0.09 0,-0.14l0,0a0.22,0.22 0 0 0 0,-0.08l0,0l0,0a0.25,0.25 0 0 1 0,-0.08l0,0a0.56,0.56 0 0 1 0,-0.12s0,0 0,0a1.55,1.55 0 0 1 0.05,-0.23a0.22,0.22 0 0 1 0,-0.08s0,-0.07 0,-0.1l0.12,-0.43l0.05,-0.12l0.06,-0.22c0.05,-0.14 0.1,-0.29 0.16,-0.43a1.19,1.19 0 0 1 0.08,-0.2l0.12,-0.28c0.12,-0.28 0.26,-0.55 0.39,-0.82s0.27,-0.5 0.41,-0.73a17.45,17.45 0 0 1 1.32,-1.9l0,-0.12zm10.9,34.6l-0.06,0a1.24,1.24 0 0 1 -0.61,0l-0.1,0a1.27,1.27 0 0 1 -0.18,-0.06a1.41,1.41 0 0 1 -0.41,-0.25l-0.15,-0.14a3.74,3.74 0 0 1 -0.72,-1.14a3.67,3.67 0 0 0 -0.22,1.17a1.87,1.87 0 0 0 0.91,1.75a3.4,3.4 0 0 1 0.95,0.94l0,0l0,0a0.07,0.07 0 0 0 0,-0.06l0,0a0.25,0.25 0 0 1 0,-0.08a0.24,0.24 0 0 1 0,-0.08a5.45,5.45 0 0 1 0.43,-1.19l0.21,-0.41l0.09,-0.13a1.71,1.71 0 0 1 0.13,-0.23l0.09,-0.14l0.15,-0.24a1.78,1.78 0 0 1 -11.54,-23.73l11.03,24.02zm-10.9,-34.6l-12.33,-26.88l-0.52,0.14l1.36,2.85l9.8,20.65c-0.21,0.27 -3.1,3.73 -3,7a4.71,4.71 0 0 0 0.25,1.49c0.5,1.46 1.12,2.05 1.68,2.21c0,-0.09 0,-0.17 0,-0.25a6.16,6.16 0 0 1 0,-1a0.53,0.53 0 0 1 0,-0.13s0,-0.09 0,-0.14l0,0a0.22,0.22 0 0 0 0,-0.08l0,0l0,0a0.25,0.25 0 0 1 0,-0.08l0,0a0.56,0.56 0 0 1 0,-0.12s0,0 0,0a1.55,1.55 0 0 1 0.05,-0.23a0.22,0.22 0 0 1 0,-0.08s0,-0.07 0,-0.1l0.12,-0.43l0.05,-0.12l0.06,-0.22c0.05,-0.14 0.1,-0.29 0.16,-0.43a1.19,1.19 0 0 1 0.08,-0.2l0.12,-0.28c0.12,-0.28 0.26,-0.55 0.39,-0.82s0.27,-0.5 0.41,-0.73a17.45,17.45 0 0 1 1.32,-1.9l0,-0.12zm10.9,34.6l-0.06,0a1.24,1.24 0 0 1 -0.61,0l-0.1,0a1.27,1.27 0 0 1 -0.18,-0.06a1.41,1.41 0 0 1 -0.41,-0.25l-0.15,-0.14a3.74,3.74 0 0 1 -0.72,-1.14a3.67,3.67 0 0 0 -0.22,1.17a1.87,1.87 0 0 0 0.91,1.75a3.4,3.4 0 0 1 0.95,0.94l0,0l0,0a0.07,0.07 0 0 0 0,-0.06l0,0a0.25,0.25 0 0 1 0,-0.08a0.24,0.24 0 0 1 0,-0.08a5.45,5.45 0 0 1 0.43,-1.19l0.21,-0.41l0.09,-0.13a1.71,1.71 0 0 1 0.13,-0.23l0.09,-0.14l0.15,-0.24a1.78,1.78 0 0 1 -11.54,-23.73l11.03,24.02zm-10.9,-34.6l-12.33,-26.88l-0.52,0.14l1.36,2.85l9.8,20.65c-0.21,0.27 -3.1,3.73 -3,7a4.71,4.71 0 0 0 0.25,1.49c0.5,1.46 1.12,2.05 1.68,2.21c0,-0.09 0,-0.17 0,-0.25a6.16,6.16 0 0 1 0,-1a0.53,0.53 0 0 1 0,-0.13s0,-0.09 0,-0.14l0,0a0.22,0.22 0 0 0 0,-0.08l0,0l0,0a0.25,0.25 0 0 1 0,-0.08l0,0a0.56,0.56 0 0 1 0,-0.12s0,0 0,0a1.55,1.55 0 0 1 0.05,-0.23a0.22,0.22 0 0 1 0,-0.08s0,-0.07 0,-0.1l0.12,-0.43l0.05,-0.12l0.06,-0.22c0.05,-0.14 0.1,-0.29 0.16,-0.43a1.19,1.19 0 0 1 0.08,-0.2l0.12,-0.28c0.12,-0.28 0.26,-0.55 0.39,-0.82s0.27,-0.5 0.41,-0.73a17.45,17.45 0 0 1 1.32,-1.9l0,-0.12zm10.9,34.6l-0.06,0a1.24,1.24 0 0 1 -0.61,0l-0.1,0a1.27,1.27 0 0 1 -0.18,-0.06a1.41,1.41 0 0 1 -0.41,-0.25l-0.15,-0.14a3.74,3.74 0 0 1 -0.72,-1.14a3.67,3.67 0 0 0 -0.22,1.17a1.87,1.87 0 0 0 0.91,1.75a3.4,3.4 0 0 1 0.95,0.94l0,0l0,0a0.07,0.07 0 0 0 0,-0.06l0,0a0.25,0.25 0 0 1 0,-0.08a0.24,0.24 0 0 1 0,-0.08a5.45,5.45 0 0 1 0.43,-1.19l0.21,-0.41l0.09,-0.13a1.71,1.71 0 0 1 0.13,-0.23l0.09,-0.14l0.15,-0.24a1.78,1.78 0 0 1 -11.54,-23.73l11.03,24.02zm-10.9,-34.6l-12.33,-26.88l-0.52,0.14l1.36,2.85l9.8,20.65c-0.21,0.27 -3.1,3.73 -3,7a4.71,4.71 0 0 0 0.25,1.49c0.5,1.46 1.12,2.05 1.68,2.21c0,-0.09 0,-0.17 0,-0.25a6.16,6.16 0 0 1 0,-1a0.53,0.53 0 0 1 0,-0.13s0,-0.09 0,-0.14l0,0a0.22,0.22 0 0 0 0,-0.08l0,0l0,0a0.25,0.25 0 0 1 0,-0.08l0,0a0.56,0.56 0 0 1 0,-0.12s0,0 0,0a1.55,1.55 0 0 1 0.05,-0.23a0.22,0.22 0 0 1 0,-0.08s0,-0.07 0,-0.1l0.12,-0.43l0.05,-0.12l0.06,-0.22c0.05,-0.14 0.1,-0.29 0.16,-0.43a1.19,1.19 0 0 1 0.08,-0.2l0.12,-0.28c0.12,-0.28 0.26,-0.55 0.39,-0.82s0.27,-0.5 0.41,-0.73a17.45,17.45 0 0 1 1.32,-1.9l0,-0.12zm10.9,34.6l-0.06,0a1.24,1.24 0 0 1 -0.61,0l-0.1,0a1.27,1.27 0 0 1 -0.18,-0.06a1.41,1.41 0 0 1 -0.41,-0.25l-0.15,-0.14a3.74,3.74 0 0 1 -0.72,-1.14a3.67,3.67 0 0 0 -0.22,1.17a1.87,1.87 0 0 0 0.91,1.75a3.4,3.4 0 0 1 0.95,0.94l0,0l0,0a0.07,0.07 0 0 0 0,-0.06l0,0a0.25,0.25 0 0 1 0,-0.08a0.24,0.24 0 0 1 0,-0.08a5.45,5.45 0 0 1 0.43,-1.19l0.21,-0.41l0.09,-0.13a1.71,1.71 0 0 1 0.13,-0.23l0.09,-0.14l0.15,-0.24a1.78,1.78 0 0 1 -11.54,-23.73l11.03,24.02zm-10.9,-34.6l-12.33,-26.88l-0.52,0.14l1.36,2.85l9.8,20.65c-0.21,0.27 -3.1,3.73 -3,7a4.71,4.71 0 0 0 0.25,1.49c0.5,1.46 1.12,2.05 1.68,2.21c0,-0.09 0,-0.17 0,-0.25a6.16,6.16 0 0 1 0,-1a0.53,0.53 0 0 1 0,-0.13s0,-0.09 0,-0.14l0,0a0.22,0.22 0 0 0 0,-0.08l0,0l0,0a0.25,0.25 0 0 1 0,-0.08l0,0a0.56,0.56 0 0 1 0,-0.12s0,0 0,0a1.55,1.55 0 0 1 0.05,-0.23a0.22,0.22 0 0 1 0,-0.08s0,-0.07 0,-0.1l0.12,-0.43l0.05,-0.12l0.06,-0.22c0.05,-0.14 0.1,-0.29 0.16,-0.43a1.19,1.19 0 0 1 0.08,-0.2l0.12,-0.28c0.12,-0.28 0.26,-0.55 0.39,-0.82s0.27,-0.5 0.41,-0.73a17.45,17.45 0 0 1 1.32,-1.9l0,-0.12zm10.9,34.6l-0.06,0a1.24,1.24 0 0 1 -0.61,0l-0.1,0a1.27,1.27 0 0 1 -0.18,-0.06a1.41,1.41 0 0 1 -0.41,-0.25l-0.15,-0.14a3.74,3.74 0 0 1 -0.72,-1.14a3.67,3.67 0 0 0 -0.22,1.17a1.87,1.87 0 0 0 0.91,1.75a3.4,3.4 0 0 1 0.95,0.94l0,0l0,0a0.07,0.07 0 0 0 0,-0.06l0,0a0.25,0.25 0 0 1 0,-0.08a0.24,0.24 0 0 1 0,-0.08a5.45,5.45 0 0 1 0.43,-1.19l0.21,-0.41l0.09,-0.13a1.71,1.71 0 0 1 0.13,-0.23l0.09,-0.14l0.15,-0.24a1.78,1.78 0 0 1 -11.54,-23.73l11.03,24.02zm-10.9,-34.6l-12.33,-26.88l-0.52,0.14l1.36,2.85l9.8,20.65c-0.21,0.27 -3.1,3.73 -3,7a4.71,4.71 0 0 0 0.25,1.49c0.5,1.46 1.12,2.05 1.68,2.21c0,-0.09 0,-0.17 0,-0.25a6.16,6.16 0 0 1 0,-1a0.53,0.53 0 0 1 0,-0.13s0,-0.09 0,-0.14l0,0a0.22,0.22 0 0 0 0,-0.08l0,0l0,-0.05a0.25,0.25 0 0 1 0,-0.08l0,0a0.56,0.56 0 0 1 0,-0.12s0,0 0,0a1.55,1.55 0 0 1 0.05,-0.23a0.22,0.22 0 0 1 0,-0.08s0,-0.07 0,-0.1l0.12,-0.43l0.05,-0.12l0.06,-0.22c0.05,-0.14 0.1,-0.29 0.16,-0.43a1.19,1.19 0 0 1 0.08,-0.2l0.12,-0.28c0.12,-0.28 0.26,-0.55 0.39,-0.82s0.27,-0.5 0.41,-0.73a17.45,17.45 0 0 1 1.32,-1.9l0,-0.07zm10.9,34.6l-0.06,0a1.24,1.24 0 0 1 -0.61,0l-0.1,0a0.64,0.64 0 0 1 -0.18,-0.06a1.41,1.41 0 0 1 -0.41,-0.25l-0.15,-0.14a3.74,3.74 0 0 1 -0.72,-1.14a3.67,3.67 0 0 0 -0.22,1.17a1.87,1.87 0 0 0 0.91,1.75a3.4,3.4 0 0 1 0.95,0.94l0,0l0,0a0.41,0.41 0 0 1 0,-0.16a0.24,0.24 0 0 1 0,-0.08a5.45,5.45 0 0 1 0.43,-1.19l0.21,-0.41l0.22,-0.36l0.09,-0.14l0.15,-0.24a1.78,1.78 0 0 1 -11.54,-23.71l11.03,24.02zm-2.2,-6.21c0.05,-0.14 0.1,-0.29 0.16,-0.43s0.05,-0.14 0.08,-0.2a1.39,1.39 0 0 1 0.12,-0.28c0.12,-0.28 0.26,-0.55 0.39,-0.82s0.27,-0.5 0.41,-0.73a17.45,17.45 0 0 1 1.32,-1.9l-11.13,-24l-12.38,-26.91l-0.52,0.14l1.36,2.85l9.8,20.65c-0.21,0.27 -3.1,3.73 -3,7a4.71,4.71 0 0 0 0.25,1.49c0.5,1.46 1.12,2.05 1.68,2.21c0,-0.09 0,-0.17 0,-0.25a6.16,6.16 0 0 1 0,-1a0.62,0.62 0 0 1 0,-0.13s0,-0.09 0,-0.14a2.17,2.17 0 0 1 0,-0.25l0,0l0.06,-0.3l0,-0.14l0,-0.11l0.12,-0.43c0.12,-0.11 0.16,-0.22 0.25,-0.34l11.03,24.02zm152.71,-133.96a8.46,8.46 0 0 0 -4.76,-3.05a7.14,7.14 0 0 0 -5.47,1.26c0.45,-0.49 2.93,-3.19 5,-5.86c2.46,-3.13 4.41,-6.23 2,-5.72c-4.65,1 -13.24,11.39 -13.24,11.39l-1.76,3.14l0,0l-5.1,9.11l-0.54,1a27.43,27.43 0 0 0 -5.11,0.63l-0.58,0.77c-0.87,1.19 -2.43,3.5 -2.6,4.93c-0.24,2 -8.59,5.69 -12,7.67s-6.62,8.42 -6.62,8.42s-11.29,1 -14.48,4c-2.23,2.08 -7.68,2.1 -10.77,1.92l0,0l-0.79,-0.05c-0.88,-0.06 -1.43,-0.13 -1.43,-0.13s-3.19,-3.47 -5.64,-3.72a24.52,24.52 0 0 0 -4.66,0s-1.29,-0.43 -3.16,-1l-0.52,-0.15c-0.44,-0.12 -0.91,-0.25 -1.41,-0.37l-0.38,-0.1a6,6 0 0 0 -12.72,-30.86a5.91,5.91 0 0 0 0.67,-1.23l0,0a5,5 0 0 0 0.31,-2.62a7.54,7.54 0 0 0 -1.05,-2.64c-0.31,-0.49 -0.63,-1 -0.93,-1.47a23.07,23.07 0 0 1 -3.08,-8.7s0,0 0,0a23.66,23.66 0 0 1 2.26,-14.34a34.32,34.32 0 0 1 2,-3.33l1.13,-1.59l0.71,-1l0.79,-1.11l0,0l0.76,-1.07a28.07,28.07 0 0 0 2.89,-5.05c0.16,-0.35 0.28,-0.71 0.42,-1.07c0,-0.12 0.07,-0.25 0.11,-0.37s0.16,-0.49 0.22,-0.73s0.08,-0.29 0.11,-0.44a5.58,5.58 0 0 0 0.16,-0.68c0,-0.16 0.07,-0.32 0.1,-0.47s0.08,-0.45 0.11,-0.67s0,-0.32 0.07,-0.49l0.06,-0.67a3.75,3.75 0 0 0 0,-0.47s0,0 0,0l0,0q0,-0.35 0,-0.69l0,-0.45c0,-0.37 0,-0.74 0,-1.11c0,-0.15 0,-0.31 0,-0.47s0,-0.44 -0.07,-0.67s0,-0.37 -0.07,-0.56s-0.06,-0.38 -0.08,-0.57l-0.12,-0.58c0,-0.18 -0.07,-0.36 -0.11,-0.53l-0.15,-0.6c0,-0.17 -0.09,-0.34 -0.13,-0.5s-0.13,-0.41 -0.19,-0.6a4.59,4.59 0 0 0 -0.17,-0.48c-0.07,-0.2 -0.13,-0.4 -0.22,-0.6s-0.12,-0.29 -0.17,-0.43a18.35,18.35 0 0 0 -2.1,-3.71l-1.46,-1.82l0,0l-0.39,-0.49a2.15,2.15 0 0 0 -0.14,-0.26c-0.09,-0.17 -0.18,-0.34 -0.26,-0.52c-0.74,-1.46 -1.34,-3 -1.95,-4.53c-0.17,-0.47 -0.37,-0.93 -0.56,-1.4c0,-0.1 -0.08,-0.2 -0.11,-0.3c-0.3,-0.72 -0.61,-1.42 -0.94,-2.12c-0.25,-0.52 -0.52,-1 -0.79,-1.54c-0.09,-0.16 -0.18,-0.31 -0.26,-0.47l-0.63,-1l-0.31,-0.5l-0.67,-1l-0.3,-0.43c-0.32,-0.45 -0.64,-0.89 -1,-1.33l0,0c-0.35,-0.46 -0.73,-0.91 -1.09,-1.36l-0.3,-0.34l-0.87,-1l-0.34,-0.38l-0.91,-1l-0.31,-0.32c-1.42,-1.47 -2.92,-2.89 -4.45,-4.28l-0.79,-0.71l0,0l-2.78,-2.47l-1,-0.83c-0.29,-0.26 -0.61,-0.52 -0.91,-0.77a25,25 0 0 0 -7,-4.52a22.33,22.33 0 0 0 -10.34,-1.06a35.19,35.19 0 0 0 -15.76,5.51c-0.38,0.24 -0.74,0.5 -1.11,0.77a29.25,29.25 0 0 0 -5.61,5.23c-0.28,0.33 -0.54,0.67 -0.8,1s-0.44,0.61 -0.66,0.93c-2.46,3.63 -4,7.79 -5.59,11.9c-5.43,14.39 -10.94,29.25 -11.71,44.48c0,0.26 0,0.51 -0.05,0.77c-0.08,1.92 -0.08,3.85 0,5.79l0,0a0.76,0.76 0 0 0 0,0.15c0,0.38 0,0.75 0.06,1.13c0.36,5.74 1.5,11.48 2.36,17.2l-0.59,0.21c-7,2.66 -8.3,8 -8.3,8a0.12,0.12 0 0 1 0,0.05l0,0a8.54,8.54 0 0 1 0.1,1.33a18.63,18.63 0 0 1 -2.61,9.24l-0.44,0.74l0,0c-2.19,3.6 -2.61,6 -2.56,7.49a4.19,4.19 0 0 0 0.34,1.66l0,0l0,0l0,0.09a1.21,1.21 0 0 0 0,0.18l0,0.09l0,0a20,20 0 0 1 -3.55,6.3c-2.45,2.73 -9.08,29.72 -9.08,29.72a5.21,5.21 0 0 1 0.44,2.16l0,0a4.23,4.23 0 0 1 -0.41,1.72l0,0s0,0 0,0a3.09,3.09 0 0 0 0.36,2.77l0,0a10.4,10.4 0 0 0 1.6,2.16s1.48,-0.49 -1,2.23l-0.15,0.18l0,0a2.87,2.87 0 0 0 0.19,3.59a9.72,9.72 0 0 0 2.19,2.18s20.11,34.65 24.28,38.37s8.34,13.37 8.34,13.37s0.42,-0.67 1.11,-1.71c0.32,-0.52 0.74,-1.13 1.17,-1.79l1.28,1.67l0,0l2.59,3.39l-1,1.95l0,0a45.57,45.57 0 0 0 -2.67,6a1.49,1.49 0 0 0 -0.07,0.55a2.18,2.18 0 0 0 0.66,1.42c-5,6.56 -16.9,24.8 -16,47.26l0,0l0,0.57c0,0.06 0,0.13 0,0.19a60.24,60.24 0 0 0 5.82,22.62a48.37,48.37 0 0 1 0.5,6.79l0,0a3.07,3.07 0 0 1 -0.26,1.34a7.17,7.17 0 0 0 0.09,2.76l0,0c0.66,4.93 2.87,14.55 2.87,14.55s0,0.93 0,2.48l0,0.05c0,0.72 0,1.58 0,2.54c0.11,8.59 0.29,25.45 -0.07,29.1c-0.21,2.1 -0.42,3.79 -0.59,5c-0.24,1.72 -0.39,2.63 -0.39,2.63s-0.09,0.63 -0.23,1.77c0,0.41 -0.11,0.88 -0.17,1.42c-0.82,6.76 -2.71,23.17 -3.83,38.55c0,0.67 -0.1,1.34 -0.14,2c-0.57,8.2 -0.88,16 -0.66,21.64c0,0.17 0,0.34 0,0.5s0,0.23 0,0.35c0.06,1.44 0.17,2.73 0.32,3.84c0.5,3.6 0.94,7.83 1.3,12.22c0,0.47 0.08,0.95 0.13,1.42c0.64,8 1.11,16.4 1.39,22.46c0,0.16 0,0.31 0,0.46l0,0.72a1.1,1.1 0 0 0 0,0.26a0.37,0.37 0 0 0 0,0.11c0,0.35 0,0.69 0,1c0,0.06 0,0.13 0,0.19s0,0.32 0,0.47s0,0.51 0,0.75s0,0.72 0,1a0,0 0 0 0 0,0l0,0.56l0,0.1c0,0.63 0,1.21 0.06,1.73c0,0.82 0.06,1.27 0.06,1.27l0,0.14l0,0a0.17,0.17 0 0 1 0,0.07l0,0.12l0.84,7l4.34,35.34l1.32,11.13l2.82,24.07l10.1,-1.91l0.1,1.1l0.34,3.73l0,0l2.82,-0.27c0,0.36 -0.05,0.72 -0.07,1.08c-0.48,8.36 -0.32,16.82 -0.32,16.82l0.11,0c3.09,0.57 6.07,1 9,1.26l0,8.72l4.67,0l-0.61,-7.49l-0.08,-0.91l0.09,0a98.68,98.68 0 0 0 18.65,-0.66l0.56,-0.07l0.75,0.86l7.14,8.18s14,0.74 26.25,-2c9.23,-2 18.87,-11.09 19.21,-14.51l0,0c0.12,-1.12 -0.78,-1.63 -3,-1.08c-6.6,1.62 -17.86,0 -23.51,-1c-1.25,-2.88 -4.85,-11.15 -7.65,-17.74l-0.43,-1c4.13,-3.12 7.3,-7.1 7.72,-9.18c0.27,-1.24 -0.44,-1.8 -2.5,-1.09a28.84,28.84 0 0 1 -7.57,1.24l0,0l-1,0a1.27,1.27 0 0 0 0.13,-0.19c2,-2.76 2.35,-6.55 2.12,-10.11a34.41,34.41 0 0 0 -0.48,-3.84l0,0c0,-0.07 0,-0.14 0,-0.21a45.64,45.64 0 0 0 -1.2,-4.92c0,-0.11 -0.06,-0.22 -0.09,-0.31c-0.19,-0.57 -0.31,-0.89 -0.31,-0.89s2.79,-19.52 3.7,-33.49a77.26,77.26 0 0 0 0.16,-10.87l0,0a0.13,0.13 0 0 0 0,-0.06a6,6 0 0 0 -0.66,-2.62a5.42,5.42 0 0 1 -0.83,-2a0.17,0.17 0 0 0 0,-0.07c-1.24,-5.54 1.55,-17 3,-20a25.69,25.69 0 0 0 1.21,-3c1.39,-4 2.73,-9.46 2.73,-12.15a30.86,30.86 0 0 1 1.47,-7.92c4.55,-6.54 5.85,-15.65 6.16,-21.9a60.14,60.14 0 0 0 0,-7.08a273.9,273.9 0 0 1 1.52,-31.23c0.22,-2 0.48,-4 0.77,-6.06c0.45,-3.14 1,-6.26 1.64,-9.26c1.94,-9 1.12,-25.13 -0.4,-40.48c0,-0.45 -0.09,-0.89 -0.13,-1.33a0.38,0.38 0 0 1 0,-0.1c-1.52,-14.9 -3.67,-28.8 -4.55,-34.32l0,0c-0.27,-1.59 -0.42,-2.49 -0.42,-2.49a47.15,47.15 0 0 0 1.76,-10.74l0,0a0,0 0 0 0 0,0a9.78,9.78 0 0 0 -0.91,-4.81a4.41,4.41 0 0 1 -0.55,-1.47l0,0a1.15,1.15 0 0 1 0,-0.19a24,24 0 0 1 -0.2,-5.59l0,0c0,-0.66 0.09,-1.32 0.16,-2l0,-0.1s0,-0.07 0,-0.1l0.12,-1.2c0.09,-0.7 0.16,-1.39 0.26,-2.08a8.39,8.39 0 0 0 0.85,-0.42a6.6,6.6 0 0 0 1.33,-0.93c4.45,-4 5,-14.25 4.31,-24.66a0.38,0.38 0 0 1 0,-0.1c0,-0.1 0,-0.19 0,-0.29a197.78,197.78 0 0 0 -4,-26s0,0 0,0a1.7,1.7 0 0 0 0,-0.22c-0.16,-0.54 -0.25,-0.89 -0.25,-0.89s0,-7.32 -0.43,-14.36a0.49,0.49 0 0 1 0,-0.12c0,-0.06 0,-0.12 0,-0.18c-0.37,-5.8 -1,-11.32 -2.25,-12.33c-0.72,-0.6 -1.16,-2.27 -1.42,-4.41c0,0 0,-0.05 0,-0.07a1,1 0 0 1 0,-0.17a99.59,99.59 0 0 1 0,-14.67a29,29 0 0 0 3.85,-12.63l0,0a20.52,20.52 0 0 0 -0.07,-2.41c0,-0.16 0,-0.32 -0.06,-0.47a6.2,6.2 0 0 0 -0.11,-0.77a13.9,13.9 0 0 0 -0.68,-2.69q1.26,-0.22 2.67,-0.57l0.79,-0.2l0,0c13.1,-3.36 33.64,-13 37.76,-14.41c5.65,-2 7.36,-10.15 7.36,-10.15s0.52,-0.44 1.38,-1.24a68,68 0 0 0 11.33,-13.77l0,0a40.74,40.74 0 0 0 3.79,-7.9l0,0a29.34,29.34 0 0 0 1.15,-4.3a13.59,13.59 0 0 0 0.2,-1.43l0,0c0,-0.06 0,-0.12 0,-0.18l0.95,-0.85l0,0l0,0c4.4,-4 10.74,-10.34 12.43,-15.11c0.42,-1.99 0.41,-3.53 -0.57,-4.66l13.23,30.23zm-280.76,502.75c-0.08,2.29 -0.24,4.41 -0.38,6.22l0,0l0,0c-0.31,3.57 -0.64,5.92 -0.64,5.92a4.1,4.1 0 0 0 -0.71,0.77a9.82,9.82 0 0 0 -1.09,2.18l-0.24,-5.93s138.81,-174.21 140.34,-179.56l-137.28,170.4zm95.45,-615.27c-0.07,-0.23 -0.15,-0.45 -0.22,-0.68l0,0l1.1,-0.22l0,0c0.93,-0.18 1.83,-0.41 2.75,-0.67l0.35,0.74l1.36,2.85l9.8,20.65c-0.21,0.27 -3.1,3.73 -3,7a4.71,4.71 0 0 0 0.25,1.49c0.5,1.46 1.12,2.05 1.68,2.21l0,0a1.66,1.66 0 0 0 1.44,-0.34a8.39,8.39 0 0 0 -1,1.86l0,0s0,0 0,0a3.67,3.67 0 0 0 -0.22,1.17a1.87,1.87 0 0 0 0.91,1.75a3.4,3.4 0 0 1 0.95,0.94l0,0a4.32,4.32 0 0 1 0.66,1.94l0,0s0,0 0,0.07l0,0a5.24,5.24 0 0 1 0,0.55c0,0.12 0,0.22 0,0.32l-1.31,-0.39l-2.89,-0.86a3.54,3.54 0 0 1 1.56,-1.12l-8.92,-19.6s-1.89,-8.44 -4.36,-16.78l-0.89,-2.88zm20,394.64l-0.19,-1l-0.05,-0.3l0.39,-0.07a3,3 0 0 0 0,0.31c6.92,192.51 6.88,192.87 6.85,193.24l-7,-192.18zm-14.13,-392.75l5.7,189.32l-0.52,0.14l1.36,2.85l9.8,20.65c-0.21,0.27 -3.1,3.73 -3,7a4.71,4.71 0 0 0 0.25,1.49c0.5,1.46 1.12,2.05 1.68,2.21c0,-0.09 0,-0.17 0,-0.25a6.16,6.16 0 0 1 0,-1a0.53,0.53 0 0 1 0,-0.13s0,-0.09 0,-0.14l0,0a0.22,0.22 0 0 0 0,-0.08l0,0a0.09,0.09 0 0 1 0,-0.05a0.25,0.25 0 0 1 0,-0.08l0,0a0.56,0.56 0 0 1 0,-0.12s0,0 0,0a0.88,0.88 0 0 0 0,-0.16l0,-0.14l0,0s0,-0.07 0,-0.1l0.12,-0.43l0.05,-0.12l0.06,-0.22c0.05,-0.14 0.1,-0.29 0.16,-0.43s0.05,-0.14 0.08,-0.2a1.39,1.39 0 0 1 0.12,-0.28c0.12,-0.28 0.26,-0.55 0.39,-0.82s0.27,-0.5 0.41,-0.73a17.45,17.45 0 0 1 1.32,-1.9l-17.98,-216.28zm25.03,427.35l-0.06,0a1.24,1.24 0 0 1 -0.61,0l-0.1,0a1.27,1.27 0 0 1 -0.18,-0.06a1.41,1.41 0 0 1 -0.41,-0.25l-0.15,-0.14a3.74,3.74 0 0 1 -0.72,-1.14a3.67,3.67 0 0 0 -0.22,1.17a1.87,1.87 0 0 0 0.91,1.75a3.4,3.4 0 0 1 0.95,0.94l0,0l0,0a0.41,0.41 0 0 1 0,-0.16a0.24,0.24 0 0 1 0,-0.08a5.45,5.45 0 0 1 0.43,-1.19l0.21,-0.41l0.09,-0.13a1.71,1.71 0 0 1 0.13,-0.23l0.09,-0.14l0.15,-0.24a1.78,1.78 0 0 1 -7.64,-200.26l7.13,200.57zm-10.9,-34.6l-8.43,-203.43l-0.52,0.14l1.36,2.85l9.8,20.65c-0.21,0.27 -3.1,3.73 -3,7a4.71,4.71 0 0 0 0.25,1.49c0.5,1.46 1.12,2.05 1.68,2.21c0,-0.09 0,-0.17 0,-0.25a6.16,6.16 0 0 1 0,-1a0.53,0.53 0 0 1 0,-0.13s0,-0.09 0,-0.14l0,0a0.22,0.22 0 0 0 0,-0.08l0,0l0,0a0.25,0.25 0 0 1 0,-0.08l0,0a0.56,0.56 0 0 1 0,-0.12s0,0 0,0a1.55,1.55 0 0 1 0.05,-0.23a0.22,0.22 0 0 1 0,-0.08s0,-0.07 0,-0.1l0.12,-0.43l0.05,-0.12l0.06,-0.22c0.05,-0.14 0.1,-0.29 0.16,-0.43a1.19,1.19 0 0 1 0.08,-0.2l0.12,-0.28c0.12,-0.28 0.26,-0.55 0.39,-0.82s0.27,-0.5 0.41,-0.73a17.45,17.45 0 0 1 1.32,-1.9l-3.9,176.43zm10.9,34.6l-0.06,0a1.24,1.24 0 0 1 -0.61,0l-0.1,0a1.27,1.27 0 0 1 -0.18,-0.06a1.41,1.41 0 0 1 -0.41,-0.25l-0.15,-0.14a3.74,3.74 0 0 1 -0.72,-1.14a3.67,3.67 0 0 0 -0.22,1.17a1.87,1.87 0 0 0 0.91,1.75a3.4,3.4 0 0 1 0.95,0.94l0,0l0,0a0.07,0.07 0 0 0 0,-0.06l0,0a0.25,0.25 0 0 1 0,-0.08a0.24,0.24 0 0 1 0,-0.08a5.45,5.45 0 0 1 0.43,-1.19l0.21,-0.41l0.09,-0.13a1.71,1.71 0 0 1 0.13,-0.23l0.09,-0.14l0.15,-0.24a1.78,1.78 0 0 1 -7.64,-200.28l7.13,200.57zm-10.9,-34.6l-8.43,-203.43l-0.52,0.14l1.36,2.85l9.8,20.65c-0.21,0.27 -3.1,3.73 -3,7a4.71,4.71 0 0 0 0.25,1.49c0.5,1.46 1.12,2.05 1.68,2.21c0,-0.09 0,-0.17 0,-0.25a6.16,6.16 0 0 1 0,-1a0.53,0.53 0 0 1 0,-0.13s0,-0.09 0,-0.14l0,0a0.22,0.22 0 0 0 0,-0.08l0,0l0,0a0.25,0.25 0 0 1 0,-0.08l0,0a0.56,0.56 0 0 1 0,-0.12s0,0 0,0a1.55,1.55 0 0 1 0.05,-0.23a0.22,0.22 0 0 1 0,-0.08s0,-0.07 0,-0.1l0.12,-0.43l0.05,-0.12l0.06,-0.22c0.05,-0.14 0.1,-0.29 0.16,-0.43a1.19,1.19 0 0 1 0.08,-0.2l0.12,-0.28c0.12,-0.28 0.26,-0.55 0.39,-0.82s0.27,-0.5 0.41,-0.73a17.45,17.45 0 0 1 1.32,-1.9l-3.9,176.43zm10.9,34.6l-0.06,0a1.24,1.24 0 0 1 -0.61,0l-0.1,0a1.27,1.27 0 0 1 -0.18,-0.06a1.41,1.41 0 0 1 -0.41,-0.25l-0.15,-0.14a3.74,3.74 0 0 1 -0.72,-1.14a3.67,3.67 0 0 0 -0.22,1.17a1.87,1.87 0 0 0 0.91,1.75a3.4,3.4 0 0 1 0.95,0.94l0,0l0,0a0.07,0.07 0 0 0 0,-0.06l0,0a0.25,0.25 0 0 1 0,-0.08a0.24,0.24 0 0 1 0,-0.08a5.45,5.45 0 0 1 0.43,-1.19l0.21,-0.41l0.09,-0.13a1.71,1.71 0 0 1 0.13,-0.23l0.09,-0.14l0.15,-0.24a1.78,1.78 0 0 1 -7.64,-200.28l7.13,200.57zm-10.9,-34.6l-8.43,-203.43l-0.52,0.14l1.36,2.85l9.8,20.65c-0.21,0.27 -3.1,3.73 -3,7a4.71,4.71 0 0 0 0.25,1.49c0.5,1.46 1.12,2.05 1.68,2.21c0,-0.09 0,-0.17 0,-0.25a6.16,6.16 0 0 1 0,-1a0.53,0.53 0 0 1 0,-0.13s0,-0.09 0,-0.14l0,0a0.22,0.22 0 0 0 0,-0.08l0,0l0,0a0.25,0.25 0 0 1 0,-0.08l0,0a0.56,0.56 0 0 1 0,-0.12s0,0 0,0a1.55,1.55 0 0 1 0.05,-0.23a0.22,0.22 0 0 1 0,-0.08s0,-0.07 0,-0.1l0.12,-0.43l0.05,-0.12l0.06,-0.22c0.05,-0.14 0.1,-0.29 0.16,-0.43a1.19,1.19 0 0 1 0.08,-0.2l0.12,-0.28c0.12,-0.28 0.26,-0.55 0.39,-0.82s0.27,-0.5 0.41,-0.73a17.45,17.45 0 0 1 1.32,-1.9l-3.9,176.43zm10.9,34.6l-0.06,0a1.24,1.24 0 0 1 -0.61,0l-0.1,0a1.27,1.27 0 0 1 -0.18,-0.06a1.41,1.41 0 0 1 -0.41,-0.25l-0.15,-0.14a3.74,3.74 0 0 1 -0.72,-1.14a3.67,3.67 0 0 0 -0.22,1.17a1.87,1.87 0 0 0 0.91,1.75a3.4,3.4 0 0 1 0.95,0.94l0,0l0,0a0.07,0.07 0 0 0 0,-0.06l0,0a0.25,0.25 0 0 1 0,-0.08a0.24,0.24 0 0 1 0,-0.08a5.45,5.45 0 0 1 0.43,-1.19l0.21,-0.41l0.09,-0.13a1.71,1.71 0 0 1 0.13,-0.23l0.09,-0.14l0.15,-0.24a1.78,1.78 0 0 1 -7.64,-200.28l7.13,200.57zm-10.9,-34.6l-8.43,-203.43l-0.52,0.14l1.36,2.85l9.8,20.65c-0.21,0.27 -3.1,3.73 -3,7a4.71,4.71 0 0 0 0.25,1.49c0.5,1.46 1.12,2.05 1.68,2.21c0,-0.09 0,-0.17 0,-0.25a6.16,6.16 0 0 1 0,-1a0.53,0.53 0 0 1 0,-0.13s0,-0.09 0,-0.14l0,0a0.22,0.22 0 0 0 0,-0.08l0,0l0,0a0.25,0.25 0 0 1 0,-0.08l0,0a0.56,0.56 0 0 1 0,-0.12s0,0 0,0a1.55,1.55 0 0 1 0.05,-0.23a0.22,0.22 0 0 1 0,-0.08s0,-0.07 0,-0.1l0.12,-0.43l0.05,-0.12l0.06,-0.22c0.05,-0.14 0.1,-0.29 0.16,-0.43a1.19,1.19 0 0 1 0.08,-0.2l0.12,-0.28c0.12,-0.28 0.26,-0.55 0.39,-0.82s0.27,-0.5 0.41,-0.73a17.45,17.45 0 0 1 1.32,-1.9l-3.9,176.43zm10.9,34.6l-0.06,0a1.24,1.24 0 0 1 -0.61,0l-0.1,0a1.27,1.27 0 0 1 -0.18,-0.06a1.41,1.41 0 0 1 -0.41,-0.25l-0.15,-0.14a3.74,3.74 0 0 1 -0.72,-1.14a3.67,3.67 0 0 0 -0.22,1.17a1.87,1.87 0 0 0 0.91,1.75a3.4,3.4 0 0 1 0.95,0.94l0,0l0,0a0.07,0.07 0 0 0 0,-0.06l0,0a0.25,0.25 0 0 1 0,-0.08a0.24,0.24 0 0 1 0,-0.08a5.45,5.45 0 0 1 0.43,-1.19l0.21,-0.41l0.09,-0.13a1.71,1.71 0 0 1 0.13,-0.23l0.09,-0.14l0.15,-0.24a1.78,1.78 0 0 1 -7.64,-200.28l7.13,200.57zm-10.9,-34.6l-8.43,-203.43l-0.52,0.14l1.36,2.85l9.8,20.65c-0.21,0.27 -3.1,3.73 -3,7a4.71,4.71 0 0 0 0.25,1.49c0.5,1.46 1.12,2.05 1.68,2.21c0,-0.09 0,-0.17 0,-0.25a6.16,6.16 0 0 1 0,-1a0.53,0.53 0 0 1 0,-0.13s0,-0.09 0,-0.14l0,0a0.22,0.22 0 0 0 0,-0.08l0,0l0,0a0.25,0.25 0 0 1 0,-0.08l0,0a0.56,0.56 0 0 1 0,-0.12s0,0 0,0a1.55,1.55 0 0 1 0.05,-0.23a0.22,0.22 0 0 1 0,-0.08s0,-0.07 0,-0.1l0.12,-0.43l0.05,-0.12l0.06,-0.22c0.05,-0.14 0.1,-0.29 0.16,-0.43a1.19,1.19 0 0 1 0.08,-0.2l0.12,-0.28c0.12,-0.28 0.26,-0.55 0.39,-0.82s0.27,-0.5 0.41,-0.73a17.45,17.45 0 0 1 1.32,-1.9l-3.9,176.43zm10.9,34.6l-0.06,0a1.24,1.24 0 0 1 -0.61,0l-0.1,0a1.27,1.27 0 0 1 -0.18,-0.06a1.41,1.41 0 0 1 -0.41,-0.25l-0.15,-0.14a3.74,3.74 0 0 1 -0.72,-1.14a3.67,3.67 0 0 0 -0.22,1.17a1.87,1.87 0 0 0 0.91,1.75a3.4,3.4 0 0 1 0.95,0.94l0,0l0,0a0.07,0.07 0 0 0 0,-0.06l0,0a0.25,0.25 0 0 1 0,-0.08a0.24,0.24 0 0 1 0,-0.08a5.45,5.45 0 0 1 0.43,-1.19l0.21,-0.41l0.09,-0.13a1.71,1.71 0 0 1 0.13,-0.23l0.09,-0.14l0.15,-0.24a1.78,1.78 0 0 1 -7.64,-200.28l7.13,200.57zm-10.9,-34.6l-8.43,-203.43l-0.52,0.14l1.36,2.85l9.8,20.65c-0.21,0.27 -3.1,3.73 -3,7a4.71,4.71 0 0 0 0.25,1.49c0.5,1.46 1.12,2.05 1.68,2.21c0,-0.09 0,-0.17 0,-0.25a6.16,6.16 0 0 1 0,-1a0.53,0.53 0 0 1 0,-0.13s0,-0.09 0,-0.14l0,0a0.22,0.22 0 0 0 0,-0.08l0,0l0,0a0.25,0.25 0 0 1 0,-0.08l0,0a0.56,0.56 0 0 1 0,-0.12s0,0 0,0a1.55,1.55 0 0 1 0.05,-0.23a0.22,0.22 0 0 1 0,-0.08s0,-0.07 0,-0.1l0.12,-0.43l0.05,-0.12l0.06,-0.22c0.05,-0.14 0.1,-0.29 0.16,-0.43a1.19,1.19 0 0 1 0.08,-0.2l0.12,-0.28c0.12,-0.28 0.26,-0.55 0.39,-0.82s0.27,-0.5 0.41,-0.73a17.45,17.45 0 0 1 1.32,-1.9l-3.9,176.43zm10.9,34.6l-0.06,0a1.24,1.24 0 0 1 -0.61,0l-0.1,0a1.27,1.27 0 0 1 -0.18,-0.06a1.41,1.41 0 0 1 -0.41,-0.25l-0.15,-0.14a3.74,3.74 0 0 1 -0.72,-1.14a3.67,3.67 0 0 0 -0.22,1.17a1.87,1.87 0 0 0 0.91,1.75a3.4,3.4 0 0 1 0.95,0.94l0,0l0,0a0.07,0.07 0 0 0 0,-0.06l0,0a0.25,0.25 0 0 1 0,-0.08a0.24,0.24 0 0 1 0,-0.08a5.45,5.45 0 0 1 0.43,-1.19l0.21,-0.41l0.09,-0.13a1.71,1.71 0 0 1 0.13,-0.23l0.09,-0.14l0.15,-0.24a1.78,1.78 0 0 1 -7.64,-200.28l7.13,200.57zm-10.9,-34.6l-8.43,-203.43l-0.52,0.14l1.36,2.85l9.8,20.65c-0.21,0.27 -3.1,3.73 -3,7a4.71,4.71 0 0 0 0.25,1.49c0.5,1.46 1.12,2.05 1.68,2.21c0,-0.09 0,-0.17 0,-0.25a6.16,6.16 0 0 1 0,-1a0.53,0.53 0 0 1 0,-0.13s0,-0.09 0,-0.14l0,0a0.22,0.22 0 0 0 0,-0.08l0,0l0,0a0.25,0.25 0 0 1 0,-0.08l0,0a0.56,0.56 0 0 1 0,-0.12s0,0 0,0a1.55,1.55 0 0 1 0.05,-0.23a0.22,0.22 0 0 1 0,-0.08s0,-0.07 0,-0.1l0.12,-0.43l0.05,-0.12l0.06,-0.22c0.05,-0.14 0.1,-0.29 0.16,-0.43a1.19,1.19 0 0 1 0.08,-0.2l0.12,-0.28c0.12,-0.28 0.26,-0.55 0.39,-0.82s0.27,-0.5 0.41,-0.73a17.45,17.45 0 0 1 1.32,-1.9l-3.9,176.43zm10.9,34.6l-0.06,0a1.24,1.24 0 0 1 -0.61,0l-0.1,0a1.27,1.27 0 0 1 -0.18,-0.06a1.41,1.41 0 0 1 -0.41,-0.25l-0.15,-0.14a3.74,3.74 0 0 1 -0.72,-1.14a3.67,3.67 0 0 0 -0.22,1.17a1.87,1.87 0 0 0 0.91,1.75a3.4,3.4 0 0 1 0.95,0.94l0,0l0,0a0.07,0.07 0 0 0 0,-0.06l0,0a0.25,0.25 0 0 1 0,-0.08a0.24,0.24 0 0 1 0,-0.08a5.45,5.45 0 0 1 0.43,-1.19l0.21,-0.41l0.09,-0.13a1.71,1.71 0 0 1 0.13,-0.23l0.09,-0.14l0.15,-0.24a1.78,1.78 0 0 1 -7.64,-200.28l7.13,200.57zm-10.9,-34.6l-8.43,-203.43l-0.52,0.14l1.36,2.85l9.8,20.65c-0.21,0.27 -3.1,3.73 -3,7a4.71,4.71 0 0 0 0.25,1.49c0.5,1.46 1.12,2.05 1.68,2.21c0,-0.09 0,-0.17 0,-0.25a6.16,6.16 0 0 1 0,-1a0.53,0.53 0 0 1 0,-0.13s0,-0.09 0,-0.14l0,0a0.22,0.22 0 0 0 0,-0.08l0,0l0,0a0.25,0.25 0 0 1 0,-0.08l0,0a0.56,0.56 0 0 1 0,-0.12s0,0 0,0a1.55,1.55 0 0 1 0.05,-0.23a0.22,0.22 0 0 1 0,-0.08s0,-0.07 0,-0.1l0.12,-0.43l0.05,-0.12l0.06,-0.22c0.05,-0.14 0.1,-0.29 0.16,-0.43a1.19,1.19 0 0 1 0.08,-0.2l0.12,-0.28c0.12,-0.28 0.26,-0.55 0.39,-0.82s0.27,-0.5 0.41,-0.73a17.45,17.45 0 0 1 1.32,-1.9l-3.9,176.43zm10.9,34.6l-0.06,0a1.24,1.24 0 0 1 -0.61,0l-0.1,0a1.27,1.27 0 0 1 -0.18,-0.06a1.41,1.41 0 0 1 -0.41,-0.25l-0.15,-0.14a3.74,3.74 0 0 1 -0.72,-1.14a3.67,3.67 0 0 0 -0.22,1.17a1.87,1.87 0 0 0 0.91,1.75a3.4,3.4 0 0 1 0.95,0.94l0,0l0,0a0.07,0.07 0 0 0 0,-0.06l0,0a0.29,0.29 0 0 1 0,-0.09a0.17,0.17 0 0 1 0,-0.07a5.45,5.45 0 0 1 0.43,-1.19c0.1,-0.19 0.19,-0.37 0.3,-0.54a1.71,1.71 0 0 1 0.13,-0.23l0.09,-0.14l0.15,-0.24a1.78,1.78 0 0 1 -7.64,-200.28l7.13,200.57zm-10.9,-34.6l-8.43,-203.43l-0.52,0.14l1.36,2.85l9.8,20.65c-0.21,0.27 -3.1,3.73 -3,7a4.71,4.71 0 0 0 0.25,1.49c0.5,1.46 1.12,2.05 1.68,2.21c0,-0.09 0,-0.17 0,-0.25a6.16,6.16 0 0 1 0,-1a0.53,0.53 0 0 1 0,-0.13s0,-0.09 0,-0.14l0,0a0.22,0.22 0 0 0 0,-0.08l0,0l0,-0.05a0.25,0.25 0 0 1 0,-0.08l0,0a0.56,0.56 0 0 1 0,-0.12s0,0 0,0a1.55,1.55 0 0 1 0.05,-0.23a0.22,0.22 0 0 1 0,-0.08s0,-0.07 0,-0.1l0.12,-0.43l0.05,-0.12l0.06,-0.22c0.05,-0.14 0.1,-0.29 0.16,-0.43a1.19,1.19 0 0 1 0.08,-0.2l0.12,-0.28c0.12,-0.28 0.26,-0.55 0.39,-0.82s0.27,-0.5 0.41,-0.73a17.45,17.45 0 0 1 1.32,-1.9l-3.9,176.48zm10.9,34.6l-0.06,0a1.24,1.24 0 0 1 -0.61,0l-0.1,0a1.27,1.27 0 0 1 -0.18,-0.06a1.41,1.41 0 0 1 -0.41,-0.25l-0.15,-0.14a3.74,3.74 0 0 1 -0.72,-1.14a3.67,3.67 0 0 0 -0.22,1.17a1.87,1.87 0 0 0 0.91,1.75a3.4,3.4 0 0 1 0.95,0.94l0,0l0,0a0.07,0.07 0 0 0 0,-0.06l0,0a0.29,0.29 0 0 1 0,-0.09a0.17,0.17 0 0 1 0,-0.07a5.45,5.45 0 0 1 0.43,-1.19c0.1,-0.19 0.19,-0.37 0.3,-0.54a1.71,1.71 0 0 1 0.13,-0.23l0.09,-0.14l0.15,-0.24a1.78,1.78 0 0 1 -7.64,-200.28l7.13,200.57z"/>
  <path id="svg_86" fill="#444053" d="m394.51,752.329999s15,1.84 22.23,-0.66s-2.24,10.75 -12.07,13.89a93.88,93.88 0 0 1 -21.34,3.62l-11.56,-10.87l-12.27,0.94l2.14,12l-3.81,0.36l-1.48,-15.74l38.16,-3.54z"/>
  <path id="svg_87" opacity="0.1" d="m394.51,752.329999s15,1.84 22.23,-0.66s-2.24,10.75 -12.07,13.89a93.88,93.88 0 0 1 -21.34,3.62l-11.56,-10.87l-12.27,0.94l2.14,12l-3.81,0.36l-1.48,-15.74l38.16,-3.54z"/>
  <path id="svg_88" fill="#444053" d="m416.12,779.809999s17.95,3.93 27,1.72s-3.93,12.79 -16.23,15.49s-26.32,2 -26.32,2l-12.73,-14.55l-15,-0.25l1.23,14.85l-4.67,0l0,-19.26l46.72,0z"/>
  <path id="svg_89" opacity="0.1" d="m416.12,779.809999s17.95,3.93 27,1.72s-3.93,12.79 -16.23,15.49s-26.32,2 -26.32,2l-12.73,-14.55l-15,-0.25l1.23,14.85l-4.67,0l0,-19.26l46.72,0z"/>
  <path id="svg_90" fill="#303d5c" d="m349.72,438.219999s-30.74,34.18 -12.3,72.79c0,0 1,6.89 0.25,8.12s2.95,17.21 2.95,17.21s0.5,29 0,33.94s-1,7.62 -1,7.62s-6.87,53.57 -4.66,69.57s3.2,44.51 3.2,44.51l9.1,76.73l47.22,-8.85l-21.4,-105.26l-0.74,-18.69s8.86,-22.87 4.92,-34.43s1,-158.87 1,-158.87l-28.54,-4.39z"/>
  <path id="svg_91" opacity="0.05" d="m349.72,438.219999s-30.74,34.18 -12.3,72.79c0,0 1,6.89 0.25,8.12s2.95,17.21 2.95,17.21s0.5,29 0,33.94s-1,7.62 -1,7.62s-6.87,53.57 -4.66,69.57s3.2,44.51 3.2,44.51l9.1,76.73l47.22,-8.85l-21.4,-105.26l-0.74,-18.69s8.86,-22.87 4.92,-34.43s1,-158.87 1,-158.87l-28.54,-4.39z"/>
  <path id="svg_92" fill="#303d5c" d="m372.34,603.469999c5.41,10.33 2,35.41 2,35.41c-7.13,6.15 -3.2,59.76 -3.2,59.76s-4.92,52.88 -8.11,59s-2.71,31.48 -2.71,31.48c36.15,6.64 59.76,-7.62 59.76,-7.62s-11.56,-26.32 -11.8,-27.54c-0.14,-0.69 -1.67,1.18 -2.13,1.72c0.24,-0.33 0.87,-1.19 2.13,-3c4.92,-6.89 0,-20.17 0,-20.17s6.15,-42.79 3.2,-46.73s0.49,-18.44 2.21,-21.88s3.93,-11.56 3.93,-15a30.28,30.28 0 0 1 1.48,-7.86c7.62,-10.83 6.15,-28.78 6.15,-28.78s-0.49,-25.82 3.93,-46.23s-5.52,-78.21 -5.52,-78.21s3.31,-11.31 0.85,-15.49c-1.11,-1.88 -1,-6.31 -0.48,-10.6c0.6,-5.25 1.71,-10.3 1.71,-10.3l-67.09,-11.91c-1.41,2.35 -2.7,4.63 -3.89,6.82c-22.19,41 -7.23,56.24 -7.23,56.24l14.24,43.89s5.14,46.68 10.57,57z"/>
  <path id="svg_93" fill="#efb7b9" d="m478.83,282.539999l9.59,8.14s1.88,-1.5 4.4,-3.75c6,-5.42 15.72,-15.23 12.08,-19.39c-5,-5.68 -10,-2 -10.31,-1.74c0.54,-0.57 11.67,-12.5 7.11,-11.54s-13.28,11.32 -13.28,11.32l-6.89,12.17l-2.7,4.79z"/>
  <polygon id="svg_94" fill="#efb7b9" points="350.2099914550781,415.3500061035156 361.5199890136719,418.7900085449219 352.9200134277344,433.7900085449219 343.0799865722656,421 350.2099914550781,415.3500061035156 "/>
  <circle id="svg_95" fill="#efb7b9" r="32.220001" cy="242.21" cx="376.77"/>
  <path id="svg_96" fill="#efb7b9" d="m395.71,254.019999s-29.27,46.45 -1.48,50.45s-37.38,32.22 -37.38,32.22l-24.35,-24.59s25.33,-43.78 21.4,-60.5s41.81,2.42 41.81,2.42z"/>
  <path id="svg_97" opacity="0.1" d="m354.73,446.409999a152.29,152.29 0 0 0 19.83,4.59s36.24,16.09 49.44,10.8c0.6,-5.25 1.71,-10.3 1.71,-10.3l-67.09,-11.91c-1.41,2.35 -2.71,4.63 -3.89,6.82z"/>
  <path id="svg_98" fill="#ffd666" d="m321.44,324.839999l6.55,13.55l7.4,15.26l1,2.18l8.77,19l11.15,24.08s-3.94,4.67 -2.71,8.36c1.15,3.45 2.95,1.95 3.18,1.74c-0.21,0.29 -2.59,3.49 -0.47,4.9s1.47,4.67 1.47,4.67s-9.1,15 -10.82,20.41s27.55,10.09 27.55,10.09s41.56,18.44 51.89,9.34s0,-51.89 0,-51.89s0,-24.59 -2.71,-26.8s-1.42,-19.26 -1.42,-19.26c7.13,-13 2.21,-20.41 2.21,-20.41l2,-33.44s-3.2,-3.45 -5.66,-3.69a24.6,24.6 0 0 0 -4.67,0s-1.3,-0.44 -3.17,-1c-3.94,-1.12 -10.48,-2.67 -12.82,-1.5c-3.44,1.72 -25.57,-2.71 -25.57,-2.71a270.7,270.7 0 0 0 -28.78,-2.7a28.48,28.48 0 0 0 -9.76,1.06c-8,2.47 -9.42,8.28 -9.42,8.28s1,4.92 -2.95,11.31s-2.24,9.17 -2.24,9.17z"/>
  <path id="svg_99" opacity="0.1" d="m478.83,282.539999l9.59,8.14s1.88,-1.5 4.4,-3.75c0.76,-8.3 -6.31,-9.4 -11.29,-9.18l-2.7,4.79z"/>
  <path id="svg_100" fill="#ffd666" d="m422.27,306.399999l4.18,0.25s9.83,1.22 13,-1.73s14.51,-3.93 14.51,-3.93s3.2,-6.4 6.64,-8.36s11.81,-5.66 12,-7.63s3.2,-5.65 3.2,-5.65s18.44,-4.43 15.74,10.08s-17.63,27.04 -17.63,27.04s-1.72,8.12 -7.38,10.09s-42.3,19.18 -48.2,14.75s3.94,-34.91 3.94,-34.91z"/>
  <path id="svg_101" opacity="0.1" d="m323.65,315.659999c3.93,-6.39 2.95,-11.31 2.95,-11.31s1.42,-5.81 9.42,-8.28a24.33,24.33 0 0 1 4.79,-0.94c-7.88,2.5 -9.29,8.24 -9.29,8.24s1,4.92 -2.95,11.31s-2.22,9.1 -2.22,9.1l6.56,13.55l7.39,15.25l1.06,2.19l8.77,18.95l11.15,24.08s-3.94,4.68 -2.71,8.37c1.15,3.45 2.95,1.94 3.18,1.74c-0.21,0.28 -2.59,3.49 -0.47,4.9s1.47,4.67 1.47,4.67s-9.1,15 -10.82,20.41s27.55,10.08 27.55,10.08s28.86,12.81 44.46,11.81c-13.26,5.2 -49.38,-10.82 -49.38,-10.82s-29.27,-4.68 -27.55,-10.09s10.82,-20.4 10.82,-20.4s0.74,-3.2 -1.47,-4.67s0.26,-4.61 0.47,-4.9c-0.23,0.21 -2,1.71 -3.18,-1.74c-1.23,-3.69 2.71,-8.36 2.71,-8.36l-11.15,-24.09l-8.77,-19l-1,-2.18l-7.4,-15.26l-6.55,-13.55s-1.78,-2.66 2.16,-9.06z"/>
  <path id="svg_102" fill="#ffd666" d="m325.91,321.149999l-4.42,3.69a20.31,20.31 0 0 1 -3.69,6.64c-2.46,2.71 -9.1,29.51 -9.1,29.51a4.78,4.78 0 0 1 0,3.94c-1,2 2,4.92 2,4.92s1.47,-0.49 -1,2.21s2.22,5.92 2.22,5.92s20.16,34.41 24.34,38.1s8.36,13.28 8.36,13.28s8.76,-13.74 10.82,-14l-8.6,-19.42s-5.91,-27.06 -10.33,-32s2.21,-21.9 2.21,-21.9l-12.81,-20.89z"/>
  <path id="svg_103" opacity="0.1" d="m323.03,371.319999c3.7,4.44 10.19,5.38 15.93,4.73c0.84,-0.1 1.69,-0.23 2.52,-0.39a36.68,36.68 0 0 0 3.73,-0.87a38.88,38.88 0 0 0 12.22,-6a8.4,8.4 0 0 1 2.74,-1.58c2.3,-0.58 4.58,1.13 5.83,3.13s1.84,4.36 3.12,6.34c2.52,3.93 7.4,5.82 12.08,5.93s9.22,-1.29 13.68,-2.68c-3.61,-4.44 -7.31,-9.06 -8.78,-14.59a34.55,34.55 0 0 1 -0.69,-11c1.06,-17.4 7.1,-35.74 21.29,-45.88c2.46,-1.75 5.43,-3.82 6.25,-6.48c-3.94,-1.12 -10.48,-2.67 -12.82,-1.5c-3.44,1.72 -25.57,-2.71 -25.57,-2.71a270.7,270.7 0 0 0 -28.78,-2.7a28.48,28.48 0 0 0 -9.76,1.06c1.21,7.39 2.26,14.74 0.81,22a49.27,49.27 0 0 1 -4.87,12.95c-1.26,2.45 -2.62,4.86 -4,7.28c-3.74,6.73 -7.31,13.48 -8,21c-0.29,4.25 0.39,8.74 3.07,11.96z"/>
  <path id="svg_104" opacity="0.1" d="m371.66,405.919999c-1.92,-0.25 -3.86,-0.9 -5.76,-0.5a10.6,10.6 0 0 0 -4.31,2.51l12.64,0.07c3.25,0 8.15,0.2 10.64,-2.1c-2.28,-2.26 -9.96,0.44 -13.21,0.02z"/>
  <path id="svg_105" fill="#3f3d56" d="m415.47,238.469999a19.09,19.09 0 0 1 2.19,18.52c-2,4.75 -5.93,8.47 -8.32,13.05a23.52,23.52 0 0 0 0.8,22.78a11.5,11.5 0 0 1 2,4.09c0.57,3.75 -3.31,6.44 -6.4,8.65c-14.2,10.12 -20.23,28.47 -21.29,45.88a34.5,34.5 0 0 0 0.68,11c1.47,5.53 5.18,10.15 8.79,14.59c-4.46,1.39 -9,2.79 -13.69,2.68s-9.55,-2 -12.08,-5.93c-1.28,-2 -1.88,-4.34 -3.12,-6.34s-3.53,-3.7 -5.81,-3.13a8.12,8.12 0 0 0 -2.75,1.57a38.91,38.91 0 0 1 -18.48,7.27c-5.74,0.66 -12.23,-0.29 -15.92,-4.73c-2.68,-3.23 -3.37,-7.71 -3,-11.89c1.28,-14.89 13.89,-26.6 16.81,-41.26c2.36,-11.88 -1.92,-24 -2.7,-36.06c-1.17,-17.87 5.32,-35.26 11.71,-52a55.19,55.19 0 0 1 5.6,-11.82c5.35,-7.84 14.6,-12.54 24,-13.48a22.47,22.47 0 0 1 10.37,1c3.36,1.3 6.16,3.72 8.89,6.09c6.1,5.29 12.37,10.8 15.88,18.08c1.43,3 2.37,6.17 4,9.06l1.84,2.33z"/>
  <g id="svg_106" opacity="0.1">
   <path id="svg_107" d="m409.67,231.939999c-1.6,-2.89 -2.53,-6.09 -4,-9.06a36.31,36.31 0 0 0 -5.1,-7.69a43.17,43.17 0 0 1 9,11.89c1.39,2.88 2.32,6 3.83,8.81l-1.94,-1.64a16.35,16.35 0 0 1 1.36,2.13a22,22 0 0 1 -3.15,-4.44z"/>
   <path id="svg_108" d="m334.03,368.889999a38.75,38.75 0 0 0 18.48,-7.26a8.32,8.32 0 0 1 2.75,-1.57c2.29,-0.58 4.57,1.13 5.82,3.13c0.26,0.42 0.49,0.87 0.71,1.32a4,4 0 0 0 -2.59,-0.25a8.12,8.12 0 0 0 -2.75,1.57a38.91,38.91 0 0 1 -18.48,7.27c-5.74,0.66 -12.23,-0.29 -15.92,-4.73a12.39,12.39 0 0 1 -1.22,-1.83c3.72,2.39 8.69,2.87 13.2,2.35z"/>
   <path id="svg_109" d="m376.28,375.469999c4.67,0.11 9.22,-1.29 13.68,-2.68c-3.61,-4.44 -7.31,-9.06 -8.78,-14.59a34.51,34.51 0 0 1 -0.69,-11c1.06,-17.41 7.1,-35.76 21.3,-45.88c3.09,-2.21 7,-4.9 6.4,-8.66a11.71,11.71 0 0 0 -2,-4.08a23.52,23.52 0 0 1 -0.81,-22.78c2.4,-4.58 6.3,-8.3 8.33,-13.06a19.16,19.16 0 0 0 -0.84,-16.38a22.94,22.94 0 0 0 2.16,2a22,22 0 0 0 1.78,2.18a19.15,19.15 0 0 1 0.83,16.39c-2,4.75 -5.93,8.47 -8.32,13.05a23.52,23.52 0 0 0 0.8,22.78a11.5,11.5 0 0 1 2,4.09c0.57,3.75 -3.31,6.44 -6.4,8.65c-14.2,10.12 -20.23,28.47 -21.29,45.88a34.5,34.5 0 0 0 0.68,11c1.47,5.53 5.18,10.15 8.79,14.59c-4.46,1.39 -9,2.79 -13.69,2.68s-9.55,-2 -12.08,-5.93c-0.17,-0.26 -0.32,-0.53 -0.47,-0.8a16.77,16.77 0 0 0 8.62,2.55z"/>
  </g>
  <path stroke="null" id="svg_110" opacity="0.2" fill="#ffd666" d="m228.28,148.039999l0,21l-64.180002,0q2.93519,-5.78 5.997079,-11.4c0.281553,-0.52 0.563106,-1 0.858737,-1.55l3.005578,-5.37l0,0l0.415291,-0.73l0,0l1.091018,-1.89l52.812301,-0.06z"/>
  <rect id="svg_111" opacity="0.2" fill="#ffd666" height="20.98" width="95.81" y="148.04" x="321.13"/>
  <rect id="svg_112" opacity="0.2" fill="#ffd666" height="20.98" width="95.81" y="148.04" x="541.18"/>
  <rect id="svg_113" opacity="0.2" fill="#ffd666" height="20.98" width="95.81" y="148.04" x="727.29"/>
 </g>
</svg>