<svg width="1107.37" height="758" xmlns="http://www.w3.org/2000/svg">
 <title>teaching</title>

 <g>
  <title>background</title>
  <rect fill="none" id="canvas_background" height="760" width="1109.37" y="-1" x="-1"/>
 </g>
 <g>
  <title>Layer 1</title>
  <rect id="svg_1" opacity="0.1" fill="#ffd666" rx="7.43" height="26" width="86" y="134" x="290.87"/>
  <rect id="svg_2" opacity="0.1" fill="#ffd666" rx="7.43" height="26" width="86" y="160" x="380.87"/>
  <rect id="svg_3" opacity="0.1" fill="#ffd666" rx="7.43" height="26" width="86" y="186" x="470.87"/>
  <rect id="svg_4" opacity="0.1" fill="#ffd666" rx="7.43" height="26" width="86" y="95" x="290.87"/>
  <rect id="svg_5" opacity="0.1" fill="#ffd666" rx="7.43" height="26" width="86" y="121" x="380.87"/>
  <rect id="svg_6" opacity="0.1" fill="#ffd666" rx="7.43" height="26" width="86" y="147" x="470.87"/>
  <rect id="svg_7" opacity="0.1" fill="#ffd666" rx="7.43" height="26" width="86" y="134" x="570.87"/>
  <rect id="svg_8" opacity="0.1" fill="#ffd666" rx="7.43" height="26" width="86" y="160" x="660.87"/>
  <rect id="svg_9" opacity="0.1" fill="#ffd666" rx="7.43" height="26" width="86" y="186" x="750.87"/>
  <rect id="svg_10" opacity="0.1" fill="#ffd666" rx="7.43" height="26" width="86" y="95" x="570.87"/>
  <rect id="svg_11" opacity="0.1" fill="#ffd666" rx="7.43" height="26" width="86" y="121" x="660.87"/>
  <rect id="svg_12" opacity="0.1" fill="#ffd666" rx="7.43" height="26" width="86" y="147" x="750.87"/>
  <rect id="svg_13" opacity="0.1" fill="#ffd666" rx="7.43" height="26" width="86" y="43" x="290.87"/>
  <rect id="svg_14" opacity="0.1" fill="#ffd666" rx="7.43" height="26" width="86" y="69" x="380.87"/>
  <rect id="svg_15" opacity="0.1" fill="#ffd666" rx="7.43" height="26" width="86" y="95" x="470.87"/>
  <rect y="4" id="svg_16" opacity="0.1" fill="#ffd666" rx="7.43" height="26" width="86" x="290.87"/>
  <rect id="svg_17" opacity="0.1" fill="#ffd666" rx="7.43" height="26" width="86" y="30" x="380.87"/>
  <rect id="svg_18" opacity="0.1" fill="#ffd666" rx="7.43" height="26" width="86" y="56" x="470.87"/>
  <rect id="svg_19" opacity="0.1" fill="#ffd666" rx="7.43" height="26" width="86" y="43" x="570.87"/>
  <rect id="svg_20" opacity="0.1" fill="#ffd666" rx="7.43" height="26" width="86" y="69" x="660.87"/>
  <rect id="svg_21" opacity="0.1" fill="#ffd666" rx="7.43" height="26" width="86" y="95" x="750.87"/>
  <rect y="4" id="svg_22" opacity="0.1" fill="#ffd666" rx="7.43" height="26" width="86" x="570.87"/>
  <rect id="svg_23" opacity="0.1" fill="#ffd666" rx="7.43" height="26" width="86" y="30" x="660.87"/>
  <rect id="svg_24" opacity="0.1" fill="#ffd666" rx="7.43" height="26" width="86" y="56" x="750.87"/>
  <rect id="svg_25" opacity="0.1" fill="#ffd666" rx="7.43" height="26" width="86" y="597" x="290.87"/>
  <rect id="svg_26" opacity="0.1" fill="#ffd666" rx="7.43" height="26" width="86" y="623" x="380.87"/>
  <rect id="svg_27" opacity="0.1" fill="#ffd666" rx="7.43" height="26" width="86" y="649" x="470.87"/>
  <rect id="svg_28" opacity="0.1" fill="#ffd666" rx="7.43" height="26" width="86" y="558" x="290.87"/>
  <rect id="svg_29" opacity="0.1" fill="#ffd666" rx="7.43" height="26" width="86" y="584" x="380.87"/>
  <rect id="svg_30" opacity="0.1" fill="#ffd666" rx="7.43" height="26" width="86" y="610" x="470.87"/>
  <rect id="svg_31" opacity="0.1" fill="#ffd666" rx="7.43" height="26" width="86" y="597" x="570.87"/>
  <rect id="svg_32" opacity="0.1" fill="#ffd666" rx="7.43" height="26" width="86" y="623" x="660.87"/>
  <rect id="svg_33" opacity="0.1" fill="#ffd666" rx="7.43" height="26" width="86" y="649" x="750.87"/>
  <rect id="svg_34" opacity="0.1" fill="#ffd666" rx="7.43" height="26" width="86" y="558" x="570.87"/>
  <rect id="svg_35" opacity="0.1" fill="#ffd666" rx="7.43" height="26" width="86" y="584" x="660.87"/>
  <rect id="svg_36" opacity="0.1" fill="#ffd666" rx="7.43" height="26" width="86" y="610" x="750.87"/>
  <rect id="svg_37" opacity="0.1" fill="#ffd666" rx="7.43" height="26" width="86" y="506" x="290.87"/>
  <rect id="svg_38" opacity="0.1" fill="#ffd666" rx="7.43" height="26" width="86" y="532" x="380.87"/>
  <rect id="svg_39" opacity="0.1" fill="#ffd666" rx="7.43" height="26" width="86" y="558" x="470.87"/>
  <rect id="svg_40" opacity="0.1" fill="#ffd666" rx="7.43" height="26" width="86" y="467" x="290.87"/>
  <rect id="svg_41" opacity="0.1" fill="#ffd666" rx="7.43" height="26" width="86" y="493" x="380.87"/>
  <rect id="svg_42" opacity="0.1" fill="#ffd666" rx="7.43" height="26" width="86" y="519" x="470.87"/>
  <rect id="svg_43" opacity="0.1" fill="#ffd666" rx="7.43" height="26" width="86" y="506" x="570.87"/>
  <rect id="svg_44" opacity="0.1" fill="#ffd666" rx="7.43" height="26" width="86" y="532" x="660.87"/>
  <rect id="svg_45" opacity="0.1" fill="#ffd666" rx="7.43" height="26" width="86" y="558" x="750.87"/>
  <rect id="svg_46" opacity="0.1" fill="#ffd666" rx="7.43" height="26" width="86" y="467" x="570.87"/>
  <rect id="svg_47" opacity="0.1" fill="#ffd666" rx="7.43" height="26" width="86" y="493" x="660.87"/>
  <rect id="svg_48" opacity="0.1" fill="#ffd666" rx="7.43" height="26" width="86" y="519" x="750.87"/>
  <ellipse id="svg_49" opacity="0.1" fill="#ffd666" ry="36" rx="438.5" cy="726" cx="579.37"/>
  <path id="svg_50" fill="#ffd666" d="m181.65,190.8c41.35,17.92 65.11,55 65.11,55s-43.29,8 -84.65,-9.91s-65.11,-55 -65.11,-55s43.29,-8.01 84.65,9.91z"/>
  <path id="svg_51" fill="#ffd666" d="m308.55,122c12.79,-21 34.57,-31 34.57,-31s1,23.94 -11.75,44.88s-34.58,30.93 -34.58,30.93s-1.04,-23.93 11.76,-44.81z"/>
  <path id="svg_52" fill="#46455b" d="m214.53,144.47c9.15,32.66 34.37,54.16 34.37,54.16s10.39,-31.47 1.24,-64.14s-34.38,-54.16 -34.38,-54.16s-10.39,31.47 -1.23,64.14z"/>
  <rect id="svg_53" fill="#3f3d56" rx="7.21" height="365" width="729" y="143" x="215.87"/>
  <path id="svg_54" opacity="0.1" d="m215.87,486l729,0a0,0 0 0 1 0,0l0,14.79a7.21,7.21 0 0 1 -7.21,7.21l-714.58,0a7.21,7.21 0 0 1 -7.21,-7.21l0,-14.79a0,0 0 0 1 0,0z"/>
  <rect id="svg_55" fill="#ffd666" rx="2.5" height="27" width="54" y="459" x="286.87"/>
  <rect id="svg_56" fill="#ffd666" rx="2" height="4" width="37" y="482" x="355.87"/>
  <path id="svg_57" fill="#ffd666" d="m323.02,214.38c26.39,4.87 53.31,0 79.59,-3.3l79.87,-10c3.23,-0.41 7.93,-2.34 9.83,1.61c1.07,2.21 0.35,7 0.43,9.54c0.21,7 0.19,14 0,21c-0.36,13.38 -1.34,26.73 -2.59,40.05c-2.43,26.07 -5.87,52 -7.59,78.17c-0.88,13.32 -1.32,26.68 -0.93,40c0.09,3.18 0.22,6.36 0.41,9.53c0.21,3.55 1.8,8.82 -2.07,11.19c-2.21,1.36 -6.56,1.29 -9.09,1.69c-4,0.63 -8,1.13 -12.08,1.54c-26.89,2.69 -54.13,1.57 -81.12,1.41l-81.5,-0.42l-19.88,-0.11c-1.8,0 -8.29,1.08 -9.4,-1.06c-0.47,-0.91 0.78,-5.17 1,-6.31q0.46,-2.82 1,-5.63c2.32,-13.15 5.06,-26.22 7.82,-39.28c5.93,-28 12,-56.14 14.44,-84.74c1.21,-14.35 0.41,-28.83 1.89,-43.15c0.69,-6.65 1.51,-21.49 10.36,-22.08c7.5,-0.5 15.22,0 22.74,0a1.5,1.5 0 0 0 0,-3c-7.1,0 -14.21,-0.19 -21.31,-0.05c-4.72,0.09 -8,1.21 -10.25,5.55c-5.75,11.14 -5.16,26 -5.34,38.16c-0.43,29.11 -4.9,57.6 -10.72,86.07c-2.93,14.33 -6.09,28.61 -9,42.95c-1.37,6.85 -2.68,13.72 -3.88,20.61c-0.56,3.28 -3.39,10.51 -0.9,13.52s10.15,1.39 13.58,1.41l23.86,0.14l45.72,0.26c29.54,0.17 59.18,1 88.71,0.13c14.1,-0.42 29,-1 42.73,-4.37c4.09,-1 6.06,-2.88 6.22,-7.24c0.24,-6.76 -0.86,-13.73 -1,-20.52c-1,-58.1 12.65,-115.39 11.25,-173.51c-0.09,-3.95 1.4,-13.91 -2.92,-16.3c-1.94,-1.08 -4.46,-0.49 -6.5,-0.25c-3.9,0.45 -7.79,1 -11.69,1.46l-50.65,6.32c-16.19,2 -32.37,4.16 -48.59,6c-17.17,2 -34.51,3.19 -51.62,0c-1.89,-0.35 -2.7,2.54 -0.8,2.89l-0.03,0.12z"/>
  <path id="svg_58" fill="#ffd666" d="m291.18,249.73l199.82,-9.8c1.93,-0.1 1.94,-3.1 0,-3l-199.82,9.8c-1.92,0.09 -1.93,3.09 0,3z"/>
  <path id="svg_59" fill="#ffd666" d="m352.74,225a5,5 0 0 0 1.77,8.07c2.69,1.23 5.85,0.2 8.52,-0.47c4,-1 8,-1.89 12.11,-2.62a165.15,165.15 0 0 1 27.09,-2.52c4.14,-0.05 8.25,0.14 12.39,0.32c3,0.12 6.23,0.36 8.77,-1.5c2.9,-2.12 3.84,-6.26 1,-8.84c-4,-3.65 -12.62,-1.53 -17.24,-1.15a386.62,386.62 0 0 0 -49.86,7.44c-1.88,0.4 -1.09,3.3 0.8,2.89q16.27,-3.51 32.79,-5.64q8.12,-1 16.27,-1.69c2.56,-0.21 5.12,-0.4 7.68,-0.55c1,-0.06 2.06,-0.17 3.08,-0.14c3.17,0.07 3.54,-0.5 1.64,3.33c-1.69,3.39 -1.15,3 -4.08,2.89c-1.24,0 -2.48,-0.14 -3.72,-0.2q-3.81,-0.16 -7.62,-0.17q-8.11,0 -16.18,0.78c-4.56,0.44 -9.11,1.06 -13.62,1.86c-2.82,0.5 -5.62,1.08 -8.41,1.72c-1.23,0.29 -2.47,0.59 -3.7,0.9c-0.59,0.16 -1.19,0.3 -1.78,0.45q-3.28,1.14 -5.59,-3c1.34,-1.39 -0.77,-3.52 -2.12,-2.12l0.01,-0.04z"/>
  <path id="svg_60" fill="#ffd666" d="m388.96,267.68c-14.47,-0.56 -30.1,3.35 -39.63,15c-7.46,9.11 -11.71,24.74 -3.81,35c8.49,11 27.11,9.06 38.34,4.37c11.88,-5 24.88,-15.31 28.45,-28.21c4.45,-16.11 -10,-28.29 -25.05,-28.47c-1.93,0 -1.93,3 0,3c8.58,0.1 17,3.78 21,11.77c4.19,8.42 0.58,17.26 -5,24c-8.94,10.73 -22.92,18.82 -37.16,18.59c-8.55,-0.13 -18,-3.06 -20.65,-12.08c-2.18,-7.31 -0.52,-15.3 3.28,-21.78c8.22,-14 24.95,-18.74 40.29,-18.14c1.93,0.07 1.93,-2.93 0,-3l-0.06,-0.05z"/>
  <path id="svg_61" fill="#ffd666" d="m374.59,289.9a3.9,3.9 0 0 0 -5.24,4c0.3,3.9 4.6,5 7.83,4.77c2.79,-0.24 6.05,-1.27 5.07,-4.76a4.48,4.48 0 0 0 -2.44,-2.82a5.65,5.65 0 0 0 -2.82,-0.35c-0.37,0 -3.76,1.24 -2.32,-0.25l-2.36,-0.31a2.46,2.46 0 0 1 0.72,2a1.51,1.51 0 0 0 2.25,1.29a2,2 0 0 1 2.71,2.34a1.51,1.51 0 0 0 2.74,1.16c1,-1.8 2.21,-5.38 0.71,-7.26c-1,-1.27 -2.93,-0.89 -4.13,-0.15a14.47,14.47 0 0 0 -2.06,1.77c-1.21,1.07 -2,1.57 -1.55,-0.48c0.75,-3.73 4.31,-6.7 7.56,-8.19l-2.2,-1.69a31.62,31.62 0 0 1 -6.05,11.85l2.56,1.06a6.68,6.68 0 0 1 4.08,-6.51l-1.47,0l0.78,1.28c-0.29,1.89 2.6,2.7 2.89,0.79c0.38,-2.47 -1.18,-5.68 -4.07,-4.47c-3.45,1.44 -5.24,5.39 -5.17,8.91c0,1.2 1.7,2.13 2.57,1.07a35.26,35.26 0 0 0 6.81,-13.19a1.52,1.52 0 0 0 -2.21,-1.69a16.77,16.77 0 0 0 -7.28,6.34c-1.22,2 -2.75,5.12 -1.51,7.42a3.18,3.18 0 0 0 4.35,1.23a11.7,11.7 0 0 0 2.51,-2c0.37,-0.33 0.78,-0.9 1.27,-1c0.44,-0.3 0.42,-0.13 -0.07,0.53a5.45,5.45 0 0 1 -0.87,2.92l2.74,1.15a5,5 0 0 0 -7.11,-5.73l2.26,1.3a5.45,5.45 0 0 0 -1.13,-3.53a1.52,1.52 0 0 0 -2.35,-0.31c-1.52,1.59 -1.81,4.34 0.1,5.81c1.43,1.09 2.13,0 3.7,-0.25c5.33,-0.69 2.22,1.71 0.34,1.79a7.09,7.09 0 0 1 -2.51,-0.18q-3.13,-1.06 -0.39,-2.73c1.79,0.73 2.56,-2.17 0.8,-2.89l-0.04,-0.04z"/>
  <path id="svg_62" fill="#ffd666" d="m372.18,295.38c1.23,4 -3.85,5.32 -6.26,6.7a13.94,13.94 0 0 0 -4.33,3.79c-2.52,3.38 -3.46,7.68 -4.29,11.73c-0.38,1.89 2.51,2.69 2.9,0.8a34,34 0 0 1 2.53,-8.63c1.8,-3.58 4.38,-4.78 7.74,-6.62s5.79,-4.69 4.6,-8.57c-0.56,-1.84 -3.46,-1.05 -2.89,0.8z"/>
  <path id="svg_63" fill="#ffd666" d="m377.18,293.37a2.9,2.9 0 0 0 -2.5,3c0,1.19 0.79,1.95 1.33,2.9a22.9,22.9 0 0 1 2.9,6.31c0.48,2.15 0.95,6 -0.17,8c-2.07,3.71 -5.81,3 -9,3c-3,0 -5.32,1 -5.22,-3.18c0.06,-2.35 1.7,-4.73 3,-6.58l-2.74,-0.36a52.27,52.27 0 0 1 0.91,9.26c0,1.39 2.13,2.16 2.79,0.75a57.93,57.93 0 0 0 3.81,-10.54l-2.95,-0.4l0.52,7.6a1.51,1.51 0 0 0 2.79,0.76a3.4,3.4 0 0 0 0.75,-1.35c0.1,-0.47 -0.82,-3.64 -1.19,-2.51l2.94,0.4l0.21,-7.22l-3,0.4a14.94,14.94 0 0 1 0.56,6.3c-0.19,1.67 2.62,2.05 3,0.4l1.88,-9.7l-2.74,0.35a6.63,6.63 0 0 1 0.51,4.32c-0.22,1.92 2.78,1.9 3,0a10.54,10.54 0 0 0 -0.92,-5.83a1.51,1.51 0 0 0 -2.74,0.36l-1.89,9.7l2.95,0.4a16.36,16.36 0 0 0 -0.67,-7.09a1.5,1.5 0 0 0 -2.94,0.39l-0.21,7.22c0,1.75 2.43,2 2.95,0.4l0.16,-0.49a1.52,1.52 0 0 0 -0.38,-1.46c-3.11,-3.38 -3.74,2 -4.82,3.49l2.8,0.76l-0.52,-7.6c-0.11,-1.62 -2.51,-2.12 -2.95,-0.4a53.76,53.76 0 0 1 -3.5,9.83l2.8,0.76a56.54,56.54 0 0 0 -1,-10.06c-0.26,-1.38 -2.07,-1.32 -2.74,-0.36c-2,2.88 -5.46,9.17 -2.79,12.62c2.33,3 9.66,1.84 12.79,1.65c4.94,-0.28 6.73,-3.41 7.27,-8.07a19.76,19.76 0 0 0 -0.37,-6.68c-0.27,-1.18 -3,-8.66 -3.82,-8.51c1.9,-0.35 1.09,-3.25 -0.8,-2.9l-0.05,-0.04z"/>
  <path id="svg_64" fill="#ffd666" d="m371.37,300.11l-8.19,10.81l2.59,1.51l6,-8.68l-2.74,-1.16l-2.99,11.41a1.51,1.51 0 0 0 2.74,1.16a52.71,52.71 0 0 1 4.57,-6.43l-2.5,-1.46a16.33,16.33 0 0 1 -3.77,6.93l2.51,1.46a13.4,13.4 0 0 1 1.09,-4c0.77,-1.73 -1.67,-3.26 -2.59,-1.52a35.21,35.21 0 0 1 -2.89,4.54l2.74,0.36l0.61,-2.85l-2.74,-0.36l0.44,2.5a1.51,1.51 0 0 0 2.51,0.66a29.86,29.86 0 0 0 6,-9.05l-2.58,0a13.47,13.47 0 0 1 1.41,4c0.36,1.8 2.75,1.13 2.94,-0.4a81.31,81.31 0 0 0 0.66,-10.1l-3,0l0,6.29c0,1.63 2.67,2.11 2.95,0.4a11.46,11.46 0 0 1 1.47,-4.3l-2.63,0a6.67,6.67 0 0 1 1,3.4a1.5,1.5 0 0 0 3,0l0.38,-2l-2.89,0c0.29,1.77 1.39,11.74 -2.52,10.57c-0.66,-0.16 -0.85,-0.12 -0.57,0.11l0.89,-1.9l2.09,-4.43l-2.8,-0.76c0.18,2.06 0.37,5 -0.87,6.76c-1,1.43 -4.08,2 -5.65,1.16a10,10 0 0 1 -2.61,-2.74l-2.05,2c1.66,1.21 4.35,4.18 6.49,4.35c1.63,0.13 3,-1.22 4.07,-2.3a17.43,17.43 0 0 0 4.89,-12.83a1.5,1.5 0 0 0 -3,0l0,3.42a1.5,1.5 0 0 0 3,0l0,-8.39a1.5,1.5 0 0 0 -3,0a36,36 0 0 1 -0.52,6l2.95,0.4a69.07,69.07 0 0 1 -0.33,-7.19a1.5,1.5 0 0 0 -2.94,-0.4c-0.45,1.91 -1,3.79 -1.53,5.66l2.74,-0.36l-0.21,-0.8c-0.14,-1.91 -3.14,-1.92 -3,0a5.49,5.49 0 0 0 0.62,2.32c0.58,1.22 2.39,0.79 2.74,-0.36c0.57,-1.88 1.08,-3.76 1.53,-5.66l-2.95,-0.4a69.07,69.07 0 0 0 0.33,7.19c0.15,1.54 2.63,2.2 2.94,0.4a41.33,41.33 0 0 0 0.63,-6.84l-3,0l0,8.39l3,0l0,-3.42l-3,0a14.42,14.42 0 0 1 -3.65,10.28a12.29,12.29 0 0 1 -1.26,1.24c-0.71,0.68 -1.36,0.58 -1.93,-0.31c-1.42,-0.59 -2.89,-2.11 -4.13,-3s-2.94,0.87 -2.06,2.05c2.3,3.06 5.73,6.47 10,5c4.49,-1.59 5.1,-7.67 4.76,-11.67c-0.11,-1.33 -2.1,-2.23 -2.79,-0.75c-1,2.11 -2,4.21 -3,6.33c-0.35,0.74 -1,1.76 -0.9,2.64c0.33,2.25 3.06,1.88 4.74,1.75c6.51,-0.49 5.48,-9.72 4.73,-14.36c-0.25,-1.54 -2.49,-1.3 -2.89,0a8.83,8.83 0 0 0 -0.49,2.84l3,0a11.89,11.89 0 0 0 -1.41,-4.91a1.51,1.51 0 0 0 -2.59,0a14.58,14.58 0 0 0 -1.78,5l3,0.4l0,-6.29a1.5,1.5 0 0 0 -3,0a81.31,81.31 0 0 1 -0.66,10.1l2.95,-0.4a17.17,17.17 0 0 0 -1.71,-4.68a1.51,1.51 0 0 0 -2.59,0a27.36,27.36 0 0 1 -5.53,8.44l2.51,0.66l-0.44,-2.5c-0.23,-1.33 -2.11,-1.37 -2.74,-0.36a6.58,6.58 0 0 0 -0.91,5.16c0.25,1.42 2.05,1.27 2.74,0.36a35.1,35.1 0 0 0 2.89,-4.53l-2.59,-1.52a17.06,17.06 0 0 0 -1.4,4.71c-0.18,1.32 1.39,2.7 2.51,1.46a20,20 0 0 0 4.54,-8.26c0.37,-1.36 -1.51,-2.65 -2.51,-1.46a57.29,57.29 0 0 0 -5,7l2.74,1.16l3.05,-11.37a1.51,1.51 0 0 0 -2.74,-1.16l-6,8.69c-1.12,1.61 1.45,3 2.59,1.51l8.16,-10.8c1.16,-1.54 -1.44,-3 -2.59,-1.52l-0.08,0z"/>
  <path id="svg_65" fill="#ffd666" d="m498.95,336.2c12,-7.34 21.54,-18.29 32.14,-27.45c11.5,-9.93 23.57,-19.18 36,-27.94c24.14,-17 49.49,-32.21 74.82,-47.38a1.5,1.5 0 0 0 -1.51,-2.59c-25.33,15.17 -50.69,30.35 -74.83,47.38c-11.39,8 -22.51,16.48 -33.17,25.48c-11.6,9.8 -21.93,22 -35,29.91c-1.65,1 -0.14,3.6 1.51,2.59l0.04,0z"/>
  <path id="svg_66" fill="#ffd666" d="m680.64,186.85c-13,1.32 -27,4.63 -35,16c-6.91,9.78 -6.76,26.84 -0.27,36.88c7.37,11.41 22.43,11.82 34.13,8.13s23.81,-10.16 23.7,-24.14c-0.06,-7.5 -2.77,-15.31 -5.76,-22.11c-2.58,-5.87 -7.15,-11 -14.07,-10.35c-1.91,0.18 -1.93,3.18 0,3c9.27,-0.86 12.25,10.15 14.45,17.1c2,6.49 3.85,14.17 0.71,20.62s-10.71,9.74 -17.18,12.1c-7,2.54 -14.69,4.09 -22,2c-14.48,-4.05 -18.48,-22.4 -14.31,-35.42c4.8,-15 21.8,-19.41 35.65,-20.81c1.9,-0.19 1.92,-3.19 0,-3l-0.05,0z"/>
  <path id="svg_67" fill="#ffd666" d="m700.64,302.85c-13,1.32 -27,4.63 -35,16c-6.91,9.78 -6.76,26.84 -0.27,36.88c7.37,11.41 22.43,11.82 34.13,8.13s23.81,-10.16 23.7,-24.14c-0.06,-7.5 -2.77,-15.31 -5.76,-22.11c-2.58,-5.87 -7.15,-11 -14.07,-10.35c-1.91,0.18 -1.93,3.18 0,3c9.27,-0.86 12.25,10.15 14.45,17.1c2,6.49 3.85,14.17 0.71,20.62s-10.71,9.74 -17.18,12.1c-7,2.54 -14.69,4.09 -22,2c-14.48,-4.05 -18.48,-22.4 -14.31,-35.42c4.8,-15 21.8,-19.41 35.65,-20.81c1.9,-0.19 1.92,-3.19 0,-3l-0.05,0z"/>
  <path id="svg_68" fill="#ffd666" d="m661.03,216.06l9.47,10.8a1.51,1.51 0 0 0 2.5,-0.67c2,-5.26 1.62,-10.71 2.09,-16.24a53.47,53.47 0 0 1 4.25,-16.57a55.93,55.93 0 0 1 22.38,-25.65c1.65,-1 0.14,-3.6 -1.51,-2.59a58.72,58.72 0 0 0 -22.63,24.86a57.47,57.47 0 0 0 -5,15.87c-1,6.49 -0.09,13.29 -2.49,19.52l2.51,-0.67l-9.42,-10.78c-1.28,-1.45 -3.39,0.68 -2.12,2.12l-0.03,0z"/>
  <path id="svg_69" fill="#ffd666" d="m503.78,347.89q77.37,-2.36 154.78,-1c1.93,0 1.93,-3 0,-3q-77.39,-1.38 -154.78,1c-1.93,0.06 -1.94,3.06 0,3z"/>
  <path id="svg_70" fill="#ffd666" d="m669.34,318.31a309.92,309.92 0 0 1 50.67,25.46c1.64,1 3.15,-1.57 1.51,-2.59a313.23,313.23 0 0 0 -51.34,-25.76c-1.79,-0.71 -2.57,2.19 -0.79,2.89l-0.05,0z"/>
  <path id="svg_71" fill="#ffd666" d="m701.36,304.72a122.5,122.5 0 0 0 -29.41,74.53c-0.08,1.93 2.92,1.93 3,0a119.14,119.14 0 0 1 28.53,-72.41c1.25,-1.46 -0.86,-3.59 -2.12,-2.12z"/>
  <path id="svg_72" fill="#ffd666" d="m301.41,337l111.77,-1.46l12.85,-0.17c2.31,0 4.62,-0.08 6.93,-0.09c3.25,0 5.44,2.7 5.38,6c-0.15,7 -4.55,6.75 -10.31,7l-13.89,0.63l-56.56,2.49c-10.13,0.45 -20.27,1 -30.4,1.35c-9.14,0.28 -26.52,-2.7 -22.46,-16c0.56,-1.85 -2.33,-2.64 -2.9,-0.8c-2,6.54 1.54,13.18 7.24,16.61c8.09,4.86 18.75,3.21 27.68,2.81l69.44,-3.15l16.86,-0.75c4.32,-0.2 10.33,0.68 14.3,-1.33c4.66,-2.35 5.48,-11.68 2.54,-15.61c-1.51,-2 -3.63,-2.18 -6,-2.27c-6.22,-0.24 -12.55,0.17 -18.78,0.25l-34.62,0.46l-79.11,1c-1.93,0 -1.93,3 0,3l0.04,0.03z"/>
  <g id="b30eccf6-7cfe-48df-9caa-415a128bd568">
   <path id="svg_73" fill="#323444" d="m752.99,704.5c-2.52,1.58 -5.4,2.47 -8,3.86s-5.13,3.48 -5.87,6.36a4,4 0 0 0 0.13,2.72a5.28,5.28 0 0 0 2.8,2.22a42.49,42.49 0 0 0 33.61,0.38a44.27,44.27 0 0 1 5.8,-2.3a37.69,37.69 0 0 1 7.43,-0.76a57.11,57.11 0 0 0 7.81,-1a6.87,6.87 0 0 0 3.54,-1.47a6.57,6.57 0 0 0 1.59,-3.82a31.45,31.45 0 0 0 -5,-22.28a7.53,7.53 0 0 0 -2.18,-2.31a8.41,8.41 0 0 0 -3.47,-0.93c-5,-0.61 -10.24,-1.73 -15.29,-1.85c-3.62,-0.08 -5.44,1.64 -8,4.13c-5.29,5.29 -8.38,12.98 -14.9,17.05z"/>
   <path id="svg_74" fill="#323444" d="m826.68,703.76c0,4.9 0.59,10.09 3.56,14a18.49,18.49 0 0 0 4.86,4.25c6.28,4 14.6,5.47 21.22,2.08a6.3,6.3 0 0 0 2.64,-2.22c1,-1.74 0.47,-3.91 -0.09,-5.83l-9.58,-33.2c-6.19,0.95 -15.29,1.62 -20.79,4.76c-3.99,2.27 -1.82,11.78 -1.82,16.16z"/>
   <path id="svg_75" fill="#fbb3b2" d="m747.37,499.33c-0.58,1.83 -2.68,2.68 -3.83,4.22c-1.35,1.81 -1.21,4.32 -0.72,6.52a17.24,17.24 0 0 0 4.39,8.65a10.37,10.37 0 0 0 9,3.06c3.22,-0.61 6,-3.46 6.11,-6.73a12.74,12.74 0 0 0 -0.94,-4.33l-6.82,-19.72a1,1 0 0 0 -0.48,-0.67a1,1 0 0 0 -0.75,0.13c-1.61,0.76 -4.84,1.56 -5.78,3.23s0.5,3.83 -0.18,5.64z"/>
   <path id="svg_76" fill="#323444" d="m744.18,498.34c2.49,-0.39 4.67,-1.85 7,-2.81s5.25,-1.33 7.21,0.27c0.56,0.46 1.1,1.09 1.83,1.08a71.59,71.59 0 0 0 -4.48,-14.24a1.11,1.11 0 0 0 -0.39,-0.55a1.13,1.13 0 0 0 -0.85,0l-6.73,1.76c-2.49,0.65 -2.78,0.45 -2.59,2.9c0.05,1.09 0.61,11.59 -1,11.59z"/>
   <path id="svg_77" fill="#5b5583" d="m743.44,355.94c-1,1.54 -1,3.46 -1,5.27c0,8.85 0.09,17.75 1.4,26.51c0.31,2.1 0.7,4.2 0.9,6.32a72.91,72.91 0 0 1 0.14,8.87l-1,38.5c-0.12,4.71 -0.36,9.77 -3.27,13.47a6.44,6.44 0 0 0 -1.17,4.27c0.76,9.66 2.36,19.24 3.95,28.79a17.79,17.79 0 0 1 16.14,0.77a177.66,177.66 0 0 0 8.29,-49c0.23,-8.19 -0.12,-16.43 1.14,-24.52c2.11,-13.62 1.25,-27.59 -0.3,-41.29c-0.49,-4.34 -1.53,-8.81 -4.31,-12.17a18.45,18.45 0 0 0 -10,-5.76c-3.7,-0.97 -7.01,0.03 -10.91,-0.03z"/>
   <path id="svg_78" opacity="0.1" d="m743.44,355.94c-1,1.54 -1,3.46 -1,5.27c0,8.85 0.09,17.75 1.4,26.51c0.31,2.1 0.7,4.2 0.9,6.32a72.91,72.91 0 0 1 0.14,8.87l-1,38.5c-0.12,4.71 -0.36,9.77 -3.27,13.47a6.44,6.44 0 0 0 -1.17,4.27c0.76,9.66 2.36,19.24 3.95,28.79a17.79,17.79 0 0 1 16.14,0.77a177.66,177.66 0 0 0 8.29,-49c0.23,-8.19 -0.12,-16.43 1.14,-24.52c2.11,-13.62 1.25,-27.59 -0.3,-41.29c-0.49,-4.34 -1.53,-8.81 -4.31,-12.17a18.45,18.45 0 0 0 -10,-5.76c-3.7,-0.97 -7.01,0.03 -10.91,-0.03z"/>
   <path id="svg_79" fill="#3c354c" d="m755.66,467.59a176.61,176.61 0 0 0 10.52,102.24a27.73,27.73 0 0 1 2.44,7.56c0.55,4.9 -1.71,9.61 -3,14.35c-3,10.78 -1.27,22.26 0.65,33.29q1.2,6.9 2.47,13.79c0.83,4.48 1.63,9.35 -0.45,13.41c1.79,7.46 2.85,14.85 4.64,22.31a4.24,4.24 0 0 1 0.17,1.83a5.39,5.39 0 0 1 -1.83,2.45a10.94,10.94 0 0 0 -2.79,10.47c4.57,-3.28 10.94,-2.13 16.16,0s10.36,5 16,5c-0.82,-6.62 -1.61,-13.57 0.83,-19.78c1.42,-3.6 3.92,-7 3.85,-10.85c-0.07,-3.45 -2.18,-6.53 -2.69,-9.94a25.16,25.16 0 0 1 0.24,-6.36c1.34,-12.24 -0.18,-24.6 -1.7,-36.82a22,22 0 0 0 -1.68,-7c-0.71,-1.44 -1.77,-2.82 -1.75,-4.43c0,-1.87 1.51,-3.39 2.07,-5.17c1,-3.28 -0.84,-7.74 1.93,-9.77c7.3,-5.36 4.5,-18.16 4.34,-27.21q-0.19,-11.71 -1,-23.4a99.67,99.67 0 0 1 5.52,40.34c-0.32,4.48 -0.91,9.19 0.84,13.33c1.34,3.18 4,5.8 4.72,9.17c0.45,2.08 0.13,4.23 0.23,6.35s0.82,4.43 2.65,5.5c0.14,9.64 1,19.95 1.15,29.59a73,73 0 0 0 1.2,14.7a18.73,18.73 0 0 1 0.74,4.74a19.81,19.81 0 0 1 -1.58,5.83a33.43,33.43 0 0 0 5,30.85c2.36,-4.19 7.28,-6.41 12.08,-6.76s9.54,0.86 14.19,2.08a27.79,27.79 0 0 1 3.32,-16.9a13.83,13.83 0 0 0 1.75,-3.76c0.54,-2.54 -0.72,-5.07 -1.4,-7.58c-1.11,-4 -0.72,-8.31 -0.46,-12.49a197.64,197.64 0 0 0 -1.85,-41.92a35.51,35.51 0 0 0 -1.91,-8c-0.36,-0.92 -0.8,-1.8 -1.1,-2.73a21.52,21.52 0 0 1 -0.8,-5.12l-1.15,-16c-0.81,-11.21 2.87,-22.28 5.44,-33.22c1.15,-4.9 2.4,-9.79 3.17,-14.77c1.05,-6.78 1.22,-13.71 2.76,-20.4c1.38,-6 3.87,-11.85 4.39,-18c0.8,-9.53 -3.16,-18.74 -7,-27.48c-1.6,-3.6 -7.65,-3.24 -11.54,-3.88c-27.59,-4.53 -56.65,-4.56 -82.67,5.65a20.57,20.57 0 0 0 -7.11,4.91z"/>
   <path id="svg_80" fill="#fbb3b2" d="m775.55,290.1l3.06,11.9a31.8,31.8 0 0 1 1.37,8.41a6.21,6.21 0 0 1 -0.67,3a7.15,7.15 0 0 1 -1.9,1.94c-2.09,1.59 -3.54,5.3 -5.93,6.4c1.23,2.14 2.93,0.75 5.15,1.82c3.91,1.9 7.49,4.63 11.73,5.57c4,0.88 8.2,0.05 12.17,-1c5.63,-1.53 11.23,-3.64 15.76,-7.33s7.11,-6.95 7.09,-12.78c-5,0.59 -9.45,-4.46 -11.66,-9a24.45,24.45 0 0 1 -1.68,-5.39l-2.68,-11.79c-2.92,0.64 -5.3,2.73 -8.09,3.82s-6.09,1.19 -9.19,1.33a99,99 0 0 0 -16.36,2.12c-0.74,0.15 -1.67,0.62 -1.49,1.34"/>
   <path id="svg_81" opacity="0.1" d="m775.55,290.1l3.06,11.9a31.8,31.8 0 0 1 1.37,8.41a6.21,6.21 0 0 1 -0.67,3a7.15,7.15 0 0 1 -1.9,1.94c-2.09,1.59 -3.54,5.3 -5.93,6.4c1.23,2.14 2.93,0.75 5.15,1.82c3.91,1.9 7.49,4.63 11.73,5.57c4,0.88 8.2,0.05 12.17,-1c5.63,-1.53 11.23,-3.64 15.76,-7.33s7.11,-6.95 7.09,-12.78c-5,0.59 -9.45,-4.46 -11.66,-9a24.45,24.45 0 0 1 -1.68,-5.39l-2.68,-11.79c-2.92,0.64 -5.3,2.73 -8.09,3.82s-6.09,1.19 -9.19,1.33a99,99 0 0 0 -16.36,2.12c-0.74,0.15 -1.67,0.62 -1.49,1.34"/>
   <circle id="svg_82" fill="#fbb3b2" r="26.48" cy="270.18" cx="788.69"/>
   <path id="svg_83" fill="#323444" d="m795.98,313.83a24,24 0 0 1 6,-8c3.73,-3.27 8.83,-5.92 9.71,-10.8l8.08,9.41a4.35,4.35 0 0 1 1,1.54a3.88,3.88 0 0 1 -0.76,3.11c-2,3.19 -5.15,5.47 -8.13,7.78a246.91,246.91 0 0 0 -19.59,17.28a2,2 0 0 1 -1.05,0.64a1.89,1.89 0 0 1 -1.09,-0.31a45.49,45.49 0 0 1 -13.97,-11.36c-0.29,-0.35 -0.65,-0.75 -1.12,-0.72a1.44,1.44 0 0 0 -0.75,0.39c-2.69,2.2 -5.63,4.83 -9.08,4.49c4.47,-3.21 7,-8.57 7.94,-14a26.46,26.46 0 0 1 1.14,-5.47a5.71,5.71 0 0 1 3.9,-3.7c-2.18,3.33 -0.69,8.05 2.24,10.74a22.08,22.08 0 0 0 9.92,4.81c3.4,0.64 4.4,-3.21 5.61,-5.83z"/>
   <path id="svg_84" fill="#323444" d="m761.53,470.31c3.77,0.93 7.34,2.51 11,3.68a52.57,52.57 0 0 0 20.65,2.17a11.15,11.15 0 0 0 6,-1.91c0.47,-0.38 0.9,-0.83 1.4,-1.18a9.79,9.79 0 0 1 2.69,-1.11c9.17,-2.87 16.85,-9.06 24.3,-15.12c0.24,-0.2 0.51,-0.45 0.49,-0.77a1,1 0 0 0 -0.3,-0.57l-3.92,-4.5c-10.28,1.75 -20.81,1.09 -31.24,0.83a45.36,45.36 0 0 0 -6.42,0.17c-2.06,0.24 -4.09,0.76 -6.12,1.2c-7.71,1.68 -15.59,2.32 -23.4,3.42a3.61,3.61 0 0 0 -1.55,0.48a3.49,3.49 0 0 0 -0.83,0.92l-2.74,3.85a12.11,12.11 0 0 0 -2.3,4.41c-0.64,3 0.7,4 3.25,3.61a23.74,23.74 0 0 1 9.04,0.42z"/>
   <path id="svg_85" fill="#5b5583" d="m792.18,329.57a48.71,48.71 0 0 0 -10.31,-8.05a14.61,14.61 0 0 0 -5,-2a6.24,6.24 0 0 0 -5.12,1.26c-0.89,0.79 -1.45,1.89 -2.31,2.72a11.49,11.49 0 0 1 -3.66,2.07a64.92,64.92 0 0 0 -12.86,7.33a29.5,29.5 0 0 0 -5.83,5.38c-4.53,5.8 -5.21,13.69 -5.09,21.05c0.09,5.12 5,8.92 8.38,12.75a93.94,93.94 0 0 1 8.58,12c1.82,2.88 3.72,6 3.49,9.43c-0.19,2.81 -1.83,5.45 -1.57,8.25c0.09,1 0.41,1.92 0.5,2.89c0.18,2 -0.61,4 -0.81,6c-0.27,2.83 0.65,5.64 0.7,8.49a27,27 0 0 1 -0.74,5.79c-1.92,9.14 -4.33,18.33 -3.84,27.66l-5.54,1a4.68,4.68 0 0 1 -1.07,7.47c8.65,2.89 18,1.43 27.17,1.42c7.59,0 15.15,1 22.73,0.86s15.4,-1.51 21.65,-5.8c1.7,-1.16 3.26,-2.52 5.05,-3.53a24.91,24.91 0 0 1 7.65,-2.5a75.91,75.91 0 0 1 15,-1.34c2.46,0 5.14,0.1 7.1,-1.38c2.16,-1.64 2.71,-4.61 3,-7.3c0.29,-2.84 0.47,-5.69 0.52,-8.54a36.82,36.82 0 0 0 -0.35,-6.64a43.48,43.48 0 0 0 -1.17,-4.76l-3.77,-13.28c-1.56,-5.48 0.61,-11.49 1.07,-17.17c0.11,-1.34 0.13,-2.9 -0.9,-3.76c-0.37,-0.31 -0.88,-0.52 -1,-1a1.71,1.71 0 0 1 0.24,-1.34c2,-4 5,-7.53 7.74,-11.14a227.64,227.64 0 0 0 12.8,-19.67a63.29,63.29 0 0 0 -16.94,-37.88c-2,-2.17 -4.29,-4.25 -7.09,-5.23a21,21 0 0 0 -5.64,-0.91c-7.84,-0.53 -16,-1 -22.83,-4.94a4.34,4.34 0 0 0 -1.63,-0.69c-1.51,-0.17 -2.61,1.32 -3.59,2.5c-2.52,3 -6.23,4.72 -9.49,6.93c-6.08,4.13 -10.83,9.81 -15.22,15.6z"/>
   <path id="svg_86" fill="#5b5583" d="m875.29,358.28c1.56,4.94 1.41,10.22 1.92,15.37a59.8,59.8 0 0 0 1.63,9.21a14.7,14.7 0 0 0 1.9,4.69c0.9,1.32 2.19,2.39 2.76,3.88a9.37,9.37 0 0 1 0.41,3.12l0.12,6.9a24.81,24.81 0 0 1 -1.63,10.74l-4.31,13.11c-2.33,7.1 -4.72,14.31 -8.92,20.49a5.91,5.91 0 0 1 -2.57,2.41a12.48,12.48 0 0 1 -2.59,0.4a6.66,6.66 0 0 0 -5.49,6.47a15.19,15.19 0 0 0 -3.69,-3.77l-8.77,-7c-3,-2.44 -6.13,-4.92 -9.77,-6.33a26.49,26.49 0 0 0 18.42,-22.26a10,10 0 0 1 1,-4.38c0.73,-1.18 2.08,-2.08 2.18,-3.47c0.12,-1.75 -1.86,-3.07 -1.86,-4.82c0,-1.16 0.86,-2.12 1.24,-3.21a8.06,8.06 0 0 0 0,-4.11l-1.21,-6.72a5.13,5.13 0 0 0 -0.6,-1.92a12.42,12.42 0 0 0 -1.5,-1.58c-2.08,-2.33 -1.16,-6 0,-8.87a84.78,84.78 0 0 1 10.22,-17.93a61.31,61.31 0 0 0 4.07,-5.82c1.06,-1.84 1.3,-4.39 2.42,-6c1.44,3.78 3.39,7.51 4.62,11.4z"/>
   <path id="svg_87" fill="#323444" d="m835.98,438.38a4.82,4.82 0 0 0 -1.14,1.2a10.11,10.11 0 0 1 -4.53,3.23c1,0.72 1.91,1.43 2.85,2.16a124.88,124.88 0 0 1 19,18.17c0.63,-2.25 4.4,-2.09 5.32,-4.24a4.15,4.15 0 0 0 0.2,-1.92a58.57,58.57 0 0 0 -1.44,-10a11.32,11.32 0 0 0 -2,-4.68c-1.4,-1.69 -3.58,-2.5 -5.66,-3.2c-3.15,-1.1 -9.4,-2.65 -12.6,-0.72z"/>
   <path id="svg_88" fill="#fbb3b2" d="m823.48,446.24c-3,2.22 -5.63,5 -9,6.52c-2.38,1.08 -5.09,1.55 -7.17,3.16c1.13,2.49 4.07,3.78 6.8,3.68a16.16,16.16 0 0 0 7.61,-2.79c1.79,-1.1 3.89,-2.38 5.84,-1.61c0.3,1.52 -1,2.95 -1,4.49s1.28,2.66 2.54,3.47c6,3.87 13.72,3.55 20.87,3.1a1.88,1.88 0 0 0 1.15,-0.34a1.81,1.81 0 0 0 0.43,-1.32c0.09,-1.58 0.13,-3.15 0.14,-4.73a6.78,6.78 0 0 0 -2.9,-6.68a81.61,81.61 0 0 0 -12.5,-8.85c-4.4,-2.55 -8.86,-1.04 -12.81,1.9z"/>
   <path id="svg_89" fill="#3c354c" d="m797.99,259.11c-4.44,0.53 -7.67,4 -7.22,7.77s4.41,6.37 8.85,5.83s7.67,-4 7.22,-7.76s-4.41,-6.37 -8.85,-5.84zm1.51,12.56c-3.76,0.45 -7.11,-1.76 -7.5,-4.94s2.36,-6.12 6.11,-6.57s7.11,1.76 7.5,4.94s-2.36,6.12 -6.11,6.57z"/>
   <path id="svg_90" fill="#3c354c" d="m776.35,261.71c-4.44,0.53 -7.67,4 -7.22,7.76s4.41,6.37 8.85,5.84s7.67,-4 7.22,-7.77s-4.41,-6.36 -8.85,-5.83zm1.51,12.55c-3.76,0.45 -7.11,-1.76 -7.49,-4.93s2.35,-6.12 6.11,-6.58s7.11,1.76 7.49,4.94s-2.36,6.12 -6.11,6.57z"/>
   <polygon id="svg_91" fill="#3c354c" points="760.280029296875,263.6400146484375 769.9299926757812,265.70001220703125 768.97998046875,268.239990234375 759.8800048828125,265.57000732421875 760.280029296875,263.6400146484375 "/>
   <polygon id="svg_92" fill="#3c354c" points="814.0700073242188,257.17999267578125 805.1699829101562,261.4700012207031 806.7000122070312,263.7099914550781 814.9099731445312,258.9600067138672 814.0700073242188,257.17999267578125 "/>
   <polygon id="svg_93" fill="#3c354c" points="784.3099975585938,265.05999755859375 791.0800170898438,264.25 790.72998046875,265.92999267578125 784.9199829101562,266.32000732421875 784.3099975585938,265.05999755859375 "/>
   <path id="svg_94" fill="#cbceda" d="m771.18,262.79a10.74,10.74 0 0 0 1,-4.37a9.34,9.34 0 0 1 0.46,-2.66a7.44,7.44 0 0 1 2.18,-2.79c3.12,-2.64 7.59,-4 12,-4.19a27.74,27.74 0 0 1 13.88,3a10.8,10.8 0 0 1 3.45,2.56c1.4,1.71 1.7,3.92 3.11,5.61a8.17,8.17 0 0 0 7.66,2.4c0.49,-1.74 -0.15,-3.58 0.1,-5.36a25.93,25.93 0 0 1 1.59,-4.44c1.55,-4.57 -0.71,-9.87 -5.37,-12.6c-1.63,-1 -3.56,-1.65 -4.78,-3s-1.51,-2.75 -2.35,-4.1c-2.23,-3.57 -8,-5.24 -12.39,-3.59c-1.38,0.52 -2.6,1.31 -4,1.87c-2.6,1.07 -5.56,1.26 -8.42,1.62a25.79,25.79 0 0 0 -8.16,2.14c-2.47,1.22 -4.54,3.18 -5.11,5.52c-0.27,1.08 -0.21,2.2 -0.48,3.27c-1.38,5.43 -10.29,8.07 -10.79,13.61c-0.18,2 0.91,3.92 2.27,5.55c0.94,1.11 3.19,4.08 4.78,4.51s2.8,-1.08 4.32,-1.6c2.4,-0.75 3.85,-0.91 5.05,-2.96z"/>
  </g>
  <path id="svg_95" fill="#46455b" d="m883.99,615c0,50.24 31.52,90.9 70.47,90.9"/>
  <path id="svg_96" fill="#ffd666" d="m954.46,705.91c0,-50.81 35.18,-91.92 78.65,-91.92"/>
  <path id="svg_97" fill="#ffd666" d="m909.53,619.56c0,47.73 20.1,86.35 44.93,86.35"/>
  <path id="svg_98" fill="#46455b" d="m954.46,705.91c0,-64.92 40.66,-117.46 90.9,-117.46"/>
  <ellipse id="svg_99" opacity="0.1" fill="#ffd666" ry="2.96" rx="17.52" cy="720.31" cx="951.41"/>
  <path id="svg_100" fill="#a8a8a8" d="m939.64,706.55s10,-0.31 13,-2.45s15.37,-4.71 16.12,-1.27s15,17.11 3.73,17.2s-26.22,-1.76 -29.22,-3.59s-3.63,-9.89 -3.63,-9.89z"/>
  <path id="svg_101" opacity="0.2" d="m972.7,718.83c-11.28,0.09 -26.21,-1.76 -29.22,-3.59c-2.29,-1.39 -3.2,-6.4 -3.51,-8.7l-0.33,0s0.63,8.06 3.64,9.89s17.94,3.68 29.22,3.59c3.26,0 4.38,-1.19 4.32,-2.9c-0.45,1.04 -1.64,1.69 -4.12,1.71z"/>
  <path id="svg_102" fill="#46455b" d="m119.49,644.36c0,40 25.07,72.32 56.06,72.32"/>
  <path id="svg_103" fill="#ffd666" d="m175.55,716.68c0,-40.42 28,-73.13 62.57,-73.13"/>
  <path id="svg_104" fill="#ffd666" d="m139.8,648c0,38 16,68.7 35.75,68.7"/>
  <path id="svg_105" fill="#46455b" d="m175.55,716.68c0,-51.65 32.35,-93.45 72.32,-93.45"/>
  <ellipse id="svg_106" opacity="0.1" fill="#ffd666" ry="2.36" rx="13.94" cy="728.14" cx="173.12"/>
  <path id="svg_107" fill="#a8a8a8" d="m163.76,717.19s7.95,-0.25 10.34,-2s12.24,-3.75 12.83,-1s11.95,13.61 3,13.68s-20.86,-1.4 -23.25,-2.85s-2.92,-7.83 -2.92,-7.83z"/>
  <path id="svg_108" opacity="0.2" d="m190.06,727c-9,0.07 -20.86,-1.4 -23.25,-2.86c-1.82,-1.1 -2.54,-5.09 -2.79,-6.92l-0.26,0s0.5,6.41 2.89,7.87s14.28,2.92 23.25,2.85c2.59,0 3.49,-0.94 3.44,-2.31c-0.36,0.8 -1.35,1.31 -3.28,1.37z"/>
 </g>
</svg>